%TF.GenerationSoftware,KiCad,Pcbnew,8.0.4*%
%TF.CreationDate,2025-05-14T15:51:55-04:00*%
%TF.ProjectId,am-receiver,616d2d72-6563-4656-9976-65722e6b6963,rev?*%
%TF.SameCoordinates,Original*%
%TF.FileFunction,Copper,L2,Bot*%
%TF.FilePolarity,Positive*%
%FSLAX46Y46*%
G04 Gerber Fmt 4.6, Leading zero omitted, Abs format (unit mm)*
G04 Created by KiCad (PCBNEW 8.0.4) date 2025-05-14 15:51:55*
%MOMM*%
%LPD*%
G01*
G04 APERTURE LIST*
G04 Aperture macros list*
%AMRoundRect*
0 Rectangle with rounded corners*
0 $1 Rounding radius*
0 $2 $3 $4 $5 $6 $7 $8 $9 X,Y pos of 4 corners*
0 Add a 4 corners polygon primitive as box body*
4,1,4,$2,$3,$4,$5,$6,$7,$8,$9,$2,$3,0*
0 Add four circle primitives for the rounded corners*
1,1,$1+$1,$2,$3*
1,1,$1+$1,$4,$5*
1,1,$1+$1,$6,$7*
1,1,$1+$1,$8,$9*
0 Add four rect primitives between the rounded corners*
20,1,$1+$1,$2,$3,$4,$5,0*
20,1,$1+$1,$4,$5,$6,$7,0*
20,1,$1+$1,$6,$7,$8,$9,0*
20,1,$1+$1,$8,$9,$2,$3,0*%
G04 Aperture macros list end*
%TA.AperFunction,ComponentPad*%
%ADD10R,1.800000X1.800000*%
%TD*%
%TA.AperFunction,ComponentPad*%
%ADD11C,1.800000*%
%TD*%
%TA.AperFunction,ComponentPad*%
%ADD12C,3.800000*%
%TD*%
%TA.AperFunction,ComponentPad*%
%ADD13RoundRect,0.250000X0.600000X0.600000X-0.600000X0.600000X-0.600000X-0.600000X0.600000X-0.600000X0*%
%TD*%
%TA.AperFunction,ComponentPad*%
%ADD14C,1.700000*%
%TD*%
%TA.AperFunction,ComponentPad*%
%ADD15C,1.727200*%
%TD*%
%TA.AperFunction,ComponentPad*%
%ADD16R,1.350000X1.350000*%
%TD*%
%TA.AperFunction,ComponentPad*%
%ADD17O,1.350000X1.350000*%
%TD*%
%TA.AperFunction,ComponentPad*%
%ADD18C,2.540000*%
%TD*%
%TA.AperFunction,ComponentPad*%
%ADD19C,1.000000*%
%TD*%
%TA.AperFunction,ComponentPad*%
%ADD20R,1.600000X1.600000*%
%TD*%
%TA.AperFunction,ComponentPad*%
%ADD21O,1.600000X1.600000*%
%TD*%
%TA.AperFunction,ComponentPad*%
%ADD22R,2.200000X2.200000*%
%TD*%
%TA.AperFunction,ComponentPad*%
%ADD23O,2.200000X2.200000*%
%TD*%
%TA.AperFunction,ComponentPad*%
%ADD24R,1.800000X3.000000*%
%TD*%
%TA.AperFunction,ComponentPad*%
%ADD25O,1.800000X3.000000*%
%TD*%
%TA.AperFunction,ComponentPad*%
%ADD26O,1.600000X3.000000*%
%TD*%
%TA.AperFunction,ViaPad*%
%ADD27C,0.600000*%
%TD*%
%TA.AperFunction,Conductor*%
%ADD28C,0.200000*%
%TD*%
G04 APERTURE END LIST*
D10*
%TO.P,SW2,1,1*%
%TO.N,Net-(J1-Pad1)*%
X129750000Y-132000000D03*
D11*
%TO.P,SW2,2,2*%
%TO.N,Net-(D2-A)*%
X129750000Y-127000000D03*
%TO.P,SW2,3,3*%
%TO.N,Net-(AE1-A)*%
X135750000Y-132000000D03*
%TO.P,SW2,4,4*%
%TO.N,Net-(C1-Pad1)*%
X135750000Y-127000000D03*
%TD*%
D12*
%TO.P,AE1,1,A*%
%TO.N,Net-(AE1-A)*%
X153000000Y-132000000D03*
%TD*%
D13*
%TO.P,J2,1,MISO*%
%TO.N,MISO*%
X94000000Y-96580000D03*
D14*
%TO.P,J2,2,VCC*%
%TO.N,Vcc*%
X91460000Y-96580000D03*
%TO.P,J2,3,SCK*%
%TO.N,SCK*%
X94000000Y-94040000D03*
%TO.P,J2,4,MOSI*%
%TO.N,MOSI*%
X91460000Y-94040000D03*
%TO.P,J2,5,~{RST}*%
%TO.N,RST*%
X94000000Y-91500000D03*
%TO.P,J2,6,GND*%
%TO.N,GND*%
X91460000Y-91500000D03*
%TD*%
D15*
%TO.P,U1,1,GAIN*%
%TO.N,unconnected-(U1-GAIN-Pad1)*%
X191440000Y-106690000D03*
%TO.P,U1,2,-*%
%TO.N,Net-(U1--)*%
X191440000Y-109230000D03*
%TO.P,U1,3,+*%
%TO.N,GND*%
X191440000Y-111770000D03*
%TO.P,U1,4,GND*%
X191440000Y-114310000D03*
%TO.P,U1,5*%
%TO.N,Net-(C4-Pad1)*%
X199060000Y-114310000D03*
%TO.P,U1,6,V+*%
%TO.N,Vcc*%
X199060000Y-111770000D03*
%TO.P,U1,7,BYPASS*%
%TO.N,unconnected-(U1-BYPASS-Pad7)*%
X199060000Y-109230000D03*
%TO.P,U1,8,GAIN*%
%TO.N,unconnected-(U1-GAIN-Pad8)*%
X199060000Y-106690000D03*
%TD*%
D16*
%TO.P,J3,1,VSS*%
%TO.N,GND*%
X146600000Y-78650000D03*
D17*
%TO.P,J3,2,VDD*%
%TO.N,Vcc*%
X148600000Y-78650000D03*
%TO.P,J3,3,VO*%
%TO.N,Net-(J3-VO)*%
X150600000Y-78650000D03*
%TO.P,J3,4,RS*%
%TO.N,Net-(J3-RS)*%
X152600000Y-78650000D03*
%TO.P,J3,5,RW*%
%TO.N,GND*%
X154600000Y-78650000D03*
%TO.P,J3,6,E*%
%TO.N,Net-(J3-E)*%
X156600000Y-78650000D03*
%TO.P,J3,7,DB0*%
%TO.N,unconnected-(J3-DB0-Pad7)*%
X158600000Y-78650000D03*
%TO.P,J3,8,DB1*%
%TO.N,unconnected-(J3-DB1-Pad8)*%
X160600000Y-78650000D03*
%TO.P,J3,9,DB2*%
%TO.N,unconnected-(J3-DB2-Pad9)*%
X162600000Y-78650000D03*
%TO.P,J3,10,DB3*%
%TO.N,unconnected-(J3-DB3-Pad10)*%
X164600000Y-78650000D03*
%TO.P,J3,11,DB4*%
%TO.N,Net-(J3-DB4)*%
X166600000Y-78650000D03*
%TO.P,J3,12,DB5*%
%TO.N,unconnected-(J3-DB5-Pad12)*%
X168600000Y-78650000D03*
%TO.P,J3,13,DB6*%
%TO.N,Net-(J3-DB6)*%
X170600000Y-78650000D03*
%TO.P,J3,14,DB7*%
%TO.N,Net-(J3-DB7)*%
X172600000Y-78650000D03*
%TO.P,J3,15,A*%
%TO.N,Net-(J3-A)*%
X174600000Y-78650000D03*
%TO.P,J3,16,K*%
%TO.N,GND*%
X176600000Y-78650000D03*
%TD*%
D18*
%TO.P,ST171,P$1*%
%TO.N,FreqRead Input*%
X191750000Y-94250000D03*
%TO.P,ST171,P$2*%
%TO.N,GND*%
X196750000Y-94250000D03*
%TD*%
D19*
%TO.P,Y1,1,1*%
%TO.N,Net-(U2-XTAL2{slash}PB7)*%
X115000000Y-83250000D03*
%TO.P,Y1,2,2*%
%TO.N,Net-(U2-XTAL1{slash}PB6)*%
X112460000Y-83250000D03*
%TD*%
D20*
%TO.P,U2,1,~{RESET}/PC6*%
%TO.N,RST*%
X137160000Y-85380000D03*
D21*
%TO.P,U2,2,PD0*%
%TO.N,unconnected-(U2-PD0-Pad2)*%
X134620000Y-85380000D03*
%TO.P,U2,3,PD1*%
%TO.N,Net-(J3-E)*%
X132080000Y-85380000D03*
%TO.P,U2,4,PD2*%
%TO.N,Net-(J3-RS)*%
X129540000Y-85380000D03*
%TO.P,U2,5,PD3*%
%TO.N,unconnected-(U2-PD3-Pad5)*%
X127000000Y-85380000D03*
%TO.P,U2,6,PD4*%
%TO.N,Net-(J3-DB4)*%
X124460000Y-85380000D03*
%TO.P,U2,7,VCC*%
%TO.N,Vcc*%
X121920000Y-85380000D03*
%TO.P,U2,8,GND*%
%TO.N,GND*%
X119380000Y-85380000D03*
%TO.P,U2,9,XTAL1/PB6*%
%TO.N,Net-(U2-XTAL1{slash}PB6)*%
X116840000Y-85380000D03*
%TO.P,U2,10,XTAL2/PB7*%
%TO.N,Net-(U2-XTAL2{slash}PB7)*%
X114300000Y-85380000D03*
%TO.P,U2,11,PD5*%
%TO.N,FreqRead Input*%
X111760000Y-85380000D03*
%TO.P,U2,12,PD6*%
%TO.N,Net-(J3-DB6)*%
X109220000Y-85380000D03*
%TO.P,U2,13,PD7*%
%TO.N,Net-(J3-DB7)*%
X106680000Y-85380000D03*
%TO.P,U2,14,PB0*%
%TO.N,unconnected-(U2-PB0-Pad14)*%
X104140000Y-85380000D03*
%TO.P,U2,15,PB1*%
%TO.N,unconnected-(U2-PB1-Pad15)*%
X104140000Y-93000000D03*
%TO.P,U2,16,PB2*%
%TO.N,unconnected-(U2-PB2-Pad16)*%
X106680000Y-93000000D03*
%TO.P,U2,17,PB3*%
%TO.N,MOSI*%
X109220000Y-93000000D03*
%TO.P,U2,18,PB4*%
%TO.N,MISO*%
X111760000Y-93000000D03*
%TO.P,U2,19,PB5*%
%TO.N,SCK*%
X114300000Y-93000000D03*
%TO.P,U2,20,AVCC*%
%TO.N,Vcc*%
X116840000Y-93000000D03*
%TO.P,U2,21,AREF*%
%TO.N,unconnected-(U2-AREF-Pad21)*%
X119380000Y-93000000D03*
%TO.P,U2,22,GND*%
%TO.N,GND*%
X121920000Y-93000000D03*
%TO.P,U2,23,PC0*%
%TO.N,unconnected-(U2-PC0-Pad23)*%
X124460000Y-93000000D03*
%TO.P,U2,24,PC1*%
%TO.N,unconnected-(U2-PC1-Pad24)*%
X127000000Y-93000000D03*
%TO.P,U2,25,PC2*%
%TO.N,unconnected-(U2-PC2-Pad25)*%
X129540000Y-93000000D03*
%TO.P,U2,26,PC3*%
%TO.N,unconnected-(U2-PC3-Pad26)*%
X132080000Y-93000000D03*
%TO.P,U2,27,PC4*%
%TO.N,unconnected-(U2-PC4-Pad27)*%
X134620000Y-93000000D03*
%TO.P,U2,28,PC5*%
%TO.N,unconnected-(U2-PC5-Pad28)*%
X137160000Y-93000000D03*
%TD*%
D22*
%TO.P,D2,1,K*%
%TO.N,Net-(D2-K)*%
X115090000Y-113250000D03*
D23*
%TO.P,D2,2,A*%
%TO.N,Net-(D2-A)*%
X125250000Y-113250000D03*
%TD*%
D24*
%TO.P,J1,1*%
%TO.N,Net-(J1-Pad1)*%
X122750000Y-123150000D03*
D25*
%TO.P,J1,2*%
%TO.N,GND*%
X114250000Y-123150000D03*
%TO.P,J1,3*%
X119550000Y-123150000D03*
D26*
%TO.P,J1,SH*%
%TO.N,N/C*%
X113350000Y-130450000D03*
X123150000Y-130450000D03*
%TD*%
D27*
%TO.N,GND*%
X121750000Y-89750000D03*
X179750000Y-106750000D03*
X190250000Y-122000000D03*
X176250000Y-67000000D03*
X155000000Y-66750000D03*
X176750000Y-101750000D03*
X202000000Y-102750000D03*
X201750000Y-73750000D03*
X86750000Y-115250000D03*
X119000000Y-89500000D03*
X114500000Y-136500000D03*
X86750000Y-91500000D03*
%TO.N,Net-(D1-K)*%
X185000000Y-102500000D03*
X186750000Y-100500000D03*
X184750000Y-106000000D03*
X185500000Y-75000000D03*
%TO.N,Net-(C4-Pad1)*%
X182500000Y-115500000D03*
X183835000Y-94000000D03*
%TO.N,Net-(D2-K)*%
X102750000Y-115300000D03*
X102750000Y-129000000D03*
%TO.N,Net-(D2-A)*%
X130250000Y-113000000D03*
%TO.N,Net-(J1-Pad1)*%
X129250000Y-123000000D03*
%TO.N,RST*%
X137250000Y-91350000D03*
%TO.N,FreqRead Input*%
X111750000Y-90750000D03*
%TO.N,Vcc*%
X162250000Y-82750000D03*
X148600000Y-71250000D03*
X173500000Y-112750000D03*
X116750000Y-109000000D03*
X148500000Y-89250000D03*
X159000000Y-73000000D03*
X173250000Y-85000000D03*
%TO.N,Net-(J3-RS)*%
X129750000Y-80250000D03*
%TO.N,Net-(J3-DB7)*%
X107250000Y-73250000D03*
X172500000Y-74500000D03*
%TO.N,Net-(J3-A)*%
X174500000Y-82750000D03*
%TO.N,Net-(J3-DB6)*%
X170500000Y-81750000D03*
X140250000Y-73250000D03*
X140250000Y-81750000D03*
X109500000Y-73250000D03*
%TO.N,Net-(J3-E)*%
X132500000Y-76500000D03*
%TO.N,Net-(J3-DB4)*%
X167250000Y-87000000D03*
%TO.N,Net-(J3-VO)*%
X173000000Y-65750000D03*
X150600000Y-65500000D03*
X172750000Y-69000000D03*
%TO.N,Net-(U1--)*%
X190000000Y-83500000D03*
%TD*%
D28*
%TO.N,GND*%
X119380000Y-89120000D02*
X119380000Y-85380000D01*
X190250000Y-122000000D02*
X190276400Y-121973600D01*
X121920000Y-93000000D02*
X121920000Y-89920000D01*
X179750000Y-104750000D02*
X179750000Y-106750000D01*
X176750000Y-101750000D02*
X179750000Y-104750000D01*
X176250000Y-67000000D02*
X176600000Y-67350000D01*
X114450000Y-123350000D02*
X114450000Y-136450000D01*
X121920000Y-89920000D02*
X121750000Y-89750000D01*
X153000000Y-106000000D02*
X158750000Y-111750000D01*
X176600000Y-67350000D02*
X176600000Y-78650000D01*
X114250000Y-123150000D02*
X119550000Y-123150000D01*
X119000000Y-89500000D02*
X119380000Y-89120000D01*
X190276400Y-121973600D02*
X190276400Y-112933600D01*
X155000000Y-66750000D02*
X154600000Y-67150000D01*
X154600000Y-67150000D02*
X154600000Y-78650000D01*
X202000000Y-102750000D02*
X202000000Y-74000000D01*
X202000000Y-74000000D02*
X201750000Y-73750000D01*
X190276400Y-112933600D02*
X191440000Y-111770000D01*
X114250000Y-123150000D02*
X114450000Y-123350000D01*
X114450000Y-136450000D02*
X114500000Y-136500000D01*
X86750000Y-91500000D02*
X86750000Y-115250000D01*
%TO.N,Net-(D1-K)*%
X185500000Y-99250000D02*
X186750000Y-100500000D01*
X184750000Y-106000000D02*
X184750000Y-102750000D01*
X184750000Y-102750000D02*
X185000000Y-102500000D01*
X185500000Y-75000000D02*
X185500000Y-99250000D01*
%TO.N,Net-(C4-Pad1)*%
X182500000Y-115500000D02*
X182500000Y-95335000D01*
X182500000Y-95335000D02*
X183835000Y-94000000D01*
%TO.N,Net-(D2-K)*%
X102750000Y-115300000D02*
X102750000Y-129000000D01*
%TO.N,Net-(D2-A)*%
X130250000Y-126500000D02*
X130250000Y-113000000D01*
X129750000Y-127000000D02*
X130250000Y-126500000D01*
%TO.N,Net-(J1-Pad1)*%
X129250000Y-123000000D02*
X128550000Y-123700000D01*
X128550000Y-123700000D02*
X128550000Y-130800000D01*
X128550000Y-130800000D02*
X129750000Y-132000000D01*
%TO.N,SCK*%
X94000000Y-94040000D02*
X94850000Y-94890000D01*
X94850000Y-94890000D02*
X112410000Y-94890000D01*
X112410000Y-94890000D02*
X114300000Y-93000000D01*
%TO.N,RST*%
X137160000Y-91260000D02*
X137160000Y-85380000D01*
X137250000Y-91350000D02*
X137160000Y-91260000D01*
%TO.N,MOSI*%
X92610000Y-92890000D02*
X102694365Y-92890000D01*
X91460000Y-94040000D02*
X92610000Y-92890000D01*
X102694365Y-92890000D02*
X103834365Y-91750000D01*
X103834365Y-91750000D02*
X107970000Y-91750000D01*
X107970000Y-91750000D02*
X109220000Y-93000000D01*
%TO.N,FreqRead Input*%
X111750000Y-90000000D02*
X111760000Y-89990000D01*
X111750000Y-90750000D02*
X111750000Y-90000000D01*
X111760000Y-89990000D02*
X111760000Y-85380000D01*
%TO.N,Vcc*%
X148600000Y-89150000D02*
X148600000Y-78650000D01*
X160750000Y-82750000D02*
X162250000Y-82750000D01*
X159000000Y-74250000D02*
X159625000Y-74875000D01*
X159000000Y-73000000D02*
X159000000Y-74250000D01*
X148600000Y-71250000D02*
X148600000Y-78650000D01*
X116840000Y-108910000D02*
X116840000Y-93000000D01*
X116750000Y-109000000D02*
X116840000Y-108910000D01*
X121920000Y-85380000D02*
X121920000Y-87920000D01*
X159625000Y-74875000D02*
X159625000Y-81625000D01*
X148500000Y-89250000D02*
X148600000Y-89150000D01*
X121920000Y-87920000D02*
X116840000Y-93000000D01*
X173500000Y-85250000D02*
X173250000Y-85000000D01*
X159625000Y-81625000D02*
X160750000Y-82750000D01*
X173500000Y-112750000D02*
X173500000Y-85250000D01*
%TO.N,Net-(J3-RS)*%
X129540000Y-85380000D02*
X129540000Y-80460000D01*
X129540000Y-80460000D02*
X129750000Y-80250000D01*
%TO.N,Net-(J3-DB7)*%
X107000000Y-73500000D02*
X107000000Y-85060000D01*
X172500000Y-74500000D02*
X172600000Y-74600000D01*
X107000000Y-85060000D02*
X106680000Y-85380000D01*
X107250000Y-73250000D02*
X107000000Y-73500000D01*
X172600000Y-74600000D02*
X172600000Y-78650000D01*
%TO.N,Net-(J3-A)*%
X174600000Y-82650000D02*
X174600000Y-78650000D01*
X174500000Y-82750000D02*
X174600000Y-82650000D01*
%TO.N,Net-(J3-DB6)*%
X109220000Y-85380000D02*
X109220000Y-73530000D01*
X109220000Y-73530000D02*
X109500000Y-73250000D01*
X170600000Y-81650000D02*
X170600000Y-78650000D01*
X140250000Y-81750000D02*
X140250000Y-73250000D01*
X170500000Y-81750000D02*
X170600000Y-81650000D01*
%TO.N,Net-(J3-E)*%
X132080000Y-85380000D02*
X132080000Y-76920000D01*
X132080000Y-76920000D02*
X132500000Y-76500000D01*
%TO.N,Net-(J3-DB4)*%
X166600000Y-86350000D02*
X166600000Y-78650000D01*
X167250000Y-87000000D02*
X166600000Y-86350000D01*
%TO.N,Net-(J3-VO)*%
X150600000Y-65500000D02*
X150600000Y-78650000D01*
X173000000Y-65750000D02*
X173000000Y-68750000D01*
X173000000Y-68750000D02*
X172750000Y-69000000D01*
%TO.N,Net-(U1--)*%
X191440000Y-109230000D02*
X190180000Y-107970000D01*
X190180000Y-107970000D02*
X190180000Y-83680000D01*
X190180000Y-83680000D02*
X190000000Y-83500000D01*
%TD*%
%TA.AperFunction,Conductor*%
%TO.N,GND*%
G36*
X205442539Y-62520185D02*
G01*
X205488294Y-62572989D01*
X205499500Y-62624500D01*
X205499500Y-139625500D01*
X205479815Y-139692539D01*
X205427011Y-139738294D01*
X205375500Y-139749500D01*
X134624000Y-139749500D01*
X134556961Y-139729815D01*
X134511206Y-139677011D01*
X134500000Y-139625500D01*
X134500000Y-133027747D01*
X134519685Y-132960708D01*
X134572489Y-132914953D01*
X134641647Y-132905009D01*
X134705203Y-132934034D01*
X134715223Y-132943758D01*
X134777893Y-133011836D01*
X134798213Y-133033910D01*
X134798222Y-133033918D01*
X134981365Y-133176464D01*
X134981371Y-133176468D01*
X134981374Y-133176470D01*
X135185497Y-133286936D01*
X135299487Y-133326068D01*
X135405015Y-133362297D01*
X135405017Y-133362297D01*
X135405019Y-133362298D01*
X135633951Y-133400500D01*
X135633952Y-133400500D01*
X135866048Y-133400500D01*
X135866049Y-133400500D01*
X136094981Y-133362298D01*
X136314503Y-133286936D01*
X136518626Y-133176470D01*
X136701784Y-133033913D01*
X136858979Y-132863153D01*
X136985924Y-132668849D01*
X137079157Y-132456300D01*
X137136134Y-132231305D01*
X137155300Y-132000000D01*
X137155300Y-131999994D01*
X150594754Y-131999994D01*
X150594754Y-132000005D01*
X150613718Y-132301446D01*
X150613719Y-132301453D01*
X150670320Y-132598164D01*
X150763659Y-132885431D01*
X150763661Y-132885436D01*
X150892265Y-133158732D01*
X150892268Y-133158738D01*
X151054111Y-133413763D01*
X151246652Y-133646505D01*
X151466836Y-133853272D01*
X151466846Y-133853280D01*
X151711193Y-134030808D01*
X151711198Y-134030810D01*
X151711205Y-134030816D01*
X151975896Y-134176332D01*
X151975901Y-134176334D01*
X151975903Y-134176335D01*
X151975904Y-134176336D01*
X152256734Y-134287524D01*
X152256737Y-134287525D01*
X152354259Y-134312564D01*
X152549302Y-134362642D01*
X152696039Y-134381179D01*
X152848963Y-134400499D01*
X152848969Y-134400499D01*
X152848973Y-134400500D01*
X152848975Y-134400500D01*
X153151025Y-134400500D01*
X153151027Y-134400500D01*
X153151032Y-134400499D01*
X153151036Y-134400499D01*
X153230591Y-134390448D01*
X153450698Y-134362642D01*
X153743262Y-134287525D01*
X153743265Y-134287524D01*
X154024095Y-134176336D01*
X154024096Y-134176335D01*
X154024094Y-134176335D01*
X154024104Y-134176332D01*
X154288795Y-134030816D01*
X154533162Y-133853274D01*
X154753349Y-133646504D01*
X154945885Y-133413768D01*
X155107733Y-133158736D01*
X155236341Y-132885430D01*
X155329681Y-132598160D01*
X155386280Y-132301457D01*
X155386281Y-132301446D01*
X155405246Y-132000005D01*
X155405246Y-131999994D01*
X155386281Y-131698553D01*
X155386280Y-131698546D01*
X155386280Y-131698543D01*
X155329681Y-131401840D01*
X155236341Y-131114570D01*
X155206239Y-131050601D01*
X155107734Y-130841267D01*
X155107733Y-130841264D01*
X154978549Y-130637702D01*
X154945888Y-130586236D01*
X154753347Y-130353494D01*
X154533163Y-130146727D01*
X154533153Y-130146719D01*
X154288806Y-129969191D01*
X154288799Y-129969186D01*
X154288795Y-129969184D01*
X154024104Y-129823668D01*
X154024101Y-129823666D01*
X154024096Y-129823664D01*
X154024095Y-129823663D01*
X153743265Y-129712475D01*
X153743262Y-129712474D01*
X153450695Y-129637357D01*
X153151036Y-129599500D01*
X153151027Y-129599500D01*
X152848973Y-129599500D01*
X152848963Y-129599500D01*
X152549304Y-129637357D01*
X152256737Y-129712474D01*
X152256734Y-129712475D01*
X151975904Y-129823663D01*
X151975903Y-129823664D01*
X151711205Y-129969184D01*
X151711193Y-129969191D01*
X151466846Y-130146719D01*
X151466836Y-130146727D01*
X151246652Y-130353494D01*
X151054111Y-130586236D01*
X150892268Y-130841261D01*
X150892265Y-130841267D01*
X150763661Y-131114563D01*
X150763659Y-131114568D01*
X150670320Y-131401835D01*
X150613719Y-131698546D01*
X150613718Y-131698553D01*
X150594754Y-131999994D01*
X137155300Y-131999994D01*
X137155300Y-131999993D01*
X137136135Y-131768702D01*
X137136133Y-131768691D01*
X137079157Y-131543699D01*
X136985924Y-131331151D01*
X136858983Y-131136852D01*
X136858980Y-131136849D01*
X136858979Y-131136847D01*
X136701784Y-130966087D01*
X136701779Y-130966083D01*
X136701777Y-130966081D01*
X136518634Y-130823535D01*
X136518628Y-130823531D01*
X136314504Y-130713064D01*
X136314495Y-130713061D01*
X136094984Y-130637702D01*
X135923282Y-130609050D01*
X135866049Y-130599500D01*
X135633951Y-130599500D01*
X135588164Y-130607140D01*
X135405015Y-130637702D01*
X135185504Y-130713061D01*
X135185495Y-130713064D01*
X134981371Y-130823531D01*
X134981365Y-130823535D01*
X134798222Y-130966081D01*
X134798219Y-130966084D01*
X134798216Y-130966086D01*
X134798216Y-130966087D01*
X134715228Y-131056235D01*
X134655343Y-131092225D01*
X134585505Y-131090125D01*
X134527889Y-131050601D01*
X134500787Y-130986202D01*
X134500000Y-130972252D01*
X134500000Y-128027747D01*
X134519685Y-127960708D01*
X134572489Y-127914953D01*
X134641647Y-127905009D01*
X134705203Y-127934034D01*
X134715223Y-127943758D01*
X134777893Y-128011836D01*
X134798213Y-128033910D01*
X134798222Y-128033918D01*
X134981365Y-128176464D01*
X134981371Y-128176468D01*
X134981374Y-128176470D01*
X135185497Y-128286936D01*
X135299487Y-128326068D01*
X135405015Y-128362297D01*
X135405017Y-128362297D01*
X135405019Y-128362298D01*
X135633951Y-128400500D01*
X135633952Y-128400500D01*
X135866048Y-128400500D01*
X135866049Y-128400500D01*
X136094981Y-128362298D01*
X136314503Y-128286936D01*
X136518626Y-128176470D01*
X136701784Y-128033913D01*
X136858979Y-127863153D01*
X136985924Y-127668849D01*
X137079157Y-127456300D01*
X137136134Y-127231305D01*
X137155300Y-127000000D01*
X137155300Y-126999993D01*
X137136135Y-126768702D01*
X137136133Y-126768691D01*
X137079157Y-126543699D01*
X136985924Y-126331151D01*
X136858983Y-126136852D01*
X136858980Y-126136849D01*
X136858979Y-126136847D01*
X136701784Y-125966087D01*
X136701779Y-125966083D01*
X136701777Y-125966081D01*
X136518634Y-125823535D01*
X136518628Y-125823531D01*
X136314504Y-125713064D01*
X136314495Y-125713061D01*
X136094984Y-125637702D01*
X135923282Y-125609050D01*
X135866049Y-125599500D01*
X135633951Y-125599500D01*
X135588164Y-125607140D01*
X135405015Y-125637702D01*
X135185504Y-125713061D01*
X135185495Y-125713064D01*
X134981371Y-125823531D01*
X134981365Y-125823535D01*
X134798222Y-125966081D01*
X134798219Y-125966084D01*
X134798216Y-125966086D01*
X134798216Y-125966087D01*
X134715228Y-126056235D01*
X134655343Y-126092225D01*
X134585505Y-126090125D01*
X134527889Y-126050601D01*
X134500787Y-125986202D01*
X134500000Y-125972252D01*
X134500000Y-123321770D01*
X134519685Y-123254731D01*
X134562233Y-123214249D01*
X147990747Y-115499996D01*
X181694435Y-115499996D01*
X181694435Y-115500003D01*
X181714630Y-115679249D01*
X181714631Y-115679254D01*
X181774211Y-115849523D01*
X181870184Y-116002262D01*
X181997738Y-116129816D01*
X182150478Y-116225789D01*
X182320745Y-116285368D01*
X182320750Y-116285369D01*
X182499996Y-116305565D01*
X182500000Y-116305565D01*
X182500004Y-116305565D01*
X182679249Y-116285369D01*
X182679252Y-116285368D01*
X182679255Y-116285368D01*
X182849522Y-116225789D01*
X183002262Y-116129816D01*
X183129816Y-116002262D01*
X183225789Y-115849522D01*
X183285368Y-115679255D01*
X183286005Y-115673600D01*
X183305565Y-115500003D01*
X183305565Y-115499996D01*
X183285369Y-115320750D01*
X183285368Y-115320745D01*
X183225788Y-115150476D01*
X183192645Y-115097730D01*
X183129816Y-114997738D01*
X183129814Y-114997736D01*
X183129813Y-114997734D01*
X183127550Y-114994896D01*
X183126659Y-114992715D01*
X183126111Y-114991842D01*
X183126264Y-114991745D01*
X183101144Y-114930209D01*
X183100500Y-114917587D01*
X183100500Y-105999996D01*
X183944435Y-105999996D01*
X183944435Y-106000003D01*
X183964630Y-106179249D01*
X183964631Y-106179254D01*
X184024211Y-106349523D01*
X184096588Y-106464710D01*
X184120184Y-106502262D01*
X184247738Y-106629816D01*
X184400478Y-106725789D01*
X184570745Y-106785368D01*
X184570750Y-106785369D01*
X184749996Y-106805565D01*
X184750000Y-106805565D01*
X184750004Y-106805565D01*
X184929249Y-106785369D01*
X184929252Y-106785368D01*
X184929255Y-106785368D01*
X185099522Y-106725789D01*
X185252262Y-106629816D01*
X185379816Y-106502262D01*
X185475789Y-106349522D01*
X185535368Y-106179255D01*
X185535369Y-106179249D01*
X185555565Y-106000003D01*
X185555565Y-105999996D01*
X185535369Y-105820750D01*
X185535368Y-105820745D01*
X185487155Y-105682960D01*
X185475789Y-105650478D01*
X185379816Y-105497738D01*
X185379814Y-105497736D01*
X185379813Y-105497734D01*
X185377550Y-105494896D01*
X185376659Y-105492715D01*
X185376111Y-105491842D01*
X185376264Y-105491745D01*
X185351144Y-105430209D01*
X185350500Y-105417587D01*
X185350500Y-103293706D01*
X185370185Y-103226667D01*
X185408529Y-103188712D01*
X185502259Y-103129818D01*
X185502259Y-103129817D01*
X185502262Y-103129816D01*
X185629816Y-103002262D01*
X185725789Y-102849522D01*
X185785368Y-102679255D01*
X185803513Y-102518215D01*
X185805565Y-102500003D01*
X185805565Y-102499996D01*
X185785369Y-102320750D01*
X185785368Y-102320745D01*
X185725788Y-102150476D01*
X185629815Y-101997737D01*
X185502262Y-101870184D01*
X185349523Y-101774211D01*
X185179254Y-101714631D01*
X185179249Y-101714630D01*
X185000004Y-101694435D01*
X184999996Y-101694435D01*
X184820750Y-101714630D01*
X184820745Y-101714631D01*
X184650476Y-101774211D01*
X184497737Y-101870184D01*
X184370184Y-101997737D01*
X184274211Y-102150476D01*
X184214631Y-102320745D01*
X184214630Y-102320749D01*
X184194844Y-102496362D01*
X184191399Y-102514571D01*
X184149499Y-102670943D01*
X184149499Y-102839046D01*
X184149500Y-102839059D01*
X184149500Y-105417587D01*
X184129815Y-105484626D01*
X184122450Y-105494896D01*
X184120186Y-105497734D01*
X184024211Y-105650476D01*
X183964631Y-105820745D01*
X183964630Y-105820750D01*
X183944435Y-105999996D01*
X183100500Y-105999996D01*
X183100500Y-95635096D01*
X183120185Y-95568057D01*
X183136815Y-95547419D01*
X183853535Y-94830698D01*
X183914856Y-94797215D01*
X183927311Y-94795163D01*
X184014255Y-94785368D01*
X184184522Y-94725789D01*
X184337262Y-94629816D01*
X184464816Y-94502262D01*
X184560789Y-94349522D01*
X184620368Y-94179255D01*
X184640565Y-94000000D01*
X184638927Y-93985464D01*
X184620369Y-93820750D01*
X184620368Y-93820745D01*
X184560788Y-93650476D01*
X184464815Y-93497737D01*
X184337262Y-93370184D01*
X184184523Y-93274211D01*
X184014254Y-93214631D01*
X184014249Y-93214630D01*
X183835004Y-93194435D01*
X183834996Y-93194435D01*
X183655750Y-93214630D01*
X183655745Y-93214631D01*
X183485476Y-93274211D01*
X183332737Y-93370184D01*
X183205184Y-93497737D01*
X183109210Y-93650478D01*
X183049630Y-93820750D01*
X183039837Y-93907668D01*
X183012770Y-93972082D01*
X183004298Y-93981465D01*
X182131286Y-94854478D01*
X182019481Y-94966282D01*
X182019475Y-94966290D01*
X181984346Y-95027137D01*
X181984346Y-95027139D01*
X181940423Y-95103214D01*
X181940423Y-95103215D01*
X181899499Y-95255943D01*
X181899499Y-95255945D01*
X181899499Y-95424046D01*
X181899500Y-95424059D01*
X181899500Y-114917587D01*
X181879815Y-114984626D01*
X181872450Y-114994896D01*
X181870186Y-114997734D01*
X181774211Y-115150476D01*
X181714631Y-115320745D01*
X181714630Y-115320750D01*
X181694435Y-115499996D01*
X147990747Y-115499996D01*
X172713735Y-101297428D01*
X172781668Y-101281104D01*
X172847646Y-101304098D01*
X172890717Y-101359113D01*
X172899500Y-101404950D01*
X172899500Y-112167587D01*
X172879815Y-112234626D01*
X172872450Y-112244896D01*
X172870186Y-112247734D01*
X172774211Y-112400476D01*
X172714631Y-112570745D01*
X172714630Y-112570750D01*
X172694435Y-112749996D01*
X172694435Y-112750003D01*
X172714630Y-112929249D01*
X172714631Y-112929254D01*
X172774211Y-113099523D01*
X172870184Y-113252262D01*
X172997738Y-113379816D01*
X173088080Y-113436582D01*
X173140123Y-113469283D01*
X173150478Y-113475789D01*
X173320745Y-113535368D01*
X173320750Y-113535369D01*
X173499996Y-113555565D01*
X173500000Y-113555565D01*
X173500004Y-113555565D01*
X173679249Y-113535369D01*
X173679252Y-113535368D01*
X173679255Y-113535368D01*
X173849522Y-113475789D01*
X174002262Y-113379816D01*
X174129816Y-113252262D01*
X174225789Y-113099522D01*
X174285368Y-112929255D01*
X174286873Y-112915899D01*
X174305565Y-112750003D01*
X174305565Y-112749996D01*
X174285369Y-112570750D01*
X174285368Y-112570745D01*
X174233133Y-112421466D01*
X174225789Y-112400478D01*
X174129816Y-112247738D01*
X174129814Y-112247736D01*
X174129813Y-112247734D01*
X174127550Y-112244896D01*
X174126659Y-112242715D01*
X174126111Y-112241842D01*
X174126264Y-112241745D01*
X174101144Y-112180209D01*
X174100500Y-112167587D01*
X174100500Y-100572546D01*
X174120185Y-100505507D01*
X174162731Y-100465026D01*
X181500000Y-96250000D01*
X181500000Y-74999996D01*
X184694435Y-74999996D01*
X184694435Y-75000003D01*
X184714630Y-75179249D01*
X184714631Y-75179254D01*
X184774211Y-75349523D01*
X184870185Y-75502263D01*
X184872445Y-75505097D01*
X184873334Y-75507275D01*
X184873889Y-75508158D01*
X184873734Y-75508255D01*
X184898855Y-75569783D01*
X184899500Y-75582412D01*
X184899500Y-99163330D01*
X184899499Y-99163348D01*
X184899499Y-99329054D01*
X184899498Y-99329054D01*
X184940423Y-99481785D01*
X184969358Y-99531900D01*
X184969359Y-99531904D01*
X184969360Y-99531904D01*
X185019479Y-99618714D01*
X185019481Y-99618717D01*
X185138349Y-99737585D01*
X185138355Y-99737590D01*
X185919298Y-100518533D01*
X185952783Y-100579856D01*
X185954837Y-100592330D01*
X185964630Y-100679249D01*
X186024210Y-100849521D01*
X186120184Y-101002262D01*
X186247738Y-101129816D01*
X186400478Y-101225789D01*
X186558559Y-101281104D01*
X186570745Y-101285368D01*
X186570750Y-101285369D01*
X186749996Y-101305565D01*
X186750000Y-101305565D01*
X186750004Y-101305565D01*
X186929249Y-101285369D01*
X186929252Y-101285368D01*
X186929255Y-101285368D01*
X187099522Y-101225789D01*
X187252262Y-101129816D01*
X187379816Y-101002262D01*
X187475789Y-100849522D01*
X187535368Y-100679255D01*
X187545162Y-100592330D01*
X187555565Y-100500003D01*
X187555565Y-100499996D01*
X187535369Y-100320750D01*
X187535368Y-100320745D01*
X187475788Y-100150476D01*
X187379815Y-99997737D01*
X187252262Y-99870184D01*
X187099521Y-99774210D01*
X186929249Y-99714630D01*
X186842330Y-99704837D01*
X186777916Y-99677770D01*
X186768533Y-99669298D01*
X186136819Y-99037584D01*
X186103334Y-98976261D01*
X186100500Y-98949903D01*
X186100500Y-83499996D01*
X189194435Y-83499996D01*
X189194435Y-83500003D01*
X189214630Y-83679249D01*
X189214631Y-83679254D01*
X189274211Y-83849523D01*
X189370184Y-84002262D01*
X189497738Y-84129816D01*
X189521471Y-84144728D01*
X189567762Y-84197061D01*
X189579500Y-84249722D01*
X189579500Y-107883330D01*
X189579499Y-107883348D01*
X189579499Y-108049054D01*
X189579498Y-108049054D01*
X189588891Y-108084107D01*
X189620423Y-108201785D01*
X189632649Y-108222960D01*
X189677203Y-108300130D01*
X189699479Y-108338715D01*
X189818349Y-108457585D01*
X189818355Y-108457590D01*
X190095757Y-108734992D01*
X190129242Y-108796315D01*
X190128282Y-108853113D01*
X190089892Y-109004710D01*
X190071225Y-109229993D01*
X190071225Y-109230006D01*
X190089892Y-109455289D01*
X190145388Y-109674439D01*
X190236198Y-109881466D01*
X190359842Y-110070716D01*
X190359850Y-110070727D01*
X190512950Y-110237036D01*
X190512954Y-110237040D01*
X190691351Y-110375893D01*
X190691353Y-110375894D01*
X190691360Y-110375899D01*
X190719689Y-110391229D01*
X190769280Y-110440447D01*
X190784390Y-110508664D01*
X190760220Y-110574220D01*
X190719694Y-110609337D01*
X190691629Y-110624525D01*
X190691623Y-110624530D01*
X190667139Y-110643585D01*
X190667139Y-110643587D01*
X191387153Y-111363600D01*
X191386496Y-111363600D01*
X191283135Y-111391295D01*
X191190464Y-111444799D01*
X191114799Y-111520464D01*
X191061295Y-111613135D01*
X191033600Y-111716496D01*
X191033600Y-111717153D01*
X190315110Y-110998663D01*
X190236639Y-111118774D01*
X190145863Y-111325721D01*
X190090388Y-111544786D01*
X190090386Y-111544797D01*
X190071727Y-111769993D01*
X190071727Y-111770006D01*
X190090386Y-111995202D01*
X190090388Y-111995213D01*
X190145863Y-112214278D01*
X190236638Y-112421222D01*
X190315111Y-112541334D01*
X191033600Y-111822846D01*
X191033600Y-111823504D01*
X191061295Y-111926865D01*
X191114799Y-112019536D01*
X191190464Y-112095201D01*
X191283135Y-112148705D01*
X191386496Y-112176400D01*
X191387153Y-112176400D01*
X190667139Y-112896412D01*
X190691629Y-112915474D01*
X190691631Y-112915475D01*
X190720218Y-112930946D01*
X190769808Y-112980166D01*
X190784915Y-113048383D01*
X190760744Y-113113938D01*
X190720218Y-113149054D01*
X190691629Y-113164525D01*
X190691623Y-113164530D01*
X190667139Y-113183585D01*
X190667139Y-113183587D01*
X191387153Y-113903600D01*
X191386496Y-113903600D01*
X191283135Y-113931295D01*
X191190464Y-113984799D01*
X191114799Y-114060464D01*
X191061295Y-114153135D01*
X191033600Y-114256496D01*
X191033600Y-114257153D01*
X190315110Y-113538663D01*
X190236639Y-113658774D01*
X190145863Y-113865721D01*
X190090388Y-114084786D01*
X190090386Y-114084797D01*
X190071727Y-114309993D01*
X190071727Y-114310006D01*
X190090386Y-114535202D01*
X190090388Y-114535213D01*
X190145863Y-114754278D01*
X190236638Y-114961222D01*
X190315111Y-115081334D01*
X191033600Y-114362846D01*
X191033600Y-114363504D01*
X191061295Y-114466865D01*
X191114799Y-114559536D01*
X191190464Y-114635201D01*
X191283135Y-114688705D01*
X191386496Y-114716400D01*
X191387153Y-114716400D01*
X190667139Y-115436412D01*
X190691628Y-115455472D01*
X190890369Y-115563027D01*
X190890375Y-115563029D01*
X191104106Y-115636403D01*
X191327010Y-115673600D01*
X191552990Y-115673600D01*
X191775893Y-115636403D01*
X191989624Y-115563029D01*
X191989639Y-115563022D01*
X192188367Y-115455475D01*
X192188377Y-115455468D01*
X192212859Y-115436413D01*
X192212860Y-115436412D01*
X191492847Y-114716400D01*
X191493504Y-114716400D01*
X191596865Y-114688705D01*
X191689536Y-114635201D01*
X191765201Y-114559536D01*
X191818705Y-114466865D01*
X191846400Y-114363504D01*
X191846400Y-114362848D01*
X192564887Y-115081335D01*
X192643359Y-114961227D01*
X192734136Y-114754278D01*
X192789611Y-114535213D01*
X192789613Y-114535202D01*
X192808273Y-114310006D01*
X192808273Y-114309993D01*
X192789613Y-114084797D01*
X192789611Y-114084786D01*
X192734136Y-113865721D01*
X192643361Y-113658777D01*
X192564887Y-113538663D01*
X191846400Y-114257151D01*
X191846400Y-114256496D01*
X191818705Y-114153135D01*
X191765201Y-114060464D01*
X191689536Y-113984799D01*
X191596865Y-113931295D01*
X191493504Y-113903600D01*
X191492848Y-113903600D01*
X192212859Y-113183586D01*
X192212859Y-113183584D01*
X192188382Y-113164533D01*
X192188371Y-113164526D01*
X192159780Y-113149053D01*
X192110190Y-113099833D01*
X192095083Y-113031616D01*
X192119254Y-112966061D01*
X192159784Y-112930943D01*
X192188372Y-112915472D01*
X192188377Y-112915468D01*
X192212859Y-112896413D01*
X192212860Y-112896412D01*
X191492847Y-112176400D01*
X191493504Y-112176400D01*
X191596865Y-112148705D01*
X191689536Y-112095201D01*
X191765201Y-112019536D01*
X191818705Y-111926865D01*
X191846400Y-111823504D01*
X191846400Y-111822848D01*
X192564887Y-112541335D01*
X192643359Y-112421227D01*
X192734136Y-112214278D01*
X192789611Y-111995213D01*
X192789613Y-111995202D01*
X192808273Y-111770006D01*
X192808273Y-111769993D01*
X192789613Y-111544797D01*
X192789611Y-111544786D01*
X192734136Y-111325721D01*
X192643361Y-111118777D01*
X192564887Y-110998663D01*
X191846400Y-111717151D01*
X191846400Y-111716496D01*
X191818705Y-111613135D01*
X191765201Y-111520464D01*
X191689536Y-111444799D01*
X191596865Y-111391295D01*
X191493504Y-111363600D01*
X191492848Y-111363600D01*
X192212859Y-110643586D01*
X192212859Y-110643584D01*
X192188382Y-110624533D01*
X192188371Y-110624526D01*
X192160307Y-110609338D01*
X192110717Y-110560117D01*
X192095610Y-110491901D01*
X192119782Y-110426345D01*
X192160308Y-110391230D01*
X192188649Y-110375893D01*
X192367046Y-110237040D01*
X192520156Y-110070719D01*
X192643802Y-109881465D01*
X192734611Y-109674441D01*
X192790107Y-109455293D01*
X192808775Y-109230000D01*
X192808775Y-109229993D01*
X192790107Y-109004710D01*
X192790107Y-109004707D01*
X192734611Y-108785559D01*
X192643802Y-108578535D01*
X192520156Y-108389281D01*
X192520153Y-108389278D01*
X192520149Y-108389272D01*
X192367046Y-108222960D01*
X192188649Y-108084107D01*
X192188647Y-108084106D01*
X192188646Y-108084105D01*
X192188639Y-108084100D01*
X192160836Y-108069055D01*
X192111244Y-108019837D01*
X192096135Y-107951620D01*
X192120306Y-107886064D01*
X192160836Y-107850945D01*
X192188639Y-107835899D01*
X192188642Y-107835896D01*
X192188649Y-107835893D01*
X192367046Y-107697040D01*
X192520156Y-107530719D01*
X192643802Y-107341465D01*
X192734611Y-107134441D01*
X192790107Y-106915293D01*
X192800873Y-106785368D01*
X192808775Y-106690006D01*
X192808775Y-106689993D01*
X197691225Y-106689993D01*
X197691225Y-106690006D01*
X197709892Y-106915289D01*
X197765388Y-107134439D01*
X197856198Y-107341466D01*
X197979842Y-107530716D01*
X197979850Y-107530727D01*
X198132950Y-107697036D01*
X198132954Y-107697040D01*
X198311351Y-107835893D01*
X198339165Y-107850945D01*
X198388755Y-107900165D01*
X198403863Y-107968382D01*
X198379692Y-108033937D01*
X198339165Y-108069055D01*
X198311352Y-108084106D01*
X198132955Y-108222959D01*
X198132954Y-108222960D01*
X197979850Y-108389272D01*
X197979842Y-108389283D01*
X197856198Y-108578533D01*
X197765388Y-108785560D01*
X197709892Y-109004710D01*
X197691225Y-109229993D01*
X197691225Y-109230006D01*
X197709892Y-109455289D01*
X197765388Y-109674439D01*
X197856198Y-109881466D01*
X197979842Y-110070716D01*
X197979850Y-110070727D01*
X198132950Y-110237036D01*
X198132954Y-110237040D01*
X198311351Y-110375893D01*
X198339165Y-110390945D01*
X198388755Y-110440165D01*
X198403863Y-110508382D01*
X198379692Y-110573937D01*
X198339165Y-110609055D01*
X198311352Y-110624106D01*
X198132955Y-110762959D01*
X198132950Y-110762963D01*
X197979850Y-110929272D01*
X197979842Y-110929283D01*
X197856198Y-111118533D01*
X197765388Y-111325560D01*
X197709892Y-111544710D01*
X197691225Y-111769993D01*
X197691225Y-111770006D01*
X197709892Y-111995289D01*
X197765388Y-112214439D01*
X197856198Y-112421466D01*
X197979842Y-112610716D01*
X197979850Y-112610727D01*
X198132950Y-112777036D01*
X198132954Y-112777040D01*
X198311351Y-112915893D01*
X198336031Y-112929249D01*
X198339165Y-112930945D01*
X198388755Y-112980165D01*
X198403863Y-113048382D01*
X198379692Y-113113937D01*
X198339165Y-113149055D01*
X198311352Y-113164106D01*
X198132955Y-113302959D01*
X198132950Y-113302963D01*
X197979850Y-113469272D01*
X197979842Y-113469283D01*
X197856198Y-113658533D01*
X197765388Y-113865560D01*
X197709892Y-114084710D01*
X197691225Y-114309993D01*
X197691225Y-114310006D01*
X197709892Y-114535289D01*
X197765388Y-114754439D01*
X197856198Y-114961466D01*
X197979842Y-115150716D01*
X197979850Y-115150727D01*
X198132950Y-115317036D01*
X198132954Y-115317040D01*
X198311351Y-115455893D01*
X198510169Y-115563488D01*
X198510172Y-115563489D01*
X198723982Y-115636890D01*
X198723984Y-115636890D01*
X198723986Y-115636891D01*
X198946967Y-115674100D01*
X198946968Y-115674100D01*
X199173032Y-115674100D01*
X199173033Y-115674100D01*
X199396014Y-115636891D01*
X199609831Y-115563488D01*
X199808649Y-115455893D01*
X199987046Y-115317040D01*
X200140156Y-115150719D01*
X200263802Y-114961465D01*
X200354611Y-114754441D01*
X200410107Y-114535293D01*
X200428775Y-114310000D01*
X200428775Y-114309999D01*
X200428775Y-114309993D01*
X200410114Y-114084797D01*
X200410107Y-114084707D01*
X200354611Y-113865559D01*
X200263802Y-113658535D01*
X200140156Y-113469281D01*
X200140153Y-113469278D01*
X200140149Y-113469272D01*
X199987049Y-113302963D01*
X199987048Y-113302962D01*
X199987046Y-113302960D01*
X199808649Y-113164107D01*
X199808647Y-113164106D01*
X199808646Y-113164105D01*
X199808639Y-113164100D01*
X199780836Y-113149055D01*
X199731244Y-113099837D01*
X199716135Y-113031620D01*
X199740306Y-112966064D01*
X199780836Y-112930945D01*
X199808639Y-112915899D01*
X199808642Y-112915896D01*
X199808649Y-112915893D01*
X199987046Y-112777040D01*
X200140156Y-112610719D01*
X200263802Y-112421465D01*
X200354611Y-112214441D01*
X200410107Y-111995293D01*
X200428775Y-111770000D01*
X200428775Y-111769999D01*
X200428775Y-111769993D01*
X200410114Y-111544797D01*
X200410107Y-111544707D01*
X200354611Y-111325559D01*
X200263802Y-111118535D01*
X200140156Y-110929281D01*
X200140153Y-110929278D01*
X200140149Y-110929272D01*
X199987049Y-110762963D01*
X199987048Y-110762962D01*
X199987046Y-110762960D01*
X199808649Y-110624107D01*
X199808647Y-110624106D01*
X199808646Y-110624105D01*
X199808639Y-110624100D01*
X199780836Y-110609055D01*
X199731244Y-110559837D01*
X199716135Y-110491620D01*
X199740306Y-110426064D01*
X199780836Y-110390945D01*
X199808639Y-110375899D01*
X199808645Y-110375895D01*
X199808649Y-110375893D01*
X199987046Y-110237040D01*
X200140156Y-110070719D01*
X200263802Y-109881465D01*
X200354611Y-109674441D01*
X200410107Y-109455293D01*
X200428775Y-109230000D01*
X200428775Y-109229993D01*
X200410107Y-109004710D01*
X200410107Y-109004707D01*
X200354611Y-108785559D01*
X200263802Y-108578535D01*
X200140156Y-108389281D01*
X200140153Y-108389278D01*
X200140149Y-108389272D01*
X199987046Y-108222960D01*
X199808649Y-108084107D01*
X199808647Y-108084106D01*
X199808646Y-108084105D01*
X199808639Y-108084100D01*
X199780836Y-108069055D01*
X199731244Y-108019837D01*
X199716135Y-107951620D01*
X199740306Y-107886064D01*
X199780836Y-107850945D01*
X199808639Y-107835899D01*
X199808642Y-107835896D01*
X199808649Y-107835893D01*
X199987046Y-107697040D01*
X200140156Y-107530719D01*
X200263802Y-107341465D01*
X200354611Y-107134441D01*
X200410107Y-106915293D01*
X200420873Y-106785368D01*
X200428775Y-106690006D01*
X200428775Y-106689993D01*
X200410107Y-106464710D01*
X200410107Y-106464707D01*
X200354611Y-106245559D01*
X200263802Y-106038535D01*
X200140156Y-105849281D01*
X200140153Y-105849278D01*
X200140149Y-105849272D01*
X199987049Y-105682963D01*
X199987048Y-105682962D01*
X199987046Y-105682960D01*
X199808649Y-105544107D01*
X199722967Y-105497738D01*
X199609832Y-105436512D01*
X199609827Y-105436510D01*
X199396017Y-105363109D01*
X199228778Y-105335202D01*
X199173033Y-105325900D01*
X198946967Y-105325900D01*
X198902370Y-105333341D01*
X198723982Y-105363109D01*
X198510172Y-105436510D01*
X198510167Y-105436512D01*
X198311352Y-105544106D01*
X198132955Y-105682959D01*
X198132950Y-105682963D01*
X197979850Y-105849272D01*
X197979842Y-105849283D01*
X197856198Y-106038533D01*
X197765388Y-106245560D01*
X197709892Y-106464710D01*
X197691225Y-106689993D01*
X192808775Y-106689993D01*
X192790107Y-106464710D01*
X192790107Y-106464707D01*
X192734611Y-106245559D01*
X192643802Y-106038535D01*
X192520156Y-105849281D01*
X192520153Y-105849278D01*
X192520149Y-105849272D01*
X192367049Y-105682963D01*
X192367048Y-105682962D01*
X192367046Y-105682960D01*
X192188649Y-105544107D01*
X192102967Y-105497738D01*
X191989832Y-105436512D01*
X191989827Y-105436510D01*
X191776017Y-105363109D01*
X191608778Y-105335202D01*
X191553033Y-105325900D01*
X191326967Y-105325900D01*
X191295112Y-105331215D01*
X191103980Y-105363109D01*
X190944762Y-105417769D01*
X190874964Y-105420919D01*
X190814543Y-105385832D01*
X190782682Y-105323650D01*
X190780500Y-105300488D01*
X190780500Y-95945565D01*
X190800185Y-95878526D01*
X190852989Y-95832771D01*
X190922147Y-95822827D01*
X190958298Y-95833843D01*
X191101350Y-95902734D01*
X191354922Y-95980950D01*
X191354923Y-95980950D01*
X191354926Y-95980951D01*
X191617311Y-96020499D01*
X191617316Y-96020499D01*
X191617319Y-96020500D01*
X191617320Y-96020500D01*
X191882680Y-96020500D01*
X191882681Y-96020500D01*
X191882688Y-96020499D01*
X192145073Y-95980951D01*
X192145074Y-95980950D01*
X192145078Y-95980950D01*
X192398650Y-95902734D01*
X192637733Y-95787598D01*
X192856984Y-95638114D01*
X193051508Y-95457623D01*
X193216958Y-95250155D01*
X193349639Y-95020345D01*
X193446586Y-94773327D01*
X193505635Y-94514619D01*
X193505641Y-94514540D01*
X193525465Y-94250004D01*
X193525465Y-94249995D01*
X194975037Y-94249995D01*
X194975037Y-94250004D01*
X194994860Y-94514535D01*
X194994861Y-94514540D01*
X195053890Y-94773166D01*
X195053896Y-94773185D01*
X195150814Y-95020128D01*
X195150813Y-95020128D01*
X195283457Y-95249871D01*
X195333642Y-95312803D01*
X195333643Y-95312803D01*
X196267037Y-94379409D01*
X196284075Y-94442993D01*
X196349901Y-94557007D01*
X196442993Y-94650099D01*
X196557007Y-94715925D01*
X196620590Y-94732962D01*
X195686438Y-95667112D01*
X195862525Y-95787166D01*
X195862526Y-95787167D01*
X196101530Y-95902264D01*
X196101528Y-95902264D01*
X196355025Y-95980458D01*
X196355031Y-95980459D01*
X196617351Y-96019999D01*
X196617358Y-96020000D01*
X196882642Y-96020000D01*
X196882648Y-96019999D01*
X197144968Y-95980459D01*
X197144974Y-95980458D01*
X197398470Y-95902264D01*
X197637479Y-95787164D01*
X197813560Y-95667112D01*
X196879409Y-94732962D01*
X196942993Y-94715925D01*
X197057007Y-94650099D01*
X197150099Y-94557007D01*
X197215925Y-94442993D01*
X197232962Y-94379409D01*
X198166355Y-95312803D01*
X198166356Y-95312802D01*
X198216545Y-95249869D01*
X198349185Y-95020128D01*
X198446103Y-94773185D01*
X198446109Y-94773166D01*
X198505138Y-94514540D01*
X198505139Y-94514535D01*
X198524963Y-94250004D01*
X198524963Y-94249995D01*
X198505139Y-93985464D01*
X198505138Y-93985459D01*
X198446109Y-93726833D01*
X198446103Y-93726814D01*
X198349185Y-93479871D01*
X198349186Y-93479871D01*
X198216543Y-93250129D01*
X198216536Y-93250118D01*
X198166356Y-93187196D01*
X198166355Y-93187195D01*
X197232962Y-94120589D01*
X197215925Y-94057007D01*
X197150099Y-93942993D01*
X197057007Y-93849901D01*
X196942993Y-93784075D01*
X196879410Y-93767037D01*
X197813560Y-92832886D01*
X197637484Y-92712839D01*
X197637474Y-92712832D01*
X197398469Y-92597735D01*
X197398471Y-92597735D01*
X197144974Y-92519541D01*
X197144968Y-92519540D01*
X196882648Y-92480000D01*
X196617351Y-92480000D01*
X196355031Y-92519540D01*
X196355025Y-92519541D01*
X196101529Y-92597735D01*
X195862526Y-92712832D01*
X195862518Y-92712837D01*
X195686438Y-92832886D01*
X196620590Y-93767037D01*
X196557007Y-93784075D01*
X196442993Y-93849901D01*
X196349901Y-93942993D01*
X196284075Y-94057007D01*
X196267037Y-94120590D01*
X195333643Y-93187196D01*
X195283456Y-93250128D01*
X195150814Y-93479871D01*
X195053896Y-93726814D01*
X195053890Y-93726833D01*
X194994861Y-93985459D01*
X194994860Y-93985464D01*
X194975037Y-94249995D01*
X193525465Y-94249995D01*
X193505636Y-93985390D01*
X193505635Y-93985385D01*
X193505635Y-93985381D01*
X193446586Y-93726673D01*
X193349639Y-93479655D01*
X193216958Y-93249845D01*
X193051508Y-93042377D01*
X192856984Y-92861886D01*
X192641480Y-92714957D01*
X192637736Y-92712404D01*
X192637725Y-92712397D01*
X192398655Y-92597268D01*
X192398636Y-92597261D01*
X192145083Y-92519051D01*
X192145073Y-92519048D01*
X191882688Y-92479500D01*
X191882681Y-92479500D01*
X191617319Y-92479500D01*
X191617311Y-92479500D01*
X191354926Y-92519048D01*
X191354916Y-92519051D01*
X191101363Y-92597261D01*
X191101344Y-92597268D01*
X190958301Y-92666154D01*
X190889360Y-92677506D01*
X190825225Y-92649784D01*
X190786260Y-92591788D01*
X190780500Y-92554434D01*
X190780500Y-83714236D01*
X190785237Y-83686366D01*
X190783819Y-83686043D01*
X190785369Y-83679252D01*
X190805565Y-83500003D01*
X190805565Y-83499996D01*
X190785369Y-83320750D01*
X190785368Y-83320745D01*
X190725788Y-83150476D01*
X190629815Y-82997737D01*
X190502262Y-82870184D01*
X190349523Y-82774211D01*
X190179254Y-82714631D01*
X190179249Y-82714630D01*
X190000004Y-82694435D01*
X189999996Y-82694435D01*
X189820750Y-82714630D01*
X189820745Y-82714631D01*
X189650476Y-82774211D01*
X189497737Y-82870184D01*
X189370184Y-82997737D01*
X189274211Y-83150476D01*
X189214631Y-83320745D01*
X189214630Y-83320750D01*
X189194435Y-83499996D01*
X186100500Y-83499996D01*
X186100500Y-75582412D01*
X186120185Y-75515373D01*
X186127555Y-75505097D01*
X186129810Y-75502267D01*
X186129816Y-75502262D01*
X186225789Y-75349522D01*
X186285368Y-75179255D01*
X186290814Y-75130923D01*
X186305565Y-75000003D01*
X186305565Y-74999996D01*
X186285369Y-74820750D01*
X186285368Y-74820745D01*
X186253797Y-74730520D01*
X186225789Y-74650478D01*
X186129816Y-74497738D01*
X186002262Y-74370184D01*
X185936809Y-74329057D01*
X185849523Y-74274211D01*
X185679254Y-74214631D01*
X185679249Y-74214630D01*
X185500004Y-74194435D01*
X185499996Y-74194435D01*
X185320750Y-74214630D01*
X185320745Y-74214631D01*
X185150476Y-74274211D01*
X184997737Y-74370184D01*
X184870184Y-74497737D01*
X184774211Y-74650476D01*
X184714631Y-74820745D01*
X184714630Y-74820750D01*
X184694435Y-74999996D01*
X181500000Y-74999996D01*
X181500000Y-62624500D01*
X181519685Y-62557461D01*
X181572489Y-62511706D01*
X181624000Y-62500500D01*
X205375500Y-62500500D01*
X205442539Y-62520185D01*
G37*
%TD.AperFunction*%
%TD*%
%TA.AperFunction,Conductor*%
%TO.N,GND*%
G36*
X133417865Y-85923348D02*
G01*
X133462382Y-85974725D01*
X133489429Y-86032728D01*
X133489432Y-86032734D01*
X133619954Y-86219141D01*
X133780858Y-86380045D01*
X133780861Y-86380047D01*
X133967266Y-86510568D01*
X134173504Y-86606739D01*
X134393308Y-86665635D01*
X134555230Y-86679801D01*
X134619998Y-86685468D01*
X134620000Y-86685468D01*
X134620002Y-86685468D01*
X134676807Y-86680498D01*
X134846692Y-86665635D01*
X135066496Y-86606739D01*
X135272734Y-86510568D01*
X135459139Y-86380047D01*
X135620047Y-86219139D01*
X135637272Y-86194539D01*
X135691848Y-86150913D01*
X135761346Y-86143718D01*
X135823701Y-86175239D01*
X135859116Y-86235468D01*
X135862138Y-86252406D01*
X135865908Y-86287483D01*
X135916202Y-86422328D01*
X135916206Y-86422335D01*
X136002452Y-86537544D01*
X136002455Y-86537547D01*
X136117664Y-86623793D01*
X136117671Y-86623797D01*
X136162618Y-86640561D01*
X136252517Y-86674091D01*
X136312127Y-86680500D01*
X136435500Y-86680499D01*
X136502539Y-86700183D01*
X136548294Y-86752987D01*
X136559500Y-86804499D01*
X136559500Y-90908592D01*
X136540494Y-90974564D01*
X136524209Y-91000481D01*
X136464633Y-91170737D01*
X136464630Y-91170750D01*
X136444435Y-91349996D01*
X136444435Y-91350003D01*
X136464630Y-91529249D01*
X136464633Y-91529262D01*
X136524209Y-91699518D01*
X136524210Y-91699520D01*
X136524211Y-91699522D01*
X136525630Y-91701780D01*
X136530415Y-91709396D01*
X136549413Y-91776634D01*
X136529043Y-91843468D01*
X136496542Y-91876940D01*
X136320859Y-91999953D01*
X136159954Y-92160858D01*
X136029432Y-92347265D01*
X136029431Y-92347267D01*
X136002382Y-92405275D01*
X135956209Y-92457714D01*
X135889016Y-92476866D01*
X135822135Y-92456650D01*
X135777618Y-92405275D01*
X135750686Y-92347520D01*
X135750568Y-92347266D01*
X135620047Y-92160861D01*
X135620045Y-92160858D01*
X135459141Y-91999954D01*
X135272734Y-91869432D01*
X135272732Y-91869431D01*
X135066497Y-91773261D01*
X135066488Y-91773258D01*
X134846697Y-91714366D01*
X134846693Y-91714365D01*
X134846692Y-91714365D01*
X134846691Y-91714364D01*
X134846686Y-91714364D01*
X134620002Y-91694532D01*
X134619998Y-91694532D01*
X134393313Y-91714364D01*
X134393302Y-91714366D01*
X134173511Y-91773258D01*
X134173502Y-91773261D01*
X133967267Y-91869431D01*
X133967265Y-91869432D01*
X133780858Y-91999954D01*
X133619954Y-92160858D01*
X133489432Y-92347265D01*
X133489431Y-92347267D01*
X133462382Y-92405275D01*
X133416209Y-92457714D01*
X133349016Y-92476866D01*
X133282135Y-92456650D01*
X133237618Y-92405275D01*
X133210686Y-92347520D01*
X133210568Y-92347266D01*
X133080047Y-92160861D01*
X133080045Y-92160858D01*
X132919141Y-91999954D01*
X132732734Y-91869432D01*
X132732732Y-91869431D01*
X132526497Y-91773261D01*
X132526488Y-91773258D01*
X132306697Y-91714366D01*
X132306693Y-91714365D01*
X132306692Y-91714365D01*
X132306691Y-91714364D01*
X132306686Y-91714364D01*
X132080002Y-91694532D01*
X132079998Y-91694532D01*
X131853313Y-91714364D01*
X131853302Y-91714366D01*
X131633511Y-91773258D01*
X131633502Y-91773261D01*
X131427267Y-91869431D01*
X131427265Y-91869432D01*
X131240858Y-91999954D01*
X131079954Y-92160858D01*
X130949432Y-92347265D01*
X130949431Y-92347267D01*
X130922382Y-92405275D01*
X130876209Y-92457714D01*
X130809016Y-92476866D01*
X130742135Y-92456650D01*
X130697618Y-92405275D01*
X130670686Y-92347520D01*
X130670568Y-92347266D01*
X130540047Y-92160861D01*
X130540045Y-92160858D01*
X130379141Y-91999954D01*
X130192734Y-91869432D01*
X130192732Y-91869431D01*
X129986497Y-91773261D01*
X129986488Y-91773258D01*
X129766697Y-91714366D01*
X129766693Y-91714365D01*
X129766692Y-91714365D01*
X129766691Y-91714364D01*
X129766686Y-91714364D01*
X129540002Y-91694532D01*
X129539998Y-91694532D01*
X129313313Y-91714364D01*
X129313302Y-91714366D01*
X129093511Y-91773258D01*
X129093502Y-91773261D01*
X128887267Y-91869431D01*
X128887265Y-91869432D01*
X128700858Y-91999954D01*
X128539954Y-92160858D01*
X128409432Y-92347265D01*
X128409431Y-92347267D01*
X128382382Y-92405275D01*
X128336209Y-92457714D01*
X128269016Y-92476866D01*
X128202135Y-92456650D01*
X128157618Y-92405275D01*
X128130686Y-92347520D01*
X128130568Y-92347266D01*
X128000047Y-92160861D01*
X128000045Y-92160858D01*
X127839141Y-91999954D01*
X127652734Y-91869432D01*
X127652732Y-91869431D01*
X127446497Y-91773261D01*
X127446488Y-91773258D01*
X127226697Y-91714366D01*
X127226693Y-91714365D01*
X127226692Y-91714365D01*
X127226691Y-91714364D01*
X127226686Y-91714364D01*
X127000002Y-91694532D01*
X126999998Y-91694532D01*
X126773313Y-91714364D01*
X126773302Y-91714366D01*
X126553511Y-91773258D01*
X126553502Y-91773261D01*
X126347267Y-91869431D01*
X126347265Y-91869432D01*
X126160858Y-91999954D01*
X125999954Y-92160858D01*
X125869432Y-92347265D01*
X125869431Y-92347267D01*
X125842382Y-92405275D01*
X125796209Y-92457714D01*
X125729016Y-92476866D01*
X125662135Y-92456650D01*
X125617618Y-92405275D01*
X125590686Y-92347520D01*
X125590568Y-92347266D01*
X125460047Y-92160861D01*
X125460045Y-92160858D01*
X125299141Y-91999954D01*
X125112734Y-91869432D01*
X125112732Y-91869431D01*
X124906497Y-91773261D01*
X124906488Y-91773258D01*
X124686697Y-91714366D01*
X124686693Y-91714365D01*
X124686692Y-91714365D01*
X124686691Y-91714364D01*
X124686686Y-91714364D01*
X124460002Y-91694532D01*
X124459998Y-91694532D01*
X124233313Y-91714364D01*
X124233302Y-91714366D01*
X124013511Y-91773258D01*
X124013502Y-91773261D01*
X123807267Y-91869431D01*
X123807265Y-91869432D01*
X123620858Y-91999954D01*
X123459954Y-92160858D01*
X123341225Y-92330423D01*
X123329432Y-92347266D01*
X123329315Y-92347518D01*
X123302106Y-92405867D01*
X123255933Y-92458306D01*
X123188739Y-92477457D01*
X123121858Y-92457241D01*
X123077342Y-92405865D01*
X123050135Y-92347520D01*
X123050134Y-92347518D01*
X122919657Y-92161179D01*
X122758820Y-92000342D01*
X122572482Y-91869865D01*
X122366328Y-91773734D01*
X122170000Y-91721127D01*
X122170000Y-92684314D01*
X122165606Y-92679920D01*
X122074394Y-92627259D01*
X121972661Y-92600000D01*
X121867339Y-92600000D01*
X121765606Y-92627259D01*
X121674394Y-92679920D01*
X121670000Y-92684314D01*
X121670000Y-91721127D01*
X121473671Y-91773734D01*
X121267517Y-91869865D01*
X121081179Y-92000342D01*
X120920342Y-92161179D01*
X120789867Y-92347515D01*
X120762657Y-92405867D01*
X120716484Y-92458306D01*
X120649290Y-92477457D01*
X120582409Y-92457241D01*
X120537893Y-92405865D01*
X120510685Y-92347518D01*
X120510568Y-92347266D01*
X120380047Y-92160861D01*
X120380045Y-92160858D01*
X120219141Y-91999954D01*
X120032734Y-91869432D01*
X120032732Y-91869431D01*
X119826497Y-91773261D01*
X119826488Y-91773258D01*
X119606697Y-91714366D01*
X119606693Y-91714365D01*
X119606692Y-91714365D01*
X119606691Y-91714364D01*
X119606686Y-91714364D01*
X119380002Y-91694532D01*
X119379998Y-91694532D01*
X119297150Y-91701780D01*
X119228650Y-91688013D01*
X119178467Y-91639398D01*
X119162534Y-91571369D01*
X119185910Y-91505526D01*
X119198656Y-91490577D01*
X122288713Y-88400521D01*
X122288716Y-88400520D01*
X122400520Y-88288716D01*
X122450639Y-88201904D01*
X122479577Y-88151785D01*
X122520501Y-87999057D01*
X122520501Y-87840943D01*
X122520501Y-87833348D01*
X122520500Y-87833330D01*
X122520500Y-86611692D01*
X122540185Y-86544653D01*
X122573374Y-86510119D01*
X122759139Y-86380047D01*
X122920047Y-86219139D01*
X123050568Y-86032734D01*
X123077618Y-85974724D01*
X123123790Y-85922285D01*
X123190983Y-85903133D01*
X123257865Y-85923348D01*
X123302382Y-85974725D01*
X123329429Y-86032728D01*
X123329432Y-86032734D01*
X123459954Y-86219141D01*
X123620858Y-86380045D01*
X123620861Y-86380047D01*
X123807266Y-86510568D01*
X124013504Y-86606739D01*
X124233308Y-86665635D01*
X124395230Y-86679801D01*
X124459998Y-86685468D01*
X124460000Y-86685468D01*
X124460002Y-86685468D01*
X124516807Y-86680498D01*
X124686692Y-86665635D01*
X124906496Y-86606739D01*
X125112734Y-86510568D01*
X125299139Y-86380047D01*
X125460047Y-86219139D01*
X125590568Y-86032734D01*
X125617618Y-85974724D01*
X125663790Y-85922285D01*
X125730983Y-85903133D01*
X125797865Y-85923348D01*
X125842382Y-85974725D01*
X125869429Y-86032728D01*
X125869432Y-86032734D01*
X125999954Y-86219141D01*
X126160858Y-86380045D01*
X126160861Y-86380047D01*
X126347266Y-86510568D01*
X126553504Y-86606739D01*
X126773308Y-86665635D01*
X126935230Y-86679801D01*
X126999998Y-86685468D01*
X127000000Y-86685468D01*
X127000002Y-86685468D01*
X127056807Y-86680498D01*
X127226692Y-86665635D01*
X127446496Y-86606739D01*
X127652734Y-86510568D01*
X127839139Y-86380047D01*
X128000047Y-86219139D01*
X128130568Y-86032734D01*
X128157618Y-85974724D01*
X128203790Y-85922285D01*
X128270983Y-85903133D01*
X128337865Y-85923348D01*
X128382382Y-85974725D01*
X128409429Y-86032728D01*
X128409432Y-86032734D01*
X128539954Y-86219141D01*
X128700858Y-86380045D01*
X128700861Y-86380047D01*
X128887266Y-86510568D01*
X129093504Y-86606739D01*
X129313308Y-86665635D01*
X129475230Y-86679801D01*
X129539998Y-86685468D01*
X129540000Y-86685468D01*
X129540002Y-86685468D01*
X129596807Y-86680498D01*
X129766692Y-86665635D01*
X129986496Y-86606739D01*
X130192734Y-86510568D01*
X130379139Y-86380047D01*
X130540047Y-86219139D01*
X130670568Y-86032734D01*
X130697618Y-85974724D01*
X130743790Y-85922285D01*
X130810983Y-85903133D01*
X130877865Y-85923348D01*
X130922382Y-85974725D01*
X130949429Y-86032728D01*
X130949432Y-86032734D01*
X131079954Y-86219141D01*
X131240858Y-86380045D01*
X131240861Y-86380047D01*
X131427266Y-86510568D01*
X131633504Y-86606739D01*
X131853308Y-86665635D01*
X132015230Y-86679801D01*
X132079998Y-86685468D01*
X132080000Y-86685468D01*
X132080002Y-86685468D01*
X132136807Y-86680498D01*
X132306692Y-86665635D01*
X132526496Y-86606739D01*
X132732734Y-86510568D01*
X132919139Y-86380047D01*
X133080047Y-86219139D01*
X133210568Y-86032734D01*
X133237618Y-85974724D01*
X133283790Y-85922285D01*
X133350983Y-85903133D01*
X133417865Y-85923348D01*
G37*
%TD.AperFunction*%
%TA.AperFunction,Conductor*%
G36*
X119630000Y-86658872D02*
G01*
X119826317Y-86606269D01*
X119826326Y-86606265D01*
X120032482Y-86510134D01*
X120218820Y-86379657D01*
X120379657Y-86218820D01*
X120510132Y-86032484D01*
X120537341Y-85974134D01*
X120583513Y-85921695D01*
X120650707Y-85902542D01*
X120717588Y-85922757D01*
X120762106Y-85974133D01*
X120789431Y-86032732D01*
X120789432Y-86032734D01*
X120919954Y-86219141D01*
X121080858Y-86380045D01*
X121080861Y-86380047D01*
X121266624Y-86510118D01*
X121310248Y-86564693D01*
X121319500Y-86611692D01*
X121319500Y-87619902D01*
X121299815Y-87686941D01*
X121283181Y-87707583D01*
X117282705Y-91708058D01*
X117221382Y-91741543D01*
X117162931Y-91740152D01*
X117066697Y-91714366D01*
X117066693Y-91714365D01*
X117066692Y-91714365D01*
X117066691Y-91714364D01*
X117066686Y-91714364D01*
X116840002Y-91694532D01*
X116839998Y-91694532D01*
X116613313Y-91714364D01*
X116613302Y-91714366D01*
X116393511Y-91773258D01*
X116393502Y-91773261D01*
X116187267Y-91869431D01*
X116187265Y-91869432D01*
X116000858Y-91999954D01*
X115839954Y-92160858D01*
X115709432Y-92347265D01*
X115709431Y-92347267D01*
X115682382Y-92405275D01*
X115636209Y-92457714D01*
X115569016Y-92476866D01*
X115502135Y-92456650D01*
X115457618Y-92405275D01*
X115430686Y-92347520D01*
X115430568Y-92347266D01*
X115300047Y-92160861D01*
X115300045Y-92160858D01*
X115139141Y-91999954D01*
X114952734Y-91869432D01*
X114952732Y-91869431D01*
X114746497Y-91773261D01*
X114746488Y-91773258D01*
X114526697Y-91714366D01*
X114526693Y-91714365D01*
X114526692Y-91714365D01*
X114526691Y-91714364D01*
X114526686Y-91714364D01*
X114300002Y-91694532D01*
X114299998Y-91694532D01*
X114073313Y-91714364D01*
X114073302Y-91714366D01*
X113853511Y-91773258D01*
X113853502Y-91773261D01*
X113647267Y-91869431D01*
X113647265Y-91869432D01*
X113460858Y-91999954D01*
X113299954Y-92160858D01*
X113169432Y-92347265D01*
X113169431Y-92347267D01*
X113142382Y-92405275D01*
X113096209Y-92457714D01*
X113029016Y-92476866D01*
X112962135Y-92456650D01*
X112917618Y-92405275D01*
X112890686Y-92347520D01*
X112890568Y-92347266D01*
X112760047Y-92160861D01*
X112760045Y-92160858D01*
X112599141Y-91999954D01*
X112412734Y-91869432D01*
X112412732Y-91869431D01*
X112206497Y-91773261D01*
X112206491Y-91773259D01*
X112052762Y-91732068D01*
X111993102Y-91695703D01*
X111962573Y-91632856D01*
X111970868Y-91563480D01*
X112015353Y-91509602D01*
X112043900Y-91495251D01*
X112099522Y-91475789D01*
X112252262Y-91379816D01*
X112379816Y-91252262D01*
X112475789Y-91099522D01*
X112535368Y-90929255D01*
X112546113Y-90833891D01*
X112555565Y-90750003D01*
X112555565Y-90749996D01*
X112535369Y-90570750D01*
X112535368Y-90570745D01*
X112475789Y-90400478D01*
X112466109Y-90385073D01*
X112429243Y-90326400D01*
X112379816Y-90247738D01*
X112379814Y-90247736D01*
X112379813Y-90247734D01*
X112377550Y-90244896D01*
X112376659Y-90242715D01*
X112376111Y-90241842D01*
X112376264Y-90241745D01*
X112351144Y-90180209D01*
X112350500Y-90167587D01*
X112350500Y-90122702D01*
X112354725Y-90090609D01*
X112355144Y-90089046D01*
X112360500Y-90069057D01*
X112360500Y-89910943D01*
X112360500Y-86611692D01*
X112380185Y-86544653D01*
X112413374Y-86510119D01*
X112599139Y-86380047D01*
X112760047Y-86219139D01*
X112890568Y-86032734D01*
X112917618Y-85974724D01*
X112963790Y-85922285D01*
X113030983Y-85903133D01*
X113097865Y-85923348D01*
X113142382Y-85974725D01*
X113169429Y-86032728D01*
X113169432Y-86032734D01*
X113299954Y-86219141D01*
X113460858Y-86380045D01*
X113460861Y-86380047D01*
X113647266Y-86510568D01*
X113853504Y-86606739D01*
X114073308Y-86665635D01*
X114235230Y-86679801D01*
X114299998Y-86685468D01*
X114300000Y-86685468D01*
X114300002Y-86685468D01*
X114356807Y-86680498D01*
X114526692Y-86665635D01*
X114746496Y-86606739D01*
X114952734Y-86510568D01*
X115139139Y-86380047D01*
X115300047Y-86219139D01*
X115430568Y-86032734D01*
X115457618Y-85974724D01*
X115503790Y-85922285D01*
X115570983Y-85903133D01*
X115637865Y-85923348D01*
X115682382Y-85974725D01*
X115709429Y-86032728D01*
X115709432Y-86032734D01*
X115839954Y-86219141D01*
X116000858Y-86380045D01*
X116000861Y-86380047D01*
X116187266Y-86510568D01*
X116393504Y-86606739D01*
X116613308Y-86665635D01*
X116775230Y-86679801D01*
X116839998Y-86685468D01*
X116840000Y-86685468D01*
X116840002Y-86685468D01*
X116896807Y-86680498D01*
X117066692Y-86665635D01*
X117286496Y-86606739D01*
X117492734Y-86510568D01*
X117679139Y-86380047D01*
X117840047Y-86219139D01*
X117970568Y-86032734D01*
X117997895Y-85974129D01*
X118044064Y-85921695D01*
X118111257Y-85902542D01*
X118178139Y-85922757D01*
X118222657Y-85974133D01*
X118249865Y-86032482D01*
X118380342Y-86218820D01*
X118541179Y-86379657D01*
X118727517Y-86510134D01*
X118933673Y-86606265D01*
X118933682Y-86606269D01*
X119129999Y-86658872D01*
X119130000Y-86658871D01*
X119130000Y-85695686D01*
X119134394Y-85700080D01*
X119225606Y-85752741D01*
X119327339Y-85780000D01*
X119432661Y-85780000D01*
X119534394Y-85752741D01*
X119625606Y-85700080D01*
X119630000Y-85695686D01*
X119630000Y-86658872D01*
G37*
%TD.AperFunction*%
%TA.AperFunction,Conductor*%
G36*
X178443039Y-62520185D02*
G01*
X178488794Y-62572989D01*
X178500000Y-62624500D01*
X178500000Y-94176545D01*
X178480315Y-94243584D01*
X178435580Y-94285293D01*
X174284080Y-96559785D01*
X174215828Y-96574733D01*
X174150330Y-96550409D01*
X174108379Y-96494534D01*
X174100500Y-96451037D01*
X174100500Y-85170944D01*
X174100500Y-85170943D01*
X174091956Y-85139058D01*
X174089534Y-85130019D01*
X174059577Y-85018216D01*
X174059576Y-85018215D01*
X174058600Y-85014570D01*
X174055155Y-84996360D01*
X174035369Y-84820750D01*
X174035368Y-84820745D01*
X174023163Y-84785865D01*
X173975789Y-84650478D01*
X173879816Y-84497738D01*
X173752262Y-84370184D01*
X173700507Y-84337664D01*
X173599523Y-84274211D01*
X173429254Y-84214631D01*
X173429249Y-84214630D01*
X173250004Y-84194435D01*
X173249996Y-84194435D01*
X173070750Y-84214630D01*
X173070745Y-84214631D01*
X172900476Y-84274211D01*
X172747737Y-84370184D01*
X172620184Y-84497737D01*
X172524211Y-84650476D01*
X172464631Y-84820745D01*
X172464630Y-84820750D01*
X172444435Y-84999996D01*
X172444435Y-85000003D01*
X172464630Y-85179249D01*
X172464631Y-85179254D01*
X172524211Y-85349523D01*
X172620184Y-85502262D01*
X172747740Y-85629818D01*
X172841471Y-85688712D01*
X172887763Y-85741046D01*
X172899500Y-85793706D01*
X172899500Y-97244904D01*
X172879815Y-97311943D01*
X172835080Y-97353652D01*
X131500000Y-119999998D01*
X131500000Y-139625500D01*
X131480315Y-139692539D01*
X131427511Y-139738294D01*
X131376000Y-139749500D01*
X84874500Y-139749500D01*
X84807461Y-139729815D01*
X84761706Y-139677011D01*
X84750500Y-139625500D01*
X84750500Y-115299996D01*
X101944435Y-115299996D01*
X101944435Y-115300003D01*
X101964630Y-115479249D01*
X101964631Y-115479254D01*
X102024211Y-115649523D01*
X102120185Y-115802263D01*
X102122445Y-115805097D01*
X102123334Y-115807275D01*
X102123889Y-115808158D01*
X102123734Y-115808255D01*
X102148855Y-115869783D01*
X102149500Y-115882412D01*
X102149500Y-128417587D01*
X102129815Y-128484626D01*
X102122450Y-128494896D01*
X102120186Y-128497734D01*
X102024211Y-128650476D01*
X101964631Y-128820745D01*
X101964630Y-128820750D01*
X101944435Y-128999996D01*
X101944435Y-129000003D01*
X101964630Y-129179249D01*
X101964631Y-129179254D01*
X102024211Y-129349523D01*
X102120184Y-129502262D01*
X102247738Y-129629816D01*
X102400478Y-129725789D01*
X102492666Y-129758047D01*
X102570745Y-129785368D01*
X102570750Y-129785369D01*
X102749996Y-129805565D01*
X102750000Y-129805565D01*
X102750004Y-129805565D01*
X102929249Y-129785369D01*
X102929252Y-129785368D01*
X102929255Y-129785368D01*
X103099522Y-129725789D01*
X103223883Y-129647648D01*
X112049500Y-129647648D01*
X112049500Y-131252351D01*
X112081522Y-131454534D01*
X112144781Y-131649223D01*
X112237715Y-131831613D01*
X112358028Y-131997213D01*
X112502786Y-132141971D01*
X112657749Y-132254556D01*
X112668390Y-132262287D01*
X112784607Y-132321503D01*
X112850776Y-132355218D01*
X112850778Y-132355218D01*
X112850781Y-132355220D01*
X112955137Y-132389127D01*
X113045465Y-132418477D01*
X113146557Y-132434488D01*
X113247648Y-132450500D01*
X113247649Y-132450500D01*
X113452351Y-132450500D01*
X113452352Y-132450500D01*
X113654534Y-132418477D01*
X113849219Y-132355220D01*
X114031610Y-132262287D01*
X114124590Y-132194732D01*
X114197213Y-132141971D01*
X114197215Y-132141968D01*
X114197219Y-132141966D01*
X114341966Y-131997219D01*
X114341968Y-131997215D01*
X114341971Y-131997213D01*
X114394732Y-131924590D01*
X114462287Y-131831610D01*
X114555220Y-131649219D01*
X114618477Y-131454534D01*
X114650500Y-131252352D01*
X114650500Y-129647648D01*
X114618477Y-129445466D01*
X114586311Y-129346468D01*
X118234500Y-129346468D01*
X118234500Y-129553531D01*
X118266892Y-129758048D01*
X118330876Y-129954974D01*
X118330877Y-129954977D01*
X118424883Y-130139472D01*
X118546593Y-130306991D01*
X118693009Y-130453407D01*
X118860528Y-130575117D01*
X118920959Y-130605908D01*
X119045022Y-130669122D01*
X119045025Y-130669123D01*
X119143488Y-130701115D01*
X119241953Y-130733108D01*
X119446468Y-130765500D01*
X119446469Y-130765500D01*
X119653531Y-130765500D01*
X119653532Y-130765500D01*
X119858047Y-130733108D01*
X120054977Y-130669122D01*
X120239472Y-130575117D01*
X120406991Y-130453407D01*
X120553407Y-130306991D01*
X120675117Y-130139472D01*
X120769122Y-129954977D01*
X120833108Y-129758047D01*
X120850593Y-129647648D01*
X121849500Y-129647648D01*
X121849500Y-131252351D01*
X121881522Y-131454534D01*
X121944781Y-131649223D01*
X122037715Y-131831613D01*
X122158028Y-131997213D01*
X122302786Y-132141971D01*
X122457749Y-132254556D01*
X122468390Y-132262287D01*
X122584607Y-132321503D01*
X122650776Y-132355218D01*
X122650778Y-132355218D01*
X122650781Y-132355220D01*
X122755137Y-132389127D01*
X122845465Y-132418477D01*
X122946557Y-132434488D01*
X123047648Y-132450500D01*
X123047649Y-132450500D01*
X123252351Y-132450500D01*
X123252352Y-132450500D01*
X123454534Y-132418477D01*
X123649219Y-132355220D01*
X123831610Y-132262287D01*
X123924590Y-132194732D01*
X123997213Y-132141971D01*
X123997215Y-132141968D01*
X123997219Y-132141966D01*
X124141966Y-131997219D01*
X124141968Y-131997215D01*
X124141971Y-131997213D01*
X124194732Y-131924590D01*
X124262287Y-131831610D01*
X124355220Y-131649219D01*
X124418477Y-131454534D01*
X124450500Y-131252352D01*
X124450500Y-130879054D01*
X127949498Y-130879054D01*
X127949499Y-130879057D01*
X127990423Y-131031785D01*
X128002165Y-131052123D01*
X128019358Y-131081900D01*
X128019359Y-131081904D01*
X128019360Y-131081904D01*
X128069479Y-131168714D01*
X128069481Y-131168717D01*
X128188349Y-131287585D01*
X128188355Y-131287590D01*
X128313181Y-131412416D01*
X128346666Y-131473739D01*
X128349500Y-131500097D01*
X128349500Y-132947870D01*
X128349501Y-132947876D01*
X128355908Y-133007483D01*
X128406202Y-133142328D01*
X128406206Y-133142335D01*
X128492452Y-133257544D01*
X128492455Y-133257547D01*
X128607664Y-133343793D01*
X128607671Y-133343797D01*
X128742517Y-133394091D01*
X128742516Y-133394091D01*
X128749444Y-133394835D01*
X128802127Y-133400500D01*
X130697872Y-133400499D01*
X130757483Y-133394091D01*
X130892331Y-133343796D01*
X131007546Y-133257546D01*
X131093796Y-133142331D01*
X131144091Y-133007483D01*
X131150500Y-132947873D01*
X131150499Y-131052128D01*
X131144091Y-130992517D01*
X131134233Y-130966087D01*
X131093797Y-130857671D01*
X131093793Y-130857664D01*
X131007547Y-130742455D01*
X131007544Y-130742452D01*
X130892335Y-130656206D01*
X130892328Y-130656202D01*
X130757482Y-130605908D01*
X130757483Y-130605908D01*
X130697883Y-130599501D01*
X130697881Y-130599500D01*
X130697873Y-130599500D01*
X130697865Y-130599500D01*
X129274500Y-130599500D01*
X129207461Y-130579815D01*
X129161706Y-130527011D01*
X129150500Y-130475500D01*
X129150500Y-128448594D01*
X129170185Y-128381555D01*
X129222989Y-128335800D01*
X129292147Y-128325856D01*
X129314759Y-128331312D01*
X129405019Y-128362298D01*
X129633951Y-128400500D01*
X129633952Y-128400500D01*
X129866048Y-128400500D01*
X129866049Y-128400500D01*
X130094981Y-128362298D01*
X130314503Y-128286936D01*
X130518626Y-128176470D01*
X130701784Y-128033913D01*
X130858979Y-127863153D01*
X130985924Y-127668849D01*
X131079157Y-127456300D01*
X131136134Y-127231305D01*
X131155300Y-127000000D01*
X131155300Y-126999993D01*
X131136135Y-126768702D01*
X131136133Y-126768691D01*
X131079157Y-126543699D01*
X130985924Y-126331151D01*
X130870691Y-126154772D01*
X130850503Y-126087883D01*
X130850500Y-126086951D01*
X130850500Y-113582412D01*
X130870185Y-113515373D01*
X130877555Y-113505097D01*
X130879810Y-113502267D01*
X130879816Y-113502262D01*
X130975789Y-113349522D01*
X131035368Y-113179255D01*
X131055565Y-113000000D01*
X131055435Y-112998848D01*
X131035369Y-112820750D01*
X131035368Y-112820745D01*
X130975788Y-112650476D01*
X130879815Y-112497737D01*
X130752262Y-112370184D01*
X130599523Y-112274211D01*
X130429254Y-112214631D01*
X130429249Y-112214630D01*
X130250004Y-112194435D01*
X130249996Y-112194435D01*
X130070750Y-112214630D01*
X130070745Y-112214631D01*
X129900476Y-112274211D01*
X129747737Y-112370184D01*
X129620184Y-112497737D01*
X129524211Y-112650476D01*
X129464631Y-112820745D01*
X129464630Y-112820750D01*
X129444435Y-112999996D01*
X129444435Y-113000003D01*
X129464630Y-113179249D01*
X129464631Y-113179254D01*
X129524211Y-113349523D01*
X129620185Y-113502263D01*
X129622445Y-113505097D01*
X129623334Y-113507275D01*
X129623889Y-113508158D01*
X129623734Y-113508255D01*
X129648855Y-113569783D01*
X129649500Y-113582412D01*
X129649500Y-122116936D01*
X129629815Y-122183975D01*
X129577011Y-122229730D01*
X129507853Y-122239674D01*
X129484547Y-122233978D01*
X129429260Y-122214633D01*
X129429249Y-122214630D01*
X129250004Y-122194435D01*
X129249996Y-122194435D01*
X129070750Y-122214630D01*
X129070745Y-122214631D01*
X128900476Y-122274211D01*
X128747737Y-122370184D01*
X128620184Y-122497737D01*
X128524210Y-122650478D01*
X128464630Y-122820750D01*
X128454837Y-122907668D01*
X128427770Y-122972082D01*
X128419298Y-122981465D01*
X128181286Y-123219478D01*
X128069481Y-123331282D01*
X128069479Y-123331284D01*
X128054289Y-123357594D01*
X128047869Y-123368716D01*
X127990423Y-123468215D01*
X127949499Y-123620943D01*
X127949499Y-123620945D01*
X127949499Y-123789046D01*
X127949500Y-123789059D01*
X127949500Y-130713330D01*
X127949499Y-130713348D01*
X127949499Y-130879054D01*
X127949498Y-130879054D01*
X124450500Y-130879054D01*
X124450500Y-129647648D01*
X124418477Y-129445466D01*
X124355220Y-129250781D01*
X124355218Y-129250778D01*
X124355218Y-129250776D01*
X124299768Y-129141951D01*
X124262287Y-129068390D01*
X124254556Y-129057749D01*
X124141971Y-128902786D01*
X123997213Y-128758028D01*
X123831613Y-128637715D01*
X123831612Y-128637714D01*
X123831610Y-128637713D01*
X123743868Y-128593006D01*
X123649223Y-128544781D01*
X123454534Y-128481522D01*
X123279995Y-128453878D01*
X123252352Y-128449500D01*
X123047648Y-128449500D01*
X123023329Y-128453351D01*
X122845465Y-128481522D01*
X122650776Y-128544781D01*
X122468386Y-128637715D01*
X122302786Y-128758028D01*
X122158028Y-128902786D01*
X122037715Y-129068386D01*
X121944781Y-129250776D01*
X121881522Y-129445465D01*
X121849500Y-129647648D01*
X120850593Y-129647648D01*
X120865500Y-129553532D01*
X120865500Y-129346468D01*
X120833108Y-129141953D01*
X120769122Y-128945023D01*
X120769122Y-128945022D01*
X120675116Y-128760527D01*
X120673305Y-128758034D01*
X120553407Y-128593009D01*
X120406991Y-128446593D01*
X120239472Y-128324883D01*
X120054977Y-128230877D01*
X120054974Y-128230876D01*
X119858048Y-128166892D01*
X119755789Y-128150696D01*
X119653532Y-128134500D01*
X119446468Y-128134500D01*
X119378296Y-128145297D01*
X119241951Y-128166892D01*
X119045025Y-128230876D01*
X119045022Y-128230877D01*
X118860527Y-128324883D01*
X118782526Y-128381555D01*
X118693009Y-128446593D01*
X118693007Y-128446595D01*
X118693006Y-128446595D01*
X118546595Y-128593006D01*
X118546595Y-128593007D01*
X118546593Y-128593009D01*
X118514114Y-128637713D01*
X118424883Y-128760527D01*
X118330877Y-128945022D01*
X118330876Y-128945025D01*
X118266892Y-129141951D01*
X118234500Y-129346468D01*
X114586311Y-129346468D01*
X114555220Y-129250781D01*
X114555218Y-129250778D01*
X114555218Y-129250776D01*
X114499768Y-129141951D01*
X114462287Y-129068390D01*
X114454556Y-129057749D01*
X114341971Y-128902786D01*
X114197213Y-128758028D01*
X114031613Y-128637715D01*
X114031612Y-128637714D01*
X114031610Y-128637713D01*
X113943868Y-128593006D01*
X113849223Y-128544781D01*
X113654534Y-128481522D01*
X113479995Y-128453878D01*
X113452352Y-128449500D01*
X113247648Y-128449500D01*
X113223329Y-128453351D01*
X113045465Y-128481522D01*
X112850776Y-128544781D01*
X112668386Y-128637715D01*
X112502786Y-128758028D01*
X112358028Y-128902786D01*
X112237715Y-129068386D01*
X112144781Y-129250776D01*
X112081522Y-129445465D01*
X112049500Y-129647648D01*
X103223883Y-129647648D01*
X103252262Y-129629816D01*
X103379816Y-129502262D01*
X103475789Y-129349522D01*
X103535368Y-129179255D01*
X103539571Y-129141951D01*
X103555565Y-129000003D01*
X103555565Y-128999996D01*
X103535369Y-128820750D01*
X103535368Y-128820745D01*
X103475788Y-128650476D01*
X103379813Y-128497734D01*
X103377550Y-128494896D01*
X103376659Y-128492715D01*
X103376111Y-128491842D01*
X103376264Y-128491745D01*
X103351144Y-128430209D01*
X103350500Y-128417587D01*
X103350500Y-122439818D01*
X112850000Y-122439818D01*
X112850000Y-122900000D01*
X113850000Y-122900000D01*
X113850000Y-123400000D01*
X112850000Y-123400000D01*
X112850000Y-123860181D01*
X112884473Y-124077835D01*
X112952567Y-124287410D01*
X113052613Y-124483760D01*
X113182142Y-124662041D01*
X113337958Y-124817857D01*
X113516239Y-124947386D01*
X113712589Y-125047432D01*
X113922163Y-125115526D01*
X113999999Y-125127854D01*
X114000000Y-125127854D01*
X114000000Y-124065686D01*
X114004394Y-124070080D01*
X114095606Y-124122741D01*
X114197339Y-124150000D01*
X114302661Y-124150000D01*
X114404394Y-124122741D01*
X114495606Y-124070080D01*
X114500000Y-124065686D01*
X114500000Y-125127854D01*
X114577834Y-125115526D01*
X114577837Y-125115526D01*
X114787410Y-125047432D01*
X114983760Y-124947386D01*
X115162041Y-124817857D01*
X115317857Y-124662041D01*
X115447386Y-124483760D01*
X115547432Y-124287410D01*
X115615526Y-124077835D01*
X115650000Y-123860181D01*
X115650000Y-123400000D01*
X114650000Y-123400000D01*
X114650000Y-122900000D01*
X115650000Y-122900000D01*
X115650000Y-122439818D01*
X118150000Y-122439818D01*
X118150000Y-122900000D01*
X119150000Y-122900000D01*
X119150000Y-123400000D01*
X118150000Y-123400000D01*
X118150000Y-123860181D01*
X118184473Y-124077835D01*
X118252567Y-124287410D01*
X118352613Y-124483760D01*
X118482142Y-124662041D01*
X118637958Y-124817857D01*
X118816239Y-124947386D01*
X119012589Y-125047432D01*
X119222163Y-125115526D01*
X119299999Y-125127854D01*
X119300000Y-125127854D01*
X119300000Y-124065686D01*
X119304394Y-124070080D01*
X119395606Y-124122741D01*
X119497339Y-124150000D01*
X119602661Y-124150000D01*
X119704394Y-124122741D01*
X119795606Y-124070080D01*
X119800000Y-124065686D01*
X119800000Y-125127854D01*
X119877834Y-125115526D01*
X119877837Y-125115526D01*
X120087410Y-125047432D01*
X120283760Y-124947386D01*
X120462041Y-124817857D01*
X120617857Y-124662041D01*
X120747386Y-124483760D01*
X120847432Y-124287410D01*
X120915526Y-124077835D01*
X120950000Y-123860181D01*
X120950000Y-123400000D01*
X119950000Y-123400000D01*
X119950000Y-122900000D01*
X120950000Y-122900000D01*
X120950000Y-122439818D01*
X120915526Y-122222164D01*
X120847432Y-122012589D01*
X120747386Y-121816239D01*
X120617857Y-121637958D01*
X120582034Y-121602135D01*
X121349500Y-121602135D01*
X121349500Y-124697870D01*
X121349501Y-124697876D01*
X121355908Y-124757483D01*
X121406202Y-124892328D01*
X121406206Y-124892335D01*
X121492452Y-125007544D01*
X121492455Y-125007547D01*
X121607664Y-125093793D01*
X121607671Y-125093797D01*
X121742517Y-125144091D01*
X121742516Y-125144091D01*
X121749444Y-125144835D01*
X121802127Y-125150500D01*
X123697872Y-125150499D01*
X123757483Y-125144091D01*
X123892331Y-125093796D01*
X124007546Y-125007546D01*
X124093796Y-124892331D01*
X124144091Y-124757483D01*
X124150500Y-124697873D01*
X124150499Y-121602128D01*
X124144091Y-121542517D01*
X124093796Y-121407669D01*
X124093795Y-121407668D01*
X124093793Y-121407664D01*
X124007547Y-121292455D01*
X124007544Y-121292452D01*
X123892335Y-121206206D01*
X123892328Y-121206202D01*
X123757482Y-121155908D01*
X123757483Y-121155908D01*
X123697883Y-121149501D01*
X123697881Y-121149500D01*
X123697873Y-121149500D01*
X123697864Y-121149500D01*
X121802129Y-121149500D01*
X121802123Y-121149501D01*
X121742516Y-121155908D01*
X121607671Y-121206202D01*
X121607664Y-121206206D01*
X121492455Y-121292452D01*
X121492452Y-121292455D01*
X121406206Y-121407664D01*
X121406202Y-121407671D01*
X121355908Y-121542517D01*
X121349501Y-121602116D01*
X121349501Y-121602123D01*
X121349500Y-121602135D01*
X120582034Y-121602135D01*
X120462041Y-121482142D01*
X120283760Y-121352613D01*
X120087410Y-121252567D01*
X119877836Y-121184473D01*
X119800000Y-121172144D01*
X119800000Y-122234314D01*
X119795606Y-122229920D01*
X119704394Y-122177259D01*
X119602661Y-122150000D01*
X119497339Y-122150000D01*
X119395606Y-122177259D01*
X119304394Y-122229920D01*
X119300000Y-122234314D01*
X119300000Y-121172144D01*
X119222164Y-121184473D01*
X119222161Y-121184473D01*
X119012589Y-121252567D01*
X118816239Y-121352613D01*
X118637958Y-121482142D01*
X118482142Y-121637958D01*
X118352613Y-121816239D01*
X118252567Y-122012589D01*
X118184473Y-122222164D01*
X118150000Y-122439818D01*
X115650000Y-122439818D01*
X115615526Y-122222164D01*
X115547432Y-122012589D01*
X115447386Y-121816239D01*
X115317857Y-121637958D01*
X115162041Y-121482142D01*
X114983760Y-121352613D01*
X114787410Y-121252567D01*
X114577836Y-121184473D01*
X114500000Y-121172144D01*
X114500000Y-122234314D01*
X114495606Y-122229920D01*
X114404394Y-122177259D01*
X114302661Y-122150000D01*
X114197339Y-122150000D01*
X114095606Y-122177259D01*
X114004394Y-122229920D01*
X114000000Y-122234314D01*
X114000000Y-121172144D01*
X113922164Y-121184473D01*
X113922161Y-121184473D01*
X113712589Y-121252567D01*
X113516239Y-121352613D01*
X113337958Y-121482142D01*
X113182142Y-121637958D01*
X113052613Y-121816239D01*
X112952567Y-122012589D01*
X112884473Y-122222164D01*
X112850000Y-122439818D01*
X103350500Y-122439818D01*
X103350500Y-115882412D01*
X103370185Y-115815373D01*
X103377555Y-115805097D01*
X103379810Y-115802267D01*
X103379816Y-115802262D01*
X103475789Y-115649522D01*
X103535368Y-115479255D01*
X103555565Y-115300000D01*
X103535368Y-115120745D01*
X103475789Y-114950478D01*
X103379816Y-114797738D01*
X103252262Y-114670184D01*
X103099523Y-114574211D01*
X102929254Y-114514631D01*
X102929249Y-114514630D01*
X102750004Y-114494435D01*
X102749996Y-114494435D01*
X102570750Y-114514630D01*
X102570745Y-114514631D01*
X102400476Y-114574211D01*
X102247737Y-114670184D01*
X102120184Y-114797737D01*
X102024211Y-114950476D01*
X101964631Y-115120745D01*
X101964630Y-115120750D01*
X101944435Y-115299996D01*
X84750500Y-115299996D01*
X84750500Y-112102135D01*
X113489500Y-112102135D01*
X113489500Y-114397870D01*
X113489501Y-114397876D01*
X113495908Y-114457483D01*
X113546202Y-114592328D01*
X113546206Y-114592335D01*
X113632452Y-114707544D01*
X113632455Y-114707547D01*
X113747664Y-114793793D01*
X113747671Y-114793797D01*
X113882517Y-114844091D01*
X113882516Y-114844091D01*
X113889444Y-114844835D01*
X113942127Y-114850500D01*
X116237872Y-114850499D01*
X116297483Y-114844091D01*
X116432331Y-114793796D01*
X116547546Y-114707546D01*
X116633796Y-114592331D01*
X116684091Y-114457483D01*
X116690500Y-114397873D01*
X116690499Y-113250000D01*
X123644551Y-113250000D01*
X123664317Y-113501151D01*
X123723126Y-113746110D01*
X123819533Y-113978859D01*
X123951160Y-114193653D01*
X123951161Y-114193656D01*
X123951164Y-114193659D01*
X124114776Y-114385224D01*
X124242646Y-114494435D01*
X124306343Y-114548838D01*
X124306346Y-114548839D01*
X124521140Y-114680466D01*
X124753889Y-114776873D01*
X124998852Y-114835683D01*
X125250000Y-114855449D01*
X125501148Y-114835683D01*
X125746111Y-114776873D01*
X125978859Y-114680466D01*
X126193659Y-114548836D01*
X126385224Y-114385224D01*
X126548836Y-114193659D01*
X126680466Y-113978859D01*
X126776873Y-113746111D01*
X126835683Y-113501148D01*
X126855449Y-113250000D01*
X126835683Y-112998852D01*
X126776873Y-112753889D01*
X126680466Y-112521141D01*
X126680466Y-112521140D01*
X126548839Y-112306346D01*
X126548838Y-112306343D01*
X126453259Y-112194435D01*
X126385224Y-112114776D01*
X126258571Y-112006604D01*
X126193656Y-111951161D01*
X126193653Y-111951160D01*
X125978859Y-111819533D01*
X125746110Y-111723126D01*
X125501151Y-111664317D01*
X125250000Y-111644551D01*
X124998848Y-111664317D01*
X124753889Y-111723126D01*
X124521140Y-111819533D01*
X124306346Y-111951160D01*
X124306343Y-111951161D01*
X124114776Y-112114776D01*
X123951161Y-112306343D01*
X123951160Y-112306346D01*
X123819533Y-112521140D01*
X123723126Y-112753889D01*
X123664317Y-112998848D01*
X123644551Y-113250000D01*
X116690499Y-113250000D01*
X116690499Y-112102128D01*
X116684091Y-112042517D01*
X116650017Y-111951161D01*
X116633797Y-111907671D01*
X116633793Y-111907664D01*
X116547547Y-111792455D01*
X116547544Y-111792452D01*
X116432335Y-111706206D01*
X116432328Y-111706202D01*
X116297482Y-111655908D01*
X116297483Y-111655908D01*
X116237883Y-111649501D01*
X116237881Y-111649500D01*
X116237873Y-111649500D01*
X116237864Y-111649500D01*
X113942129Y-111649500D01*
X113942123Y-111649501D01*
X113882516Y-111655908D01*
X113747671Y-111706202D01*
X113747664Y-111706206D01*
X113632455Y-111792452D01*
X113632452Y-111792455D01*
X113546206Y-111907664D01*
X113546202Y-111907671D01*
X113495908Y-112042517D01*
X113489501Y-112102116D01*
X113489501Y-112102123D01*
X113489500Y-112102135D01*
X84750500Y-112102135D01*
X84750500Y-94039999D01*
X90104341Y-94039999D01*
X90104341Y-94040000D01*
X90124936Y-94275403D01*
X90124938Y-94275413D01*
X90186094Y-94503655D01*
X90186096Y-94503659D01*
X90186097Y-94503663D01*
X90190000Y-94512032D01*
X90285965Y-94717830D01*
X90285967Y-94717834D01*
X90394281Y-94872521D01*
X90421501Y-94911396D01*
X90421506Y-94911402D01*
X90588597Y-95078493D01*
X90588603Y-95078498D01*
X90774158Y-95208425D01*
X90817783Y-95263002D01*
X90824977Y-95332500D01*
X90793454Y-95394855D01*
X90774158Y-95411575D01*
X90588597Y-95541505D01*
X90421505Y-95708597D01*
X90285965Y-95902169D01*
X90285964Y-95902171D01*
X90186098Y-96116335D01*
X90186094Y-96116344D01*
X90124938Y-96344586D01*
X90124936Y-96344596D01*
X90104341Y-96579999D01*
X90104341Y-96580000D01*
X90124936Y-96815403D01*
X90124938Y-96815413D01*
X90186094Y-97043655D01*
X90186096Y-97043659D01*
X90186097Y-97043663D01*
X90285965Y-97257830D01*
X90285967Y-97257834D01*
X90353060Y-97353652D01*
X90421505Y-97451401D01*
X90588599Y-97618495D01*
X90631675Y-97648657D01*
X90782165Y-97754032D01*
X90782167Y-97754033D01*
X90782170Y-97754035D01*
X90996337Y-97853903D01*
X91224592Y-97915063D01*
X91401034Y-97930500D01*
X91459999Y-97935659D01*
X91460000Y-97935659D01*
X91460001Y-97935659D01*
X91518966Y-97930500D01*
X91695408Y-97915063D01*
X91923663Y-97853903D01*
X92137830Y-97754035D01*
X92331401Y-97618495D01*
X92498495Y-97451401D01*
X92498504Y-97451388D01*
X92499636Y-97450040D01*
X92500293Y-97449602D01*
X92502323Y-97447573D01*
X92502730Y-97447980D01*
X92557805Y-97411334D01*
X92627666Y-97410220D01*
X92687038Y-97447053D01*
X92712335Y-97490733D01*
X92715186Y-97499334D01*
X92807288Y-97648656D01*
X92931344Y-97772712D01*
X93080666Y-97864814D01*
X93247203Y-97919999D01*
X93349991Y-97930500D01*
X94650008Y-97930499D01*
X94752797Y-97919999D01*
X94919334Y-97864814D01*
X95068656Y-97772712D01*
X95192712Y-97648656D01*
X95284814Y-97499334D01*
X95339999Y-97332797D01*
X95350500Y-97230009D01*
X95350499Y-95929992D01*
X95339999Y-95827203D01*
X95284814Y-95660666D01*
X95284813Y-95660664D01*
X95282542Y-95653811D01*
X95285572Y-95652806D01*
X95277238Y-95597776D01*
X95305784Y-95534004D01*
X95364277Y-95495789D01*
X95400105Y-95490500D01*
X112323331Y-95490500D01*
X112323347Y-95490501D01*
X112330943Y-95490501D01*
X112489054Y-95490501D01*
X112489057Y-95490501D01*
X112641785Y-95449577D01*
X112691904Y-95420639D01*
X112778716Y-95370520D01*
X112890520Y-95258716D01*
X112890520Y-95258714D01*
X112900728Y-95248507D01*
X112900730Y-95248504D01*
X113857294Y-94291939D01*
X113918615Y-94258456D01*
X113977066Y-94259847D01*
X113996604Y-94265082D01*
X114073308Y-94285635D01*
X114235230Y-94299801D01*
X114299998Y-94305468D01*
X114300000Y-94305468D01*
X114300002Y-94305468D01*
X114356673Y-94300509D01*
X114526692Y-94285635D01*
X114746496Y-94226739D01*
X114952734Y-94130568D01*
X115139139Y-94000047D01*
X115300047Y-93839139D01*
X115430568Y-93652734D01*
X115457618Y-93594724D01*
X115503790Y-93542285D01*
X115570983Y-93523133D01*
X115637865Y-93543348D01*
X115682382Y-93594725D01*
X115709429Y-93652728D01*
X115709432Y-93652734D01*
X115839954Y-93839141D01*
X116000858Y-94000045D01*
X116000861Y-94000047D01*
X116186624Y-94130118D01*
X116230248Y-94184693D01*
X116239500Y-94231692D01*
X116239500Y-108327060D01*
X116219815Y-108394099D01*
X116203181Y-108414741D01*
X116120184Y-108497737D01*
X116024211Y-108650476D01*
X115964631Y-108820745D01*
X115964630Y-108820750D01*
X115944435Y-108999996D01*
X115944435Y-109000003D01*
X115964630Y-109179249D01*
X115964631Y-109179254D01*
X116024211Y-109349523D01*
X116120184Y-109502262D01*
X116247738Y-109629816D01*
X116400478Y-109725789D01*
X116570745Y-109785368D01*
X116570750Y-109785369D01*
X116749996Y-109805565D01*
X116750000Y-109805565D01*
X116750004Y-109805565D01*
X116929249Y-109785369D01*
X116929252Y-109785368D01*
X116929255Y-109785368D01*
X117099522Y-109725789D01*
X117252262Y-109629816D01*
X117379816Y-109502262D01*
X117475789Y-109349522D01*
X117535368Y-109179255D01*
X117555565Y-109000000D01*
X117535368Y-108820745D01*
X117535367Y-108820743D01*
X117535366Y-108820737D01*
X117475790Y-108650481D01*
X117475789Y-108650478D01*
X117459505Y-108624562D01*
X117440500Y-108558592D01*
X117440500Y-94231692D01*
X117460185Y-94164653D01*
X117493374Y-94130119D01*
X117679139Y-94000047D01*
X117840047Y-93839139D01*
X117970568Y-93652734D01*
X117997618Y-93594724D01*
X118043790Y-93542285D01*
X118110983Y-93523133D01*
X118177865Y-93543348D01*
X118222382Y-93594725D01*
X118249429Y-93652728D01*
X118249432Y-93652734D01*
X118379954Y-93839141D01*
X118540858Y-94000045D01*
X118540861Y-94000047D01*
X118727266Y-94130568D01*
X118933504Y-94226739D01*
X119153308Y-94285635D01*
X119315230Y-94299801D01*
X119379998Y-94305468D01*
X119380000Y-94305468D01*
X119380002Y-94305468D01*
X119436673Y-94300509D01*
X119606692Y-94285635D01*
X119826496Y-94226739D01*
X120032734Y-94130568D01*
X120219139Y-94000047D01*
X120380047Y-93839139D01*
X120510568Y-93652734D01*
X120537895Y-93594129D01*
X120584064Y-93541695D01*
X120651257Y-93522542D01*
X120718139Y-93542757D01*
X120762657Y-93594133D01*
X120789865Y-93652482D01*
X120920342Y-93838820D01*
X121081179Y-93999657D01*
X121267517Y-94130134D01*
X121473673Y-94226265D01*
X121473682Y-94226269D01*
X121669999Y-94278872D01*
X121670000Y-94278871D01*
X121670000Y-93315686D01*
X121674394Y-93320080D01*
X121765606Y-93372741D01*
X121867339Y-93400000D01*
X121972661Y-93400000D01*
X122074394Y-93372741D01*
X122165606Y-93320080D01*
X122170000Y-93315686D01*
X122170000Y-94278872D01*
X122366317Y-94226269D01*
X122366326Y-94226265D01*
X122572482Y-94130134D01*
X122758820Y-93999657D01*
X122919657Y-93838820D01*
X123050132Y-93652484D01*
X123077341Y-93594134D01*
X123123513Y-93541695D01*
X123190707Y-93522542D01*
X123257588Y-93542757D01*
X123302106Y-93594133D01*
X123329431Y-93652732D01*
X123329432Y-93652734D01*
X123459954Y-93839141D01*
X123620858Y-94000045D01*
X123620861Y-94000047D01*
X123807266Y-94130568D01*
X124013504Y-94226739D01*
X124233308Y-94285635D01*
X124395230Y-94299801D01*
X124459998Y-94305468D01*
X124460000Y-94305468D01*
X124460002Y-94305468D01*
X124516673Y-94300509D01*
X124686692Y-94285635D01*
X124906496Y-94226739D01*
X125112734Y-94130568D01*
X125299139Y-94000047D01*
X125460047Y-93839139D01*
X125590568Y-93652734D01*
X125617618Y-93594724D01*
X125663790Y-93542285D01*
X125730983Y-93523133D01*
X125797865Y-93543348D01*
X125842382Y-93594725D01*
X125869429Y-93652728D01*
X125869432Y-93652734D01*
X125999954Y-93839141D01*
X126160858Y-94000045D01*
X126160861Y-94000047D01*
X126347266Y-94130568D01*
X126553504Y-94226739D01*
X126773308Y-94285635D01*
X126935230Y-94299801D01*
X126999998Y-94305468D01*
X127000000Y-94305468D01*
X127000002Y-94305468D01*
X127056673Y-94300509D01*
X127226692Y-94285635D01*
X127446496Y-94226739D01*
X127652734Y-94130568D01*
X127839139Y-94000047D01*
X128000047Y-93839139D01*
X128130568Y-93652734D01*
X128157618Y-93594724D01*
X128203790Y-93542285D01*
X128270983Y-93523133D01*
X128337865Y-93543348D01*
X128382382Y-93594725D01*
X128409429Y-93652728D01*
X128409432Y-93652734D01*
X128539954Y-93839141D01*
X128700858Y-94000045D01*
X128700861Y-94000047D01*
X128887266Y-94130568D01*
X129093504Y-94226739D01*
X129313308Y-94285635D01*
X129475230Y-94299801D01*
X129539998Y-94305468D01*
X129540000Y-94305468D01*
X129540002Y-94305468D01*
X129596673Y-94300509D01*
X129766692Y-94285635D01*
X129986496Y-94226739D01*
X130192734Y-94130568D01*
X130379139Y-94000047D01*
X130540047Y-93839139D01*
X130670568Y-93652734D01*
X130697618Y-93594724D01*
X130743790Y-93542285D01*
X130810983Y-93523133D01*
X130877865Y-93543348D01*
X130922382Y-93594725D01*
X130949429Y-93652728D01*
X130949432Y-93652734D01*
X131079954Y-93839141D01*
X131240858Y-94000045D01*
X131240861Y-94000047D01*
X131427266Y-94130568D01*
X131633504Y-94226739D01*
X131853308Y-94285635D01*
X132015230Y-94299801D01*
X132079998Y-94305468D01*
X132080000Y-94305468D01*
X132080002Y-94305468D01*
X132136673Y-94300509D01*
X132306692Y-94285635D01*
X132526496Y-94226739D01*
X132732734Y-94130568D01*
X132919139Y-94000047D01*
X133080047Y-93839139D01*
X133210568Y-93652734D01*
X133237618Y-93594724D01*
X133283790Y-93542285D01*
X133350983Y-93523133D01*
X133417865Y-93543348D01*
X133462382Y-93594725D01*
X133489429Y-93652728D01*
X133489432Y-93652734D01*
X133619954Y-93839141D01*
X133780858Y-94000045D01*
X133780861Y-94000047D01*
X133967266Y-94130568D01*
X134173504Y-94226739D01*
X134393308Y-94285635D01*
X134555230Y-94299801D01*
X134619998Y-94305468D01*
X134620000Y-94305468D01*
X134620002Y-94305468D01*
X134676673Y-94300509D01*
X134846692Y-94285635D01*
X135066496Y-94226739D01*
X135272734Y-94130568D01*
X135459139Y-94000047D01*
X135620047Y-93839139D01*
X135750568Y-93652734D01*
X135777618Y-93594724D01*
X135823790Y-93542285D01*
X135890983Y-93523133D01*
X135957865Y-93543348D01*
X136002382Y-93594725D01*
X136029429Y-93652728D01*
X136029432Y-93652734D01*
X136159954Y-93839141D01*
X136320858Y-94000045D01*
X136320861Y-94000047D01*
X136507266Y-94130568D01*
X136713504Y-94226739D01*
X136933308Y-94285635D01*
X137095230Y-94299801D01*
X137159998Y-94305468D01*
X137160000Y-94305468D01*
X137160002Y-94305468D01*
X137216673Y-94300509D01*
X137386692Y-94285635D01*
X137606496Y-94226739D01*
X137812734Y-94130568D01*
X137999139Y-94000047D01*
X138160047Y-93839139D01*
X138290568Y-93652734D01*
X138386739Y-93446496D01*
X138445635Y-93226692D01*
X138465468Y-93000000D01*
X138445635Y-92773308D01*
X138386739Y-92553504D01*
X138290568Y-92347266D01*
X138160047Y-92160861D01*
X138160045Y-92160858D01*
X137999140Y-91999953D01*
X137948460Y-91964467D01*
X137904835Y-91909890D01*
X137897641Y-91840392D01*
X137914590Y-91796919D01*
X137929456Y-91773261D01*
X137969585Y-91709396D01*
X137975788Y-91699524D01*
X137977535Y-91694532D01*
X138035368Y-91529255D01*
X138035369Y-91529249D01*
X138055565Y-91350003D01*
X138055565Y-91349996D01*
X138035369Y-91170750D01*
X138035368Y-91170745D01*
X138026866Y-91146447D01*
X137975789Y-91000478D01*
X137879816Y-90847738D01*
X137796819Y-90764741D01*
X137763334Y-90703418D01*
X137760500Y-90677060D01*
X137760500Y-86804499D01*
X137780185Y-86737460D01*
X137832989Y-86691705D01*
X137884500Y-86680499D01*
X138007871Y-86680499D01*
X138007872Y-86680499D01*
X138067483Y-86674091D01*
X138202331Y-86623796D01*
X138317546Y-86537546D01*
X138403796Y-86422331D01*
X138454091Y-86287483D01*
X138460500Y-86227873D01*
X138460499Y-84532128D01*
X138454091Y-84472517D01*
X138440586Y-84436309D01*
X138403797Y-84337671D01*
X138403793Y-84337664D01*
X138317547Y-84222455D01*
X138317544Y-84222452D01*
X138202335Y-84136206D01*
X138202328Y-84136202D01*
X138067482Y-84085908D01*
X138067483Y-84085908D01*
X138007883Y-84079501D01*
X138007881Y-84079500D01*
X138007873Y-84079500D01*
X138007864Y-84079500D01*
X136312129Y-84079500D01*
X136312123Y-84079501D01*
X136252516Y-84085908D01*
X136117671Y-84136202D01*
X136117664Y-84136206D01*
X136002455Y-84222452D01*
X136002452Y-84222455D01*
X135916206Y-84337664D01*
X135916202Y-84337671D01*
X135865908Y-84472516D01*
X135862137Y-84507596D01*
X135835398Y-84572146D01*
X135778006Y-84611994D01*
X135708180Y-84614487D01*
X135648092Y-84578834D01*
X135637273Y-84565462D01*
X135620045Y-84540858D01*
X135459141Y-84379954D01*
X135272734Y-84249432D01*
X135272732Y-84249431D01*
X135066497Y-84153261D01*
X135066488Y-84153258D01*
X134846697Y-84094366D01*
X134846693Y-84094365D01*
X134846692Y-84094365D01*
X134846691Y-84094364D01*
X134846686Y-84094364D01*
X134620002Y-84074532D01*
X134619998Y-84074532D01*
X134393313Y-84094364D01*
X134393302Y-84094366D01*
X134173511Y-84153258D01*
X134173502Y-84153261D01*
X133967267Y-84249431D01*
X133967265Y-84249432D01*
X133780858Y-84379954D01*
X133619954Y-84540858D01*
X133489432Y-84727265D01*
X133489431Y-84727267D01*
X133462382Y-84785275D01*
X133416209Y-84837714D01*
X133349016Y-84856866D01*
X133282135Y-84836650D01*
X133237618Y-84785275D01*
X133210686Y-84727520D01*
X133210568Y-84727266D01*
X133080047Y-84540861D01*
X133080045Y-84540858D01*
X132919140Y-84379953D01*
X132733377Y-84249881D01*
X132689752Y-84195304D01*
X132680500Y-84148306D01*
X132680500Y-77372915D01*
X132700185Y-77305876D01*
X132752989Y-77260121D01*
X132763546Y-77255873D01*
X132849522Y-77225789D01*
X133002262Y-77129816D01*
X133129816Y-77002262D01*
X133225789Y-76849522D01*
X133285368Y-76679255D01*
X133285369Y-76679249D01*
X133305565Y-76500003D01*
X133305565Y-76499996D01*
X133285369Y-76320750D01*
X133285368Y-76320745D01*
X133225788Y-76150476D01*
X133129815Y-75997737D01*
X133002262Y-75870184D01*
X132849523Y-75774211D01*
X132679254Y-75714631D01*
X132679249Y-75714630D01*
X132500004Y-75694435D01*
X132499996Y-75694435D01*
X132320750Y-75714630D01*
X132320745Y-75714631D01*
X132150476Y-75774211D01*
X131997737Y-75870184D01*
X131870184Y-75997737D01*
X131774210Y-76150478D01*
X131714630Y-76320750D01*
X131704837Y-76407666D01*
X131677770Y-76472080D01*
X131669299Y-76481462D01*
X131599481Y-76551281D01*
X131549361Y-76638094D01*
X131549359Y-76638096D01*
X131520425Y-76688209D01*
X131520424Y-76688210D01*
X131520423Y-76688215D01*
X131479499Y-76840943D01*
X131479499Y-76840945D01*
X131479499Y-77009046D01*
X131479500Y-77009059D01*
X131479500Y-84148306D01*
X131459815Y-84215345D01*
X131426623Y-84249881D01*
X131240859Y-84379953D01*
X131079954Y-84540858D01*
X130949432Y-84727265D01*
X130949431Y-84727267D01*
X130922382Y-84785275D01*
X130876209Y-84837714D01*
X130809016Y-84856866D01*
X130742135Y-84836650D01*
X130697618Y-84785275D01*
X130670686Y-84727520D01*
X130670568Y-84727266D01*
X130540047Y-84540861D01*
X130540045Y-84540858D01*
X130379140Y-84379953D01*
X130193377Y-84249881D01*
X130149752Y-84195304D01*
X130140500Y-84148306D01*
X130140500Y-81018572D01*
X130160185Y-80951533D01*
X130198525Y-80913580D01*
X130252262Y-80879816D01*
X130379816Y-80752262D01*
X130475789Y-80599522D01*
X130535368Y-80429255D01*
X130535369Y-80429249D01*
X130555565Y-80250003D01*
X130555565Y-80249996D01*
X130535369Y-80070750D01*
X130535368Y-80070745D01*
X130475789Y-79900478D01*
X130379816Y-79747738D01*
X130252262Y-79620184D01*
X130218655Y-79599067D01*
X130099523Y-79524211D01*
X129929254Y-79464631D01*
X129929249Y-79464630D01*
X129750004Y-79444435D01*
X129749996Y-79444435D01*
X129570750Y-79464630D01*
X129570745Y-79464631D01*
X129400476Y-79524211D01*
X129247737Y-79620184D01*
X129120184Y-79747737D01*
X129024211Y-79900476D01*
X128964631Y-80070745D01*
X128964630Y-80070750D01*
X128944435Y-80249996D01*
X128944435Y-80250005D01*
X128950732Y-80305899D01*
X128947288Y-80351870D01*
X128939499Y-80380941D01*
X128939499Y-80549046D01*
X128939500Y-80549059D01*
X128939500Y-84148306D01*
X128919815Y-84215345D01*
X128886623Y-84249881D01*
X128700859Y-84379953D01*
X128539954Y-84540858D01*
X128409432Y-84727265D01*
X128409431Y-84727267D01*
X128382382Y-84785275D01*
X128336209Y-84837714D01*
X128269016Y-84856866D01*
X128202135Y-84836650D01*
X128157618Y-84785275D01*
X128130686Y-84727520D01*
X128130568Y-84727266D01*
X128000047Y-84540861D01*
X128000045Y-84540858D01*
X127839141Y-84379954D01*
X127652734Y-84249432D01*
X127652732Y-84249431D01*
X127446497Y-84153261D01*
X127446488Y-84153258D01*
X127226697Y-84094366D01*
X127226693Y-84094365D01*
X127226692Y-84094365D01*
X127226691Y-84094364D01*
X127226686Y-84094364D01*
X127000002Y-84074532D01*
X126999998Y-84074532D01*
X126773313Y-84094364D01*
X126773302Y-84094366D01*
X126553511Y-84153258D01*
X126553502Y-84153261D01*
X126347267Y-84249431D01*
X126347265Y-84249432D01*
X126160858Y-84379954D01*
X125999954Y-84540858D01*
X125869432Y-84727265D01*
X125869431Y-84727267D01*
X125842382Y-84785275D01*
X125796209Y-84837714D01*
X125729016Y-84856866D01*
X125662135Y-84836650D01*
X125617618Y-84785275D01*
X125590686Y-84727520D01*
X125590568Y-84727266D01*
X125460047Y-84540861D01*
X125460045Y-84540858D01*
X125299141Y-84379954D01*
X125112734Y-84249432D01*
X125112732Y-84249431D01*
X124906497Y-84153261D01*
X124906488Y-84153258D01*
X124686697Y-84094366D01*
X124686693Y-84094365D01*
X124686692Y-84094365D01*
X124686691Y-84094364D01*
X124686686Y-84094364D01*
X124460002Y-84074532D01*
X124459998Y-84074532D01*
X124233313Y-84094364D01*
X124233302Y-84094366D01*
X124013511Y-84153258D01*
X124013502Y-84153261D01*
X123807267Y-84249431D01*
X123807265Y-84249432D01*
X123620858Y-84379954D01*
X123459954Y-84540858D01*
X123329432Y-84727265D01*
X123329431Y-84727267D01*
X123302382Y-84785275D01*
X123256209Y-84837714D01*
X123189016Y-84856866D01*
X123122135Y-84836650D01*
X123077618Y-84785275D01*
X123050686Y-84727520D01*
X123050568Y-84727266D01*
X122920047Y-84540861D01*
X122920045Y-84540858D01*
X122759141Y-84379954D01*
X122572734Y-84249432D01*
X122572732Y-84249431D01*
X122366497Y-84153261D01*
X122366488Y-84153258D01*
X122146697Y-84094366D01*
X122146693Y-84094365D01*
X122146692Y-84094365D01*
X122146691Y-84094364D01*
X122146686Y-84094364D01*
X121920002Y-84074532D01*
X121919998Y-84074532D01*
X121693313Y-84094364D01*
X121693302Y-84094366D01*
X121473511Y-84153258D01*
X121473502Y-84153261D01*
X121267267Y-84249431D01*
X121267265Y-84249432D01*
X121080858Y-84379954D01*
X120919954Y-84540858D01*
X120789433Y-84727264D01*
X120789432Y-84727266D01*
X120789315Y-84727518D01*
X120762106Y-84785867D01*
X120715933Y-84838306D01*
X120648739Y-84857457D01*
X120581858Y-84837241D01*
X120537342Y-84785865D01*
X120510135Y-84727520D01*
X120510134Y-84727518D01*
X120379657Y-84541179D01*
X120218820Y-84380342D01*
X120032482Y-84249865D01*
X119826328Y-84153734D01*
X119630000Y-84101127D01*
X119630000Y-85064314D01*
X119625606Y-85059920D01*
X119534394Y-85007259D01*
X119432661Y-84980000D01*
X119327339Y-84980000D01*
X119225606Y-85007259D01*
X119134394Y-85059920D01*
X119130000Y-85064314D01*
X119130000Y-84101127D01*
X118933671Y-84153734D01*
X118727517Y-84249865D01*
X118541179Y-84380342D01*
X118380342Y-84541179D01*
X118249867Y-84727515D01*
X118222657Y-84785867D01*
X118176484Y-84838306D01*
X118109290Y-84857457D01*
X118042409Y-84837241D01*
X117997893Y-84785865D01*
X117970685Y-84727518D01*
X117970568Y-84727266D01*
X117840047Y-84540861D01*
X117840045Y-84540858D01*
X117679141Y-84379954D01*
X117492734Y-84249432D01*
X117492732Y-84249431D01*
X117286497Y-84153261D01*
X117286488Y-84153258D01*
X117066697Y-84094366D01*
X117066693Y-84094365D01*
X117066692Y-84094365D01*
X117066691Y-84094364D01*
X117066686Y-84094364D01*
X116840002Y-84074532D01*
X116839998Y-84074532D01*
X116613313Y-84094364D01*
X116613302Y-84094366D01*
X116393511Y-84153258D01*
X116393502Y-84153261D01*
X116187267Y-84249431D01*
X116187265Y-84249432D01*
X116000858Y-84379954D01*
X115839954Y-84540858D01*
X115709432Y-84727265D01*
X115709431Y-84727267D01*
X115682382Y-84785275D01*
X115636209Y-84837714D01*
X115569016Y-84856866D01*
X115502135Y-84836650D01*
X115457618Y-84785275D01*
X115430686Y-84727520D01*
X115430568Y-84727266D01*
X115300047Y-84540861D01*
X115300045Y-84540858D01*
X115188261Y-84429074D01*
X115154776Y-84367751D01*
X115159760Y-84298059D01*
X115201632Y-84242126D01*
X115239943Y-84222733D01*
X115384727Y-84178814D01*
X115558538Y-84085910D01*
X115710883Y-83960883D01*
X115835910Y-83808538D01*
X115928814Y-83634727D01*
X115986024Y-83446132D01*
X116005341Y-83250000D01*
X115986024Y-83053868D01*
X115928814Y-82865273D01*
X115928811Y-82865269D01*
X115928811Y-82865266D01*
X115835913Y-82691467D01*
X115835909Y-82691460D01*
X115710883Y-82539116D01*
X115558539Y-82414090D01*
X115558532Y-82414086D01*
X115384733Y-82321188D01*
X115384727Y-82321186D01*
X115196132Y-82263976D01*
X115196129Y-82263975D01*
X115000000Y-82244659D01*
X114803870Y-82263975D01*
X114615266Y-82321188D01*
X114441467Y-82414086D01*
X114441460Y-82414090D01*
X114289116Y-82539116D01*
X114164090Y-82691460D01*
X114164086Y-82691467D01*
X114071188Y-82865266D01*
X114013975Y-83053870D01*
X113994659Y-83250000D01*
X114013975Y-83446129D01*
X114071188Y-83634733D01*
X114164086Y-83808532D01*
X114164090Y-83808539D01*
X114227744Y-83886101D01*
X114255057Y-83950411D01*
X114243266Y-84019279D01*
X114196114Y-84070839D01*
X114142699Y-84088294D01*
X114073312Y-84094364D01*
X114073302Y-84094366D01*
X113853511Y-84153258D01*
X113853502Y-84153261D01*
X113647267Y-84249431D01*
X113647265Y-84249432D01*
X113460858Y-84379954D01*
X113299954Y-84540858D01*
X113169432Y-84727265D01*
X113169431Y-84727267D01*
X113142382Y-84785275D01*
X113096209Y-84837714D01*
X113029016Y-84856866D01*
X112962135Y-84836650D01*
X112917618Y-84785275D01*
X112890686Y-84727520D01*
X112890568Y-84727266D01*
X112760047Y-84540861D01*
X112760045Y-84540858D01*
X112648261Y-84429074D01*
X112614776Y-84367751D01*
X112619760Y-84298059D01*
X112661632Y-84242126D01*
X112699943Y-84222733D01*
X112844727Y-84178814D01*
X113018538Y-84085910D01*
X113170883Y-83960883D01*
X113295910Y-83808538D01*
X113388814Y-83634727D01*
X113446024Y-83446132D01*
X113465341Y-83250000D01*
X113446024Y-83053868D01*
X113388814Y-82865273D01*
X113388811Y-82865269D01*
X113388811Y-82865266D01*
X113295913Y-82691467D01*
X113295909Y-82691460D01*
X113170883Y-82539116D01*
X113018539Y-82414090D01*
X113018532Y-82414086D01*
X112844733Y-82321188D01*
X112844727Y-82321186D01*
X112656132Y-82263976D01*
X112656129Y-82263975D01*
X112460000Y-82244659D01*
X112263870Y-82263975D01*
X112075266Y-82321188D01*
X111901467Y-82414086D01*
X111901460Y-82414090D01*
X111749116Y-82539116D01*
X111624090Y-82691460D01*
X111624086Y-82691467D01*
X111531188Y-82865266D01*
X111473975Y-83053870D01*
X111454659Y-83250000D01*
X111473975Y-83446129D01*
X111531188Y-83634733D01*
X111624086Y-83808532D01*
X111624090Y-83808539D01*
X111687744Y-83886101D01*
X111715057Y-83950411D01*
X111703266Y-84019279D01*
X111656114Y-84070839D01*
X111602699Y-84088294D01*
X111533312Y-84094364D01*
X111533302Y-84094366D01*
X111313511Y-84153258D01*
X111313502Y-84153261D01*
X111107267Y-84249431D01*
X111107265Y-84249432D01*
X110920858Y-84379954D01*
X110759954Y-84540858D01*
X110629432Y-84727265D01*
X110629431Y-84727267D01*
X110602382Y-84785275D01*
X110556209Y-84837714D01*
X110489016Y-84856866D01*
X110422135Y-84836650D01*
X110377618Y-84785275D01*
X110350686Y-84727520D01*
X110350568Y-84727266D01*
X110220047Y-84540861D01*
X110220045Y-84540858D01*
X110059140Y-84379953D01*
X109873377Y-84249881D01*
X109829752Y-84195304D01*
X109820500Y-84148306D01*
X109820500Y-74062556D01*
X109840185Y-73995517D01*
X109878527Y-73957563D01*
X110002262Y-73879816D01*
X110129816Y-73752262D01*
X110225789Y-73599522D01*
X110285368Y-73429255D01*
X110303513Y-73268215D01*
X110305565Y-73250003D01*
X110305565Y-73249996D01*
X139444435Y-73249996D01*
X139444435Y-73250003D01*
X139464630Y-73429249D01*
X139464631Y-73429254D01*
X139524211Y-73599523D01*
X139583849Y-73694435D01*
X139596539Y-73714632D01*
X139620185Y-73752263D01*
X139622445Y-73755097D01*
X139623334Y-73757275D01*
X139623889Y-73758158D01*
X139623734Y-73758255D01*
X139648855Y-73819783D01*
X139649500Y-73832412D01*
X139649500Y-81167587D01*
X139629815Y-81234626D01*
X139622450Y-81244896D01*
X139620186Y-81247734D01*
X139524211Y-81400476D01*
X139464631Y-81570745D01*
X139464630Y-81570750D01*
X139444435Y-81749996D01*
X139444435Y-81750003D01*
X139464630Y-81929249D01*
X139464631Y-81929254D01*
X139524211Y-82099523D01*
X139615407Y-82244659D01*
X139620184Y-82252262D01*
X139747738Y-82379816D01*
X139900478Y-82475789D01*
X140070745Y-82535368D01*
X140070750Y-82535369D01*
X140249996Y-82555565D01*
X140250000Y-82555565D01*
X140250004Y-82555565D01*
X140429249Y-82535369D01*
X140429252Y-82535368D01*
X140429255Y-82535368D01*
X140599522Y-82475789D01*
X140752262Y-82379816D01*
X140879816Y-82252262D01*
X140975789Y-82099522D01*
X141035368Y-81929255D01*
X141035369Y-81929249D01*
X141055565Y-81750003D01*
X141055565Y-81749996D01*
X141035369Y-81570750D01*
X141035368Y-81570745D01*
X141024032Y-81538348D01*
X140975789Y-81400478D01*
X140950499Y-81360230D01*
X140928053Y-81324507D01*
X140879816Y-81247738D01*
X140879814Y-81247736D01*
X140879813Y-81247734D01*
X140877550Y-81244896D01*
X140876659Y-81242715D01*
X140876111Y-81241842D01*
X140876264Y-81241745D01*
X140851144Y-81180209D01*
X140850500Y-81167587D01*
X140850500Y-77927155D01*
X145425000Y-77927155D01*
X145425000Y-78400000D01*
X146284314Y-78400000D01*
X146279920Y-78404394D01*
X146227259Y-78495606D01*
X146200000Y-78597339D01*
X146200000Y-78702661D01*
X146227259Y-78804394D01*
X146279920Y-78895606D01*
X146284314Y-78900000D01*
X145425000Y-78900000D01*
X145425000Y-79372844D01*
X145431401Y-79432372D01*
X145431403Y-79432379D01*
X145481645Y-79567086D01*
X145481649Y-79567093D01*
X145567809Y-79682187D01*
X145567812Y-79682190D01*
X145682906Y-79768350D01*
X145682913Y-79768354D01*
X145817620Y-79818596D01*
X145817627Y-79818598D01*
X145877155Y-79824999D01*
X145877172Y-79825000D01*
X146350000Y-79825000D01*
X146350000Y-78965686D01*
X146354394Y-78970080D01*
X146445606Y-79022741D01*
X146547339Y-79050000D01*
X146652661Y-79050000D01*
X146754394Y-79022741D01*
X146845606Y-78970080D01*
X146850000Y-78965686D01*
X146850000Y-79825000D01*
X147322828Y-79825000D01*
X147322844Y-79824999D01*
X147382372Y-79818598D01*
X147382379Y-79818596D01*
X147517086Y-79768354D01*
X147517093Y-79768350D01*
X147632186Y-79682191D01*
X147694413Y-79599067D01*
X147750347Y-79557196D01*
X147820038Y-79552212D01*
X147877220Y-79581743D01*
X147888568Y-79592088D01*
X147940778Y-79624414D01*
X147987412Y-79676439D01*
X147999500Y-79729840D01*
X147999500Y-88567059D01*
X147979815Y-88634098D01*
X147963182Y-88654740D01*
X147870183Y-88747739D01*
X147774211Y-88900476D01*
X147714631Y-89070745D01*
X147714630Y-89070750D01*
X147694435Y-89249996D01*
X147694435Y-89250003D01*
X147714630Y-89429249D01*
X147714631Y-89429254D01*
X147774211Y-89599523D01*
X147870184Y-89752262D01*
X147997738Y-89879816D01*
X148150478Y-89975789D01*
X148320745Y-90035368D01*
X148320750Y-90035369D01*
X148499996Y-90055565D01*
X148500000Y-90055565D01*
X148500004Y-90055565D01*
X148679249Y-90035369D01*
X148679252Y-90035368D01*
X148679255Y-90035368D01*
X148849522Y-89975789D01*
X149002262Y-89879816D01*
X149129816Y-89752262D01*
X149225789Y-89599522D01*
X149285368Y-89429255D01*
X149305565Y-89250000D01*
X149285368Y-89070745D01*
X149285367Y-89070743D01*
X149285366Y-89070737D01*
X149225790Y-88900479D01*
X149219506Y-88890478D01*
X149200500Y-88824507D01*
X149200500Y-79729840D01*
X149220185Y-79662801D01*
X149259220Y-79624415D01*
X149311432Y-79592088D01*
X149472427Y-79445322D01*
X149501047Y-79407422D01*
X149557153Y-79365787D01*
X149626865Y-79361094D01*
X149688048Y-79394836D01*
X149698946Y-79407414D01*
X149727573Y-79445322D01*
X149888568Y-79592088D01*
X149888575Y-79592092D01*
X149888576Y-79592093D01*
X150073786Y-79706770D01*
X150073792Y-79706773D01*
X150096664Y-79715633D01*
X150276931Y-79785470D01*
X150491074Y-79825500D01*
X150491076Y-79825500D01*
X150708924Y-79825500D01*
X150708926Y-79825500D01*
X150923069Y-79785470D01*
X151126210Y-79706772D01*
X151311432Y-79592088D01*
X151472427Y-79445322D01*
X151501047Y-79407422D01*
X151557153Y-79365787D01*
X151626865Y-79361094D01*
X151688048Y-79394836D01*
X151698946Y-79407414D01*
X151727573Y-79445322D01*
X151888568Y-79592088D01*
X151888575Y-79592092D01*
X151888576Y-79592093D01*
X152073786Y-79706770D01*
X152073792Y-79706773D01*
X152096664Y-79715633D01*
X152276931Y-79785470D01*
X152491074Y-79825500D01*
X152491076Y-79825500D01*
X152708924Y-79825500D01*
X152708926Y-79825500D01*
X152923069Y-79785470D01*
X153126210Y-79706772D01*
X153311432Y-79592088D01*
X153472427Y-79445322D01*
X153501359Y-79407009D01*
X153557465Y-79365373D01*
X153627177Y-79360680D01*
X153688360Y-79394421D01*
X153699267Y-79407009D01*
X153727942Y-79444981D01*
X153727949Y-79444989D01*
X153888868Y-79591685D01*
X154074012Y-79706322D01*
X154074023Y-79706327D01*
X154277060Y-79784984D01*
X154350000Y-79798619D01*
X154350000Y-78965686D01*
X154354394Y-78970080D01*
X154445606Y-79022741D01*
X154547339Y-79050000D01*
X154652661Y-79050000D01*
X154754394Y-79022741D01*
X154845606Y-78970080D01*
X154850000Y-78965686D01*
X154850000Y-79798619D01*
X154922939Y-79784984D01*
X155125976Y-79706327D01*
X155125987Y-79706322D01*
X155311130Y-79591685D01*
X155311131Y-79591685D01*
X155472055Y-79444984D01*
X155500730Y-79407012D01*
X155556838Y-79365374D01*
X155626550Y-79360681D01*
X155687733Y-79394422D01*
X155698640Y-79407009D01*
X155717512Y-79432000D01*
X155727573Y-79445322D01*
X155888568Y-79592088D01*
X155888575Y-79592092D01*
X155888576Y-79592093D01*
X156073786Y-79706770D01*
X156073792Y-79706773D01*
X156096664Y-79715633D01*
X156276931Y-79785470D01*
X156491074Y-79825500D01*
X156491076Y-79825500D01*
X156708924Y-79825500D01*
X156708926Y-79825500D01*
X156923069Y-79785470D01*
X157126210Y-79706772D01*
X157311432Y-79592088D01*
X157472427Y-79445322D01*
X157501047Y-79407422D01*
X157557153Y-79365787D01*
X157626865Y-79361094D01*
X157688048Y-79394836D01*
X157698946Y-79407414D01*
X157727573Y-79445322D01*
X157888568Y-79592088D01*
X157888575Y-79592092D01*
X157888576Y-79592093D01*
X158073786Y-79706770D01*
X158073792Y-79706773D01*
X158096664Y-79715633D01*
X158276931Y-79785470D01*
X158491074Y-79825500D01*
X158491076Y-79825500D01*
X158708924Y-79825500D01*
X158708926Y-79825500D01*
X158877718Y-79793947D01*
X158947230Y-79800978D01*
X159001908Y-79844475D01*
X159024391Y-79910629D01*
X159024500Y-79915836D01*
X159024500Y-81538330D01*
X159024499Y-81538348D01*
X159024499Y-81704054D01*
X159024498Y-81704054D01*
X159036810Y-81750000D01*
X159065423Y-81856785D01*
X159065424Y-81856786D01*
X159079856Y-81881785D01*
X159079857Y-81881786D01*
X159144475Y-81993709D01*
X159144481Y-81993717D01*
X159263349Y-82112585D01*
X159263355Y-82112590D01*
X160265139Y-83114374D01*
X160265149Y-83114385D01*
X160269479Y-83118715D01*
X160269480Y-83118716D01*
X160381284Y-83230520D01*
X160468095Y-83280639D01*
X160468097Y-83280641D01*
X160518213Y-83309576D01*
X160518215Y-83309577D01*
X160670942Y-83350500D01*
X160670943Y-83350500D01*
X161667588Y-83350500D01*
X161734627Y-83370185D01*
X161744903Y-83377555D01*
X161747736Y-83379814D01*
X161747738Y-83379816D01*
X161900478Y-83475789D01*
X162070745Y-83535368D01*
X162070750Y-83535369D01*
X162249996Y-83555565D01*
X162250000Y-83555565D01*
X162250004Y-83555565D01*
X162429249Y-83535369D01*
X162429252Y-83535368D01*
X162429255Y-83535368D01*
X162599522Y-83475789D01*
X162752262Y-83379816D01*
X162879816Y-83252262D01*
X162975789Y-83099522D01*
X163035368Y-82929255D01*
X163055565Y-82750000D01*
X163048969Y-82691462D01*
X163035369Y-82570750D01*
X163035368Y-82570745D01*
X163024301Y-82539117D01*
X162975789Y-82400478D01*
X162950499Y-82360230D01*
X162890018Y-82263975D01*
X162879816Y-82247738D01*
X162752262Y-82120184D01*
X162728926Y-82105521D01*
X162599523Y-82024211D01*
X162429254Y-81964631D01*
X162429249Y-81964630D01*
X162250004Y-81944435D01*
X162249996Y-81944435D01*
X162070750Y-81964630D01*
X162070745Y-81964631D01*
X161900476Y-82024211D01*
X161747736Y-82120185D01*
X161744903Y-82122445D01*
X161742724Y-82123334D01*
X161741842Y-82123889D01*
X161741744Y-82123734D01*
X161680217Y-82148855D01*
X161667588Y-82149500D01*
X161050097Y-82149500D01*
X160983058Y-82129815D01*
X160962416Y-82113181D01*
X160261819Y-81412584D01*
X160228334Y-81351261D01*
X160225500Y-81324903D01*
X160225500Y-79925183D01*
X160245185Y-79858144D01*
X160297989Y-79812389D01*
X160367147Y-79802445D01*
X160372255Y-79803289D01*
X160491074Y-79825500D01*
X160491076Y-79825500D01*
X160708924Y-79825500D01*
X160708926Y-79825500D01*
X160923069Y-79785470D01*
X161126210Y-79706772D01*
X161311432Y-79592088D01*
X161472427Y-79445322D01*
X161501047Y-79407422D01*
X161557153Y-79365787D01*
X161626865Y-79361094D01*
X161688048Y-79394836D01*
X161698946Y-79407414D01*
X161727573Y-79445322D01*
X161888568Y-79592088D01*
X161888575Y-79592092D01*
X161888576Y-79592093D01*
X162073786Y-79706770D01*
X162073792Y-79706773D01*
X162096664Y-79715633D01*
X162276931Y-79785470D01*
X162491074Y-79825500D01*
X162491076Y-79825500D01*
X162708924Y-79825500D01*
X162708926Y-79825500D01*
X162923069Y-79785470D01*
X163126210Y-79706772D01*
X163311432Y-79592088D01*
X163472427Y-79445322D01*
X163501047Y-79407422D01*
X163557153Y-79365787D01*
X163626865Y-79361094D01*
X163688048Y-79394836D01*
X163698946Y-79407414D01*
X163727573Y-79445322D01*
X163888568Y-79592088D01*
X163888575Y-79592092D01*
X163888576Y-79592093D01*
X164073786Y-79706770D01*
X164073792Y-79706773D01*
X164096664Y-79715633D01*
X164276931Y-79785470D01*
X164491074Y-79825500D01*
X164491076Y-79825500D01*
X164708924Y-79825500D01*
X164708926Y-79825500D01*
X164923069Y-79785470D01*
X165126210Y-79706772D01*
X165311432Y-79592088D01*
X165472427Y-79445322D01*
X165501047Y-79407422D01*
X165557153Y-79365787D01*
X165626865Y-79361094D01*
X165688048Y-79394836D01*
X165698946Y-79407414D01*
X165727573Y-79445322D01*
X165727576Y-79445325D01*
X165727578Y-79445327D01*
X165888564Y-79592085D01*
X165888566Y-79592086D01*
X165888568Y-79592088D01*
X165940778Y-79624414D01*
X165987412Y-79676439D01*
X165999500Y-79729840D01*
X165999500Y-86263330D01*
X165999499Y-86263348D01*
X165999499Y-86429054D01*
X165999498Y-86429054D01*
X166040423Y-86581786D01*
X166040424Y-86581787D01*
X166064678Y-86623796D01*
X166103885Y-86691705D01*
X166119481Y-86718717D01*
X166238349Y-86837585D01*
X166238355Y-86837590D01*
X166419298Y-87018533D01*
X166452783Y-87079856D01*
X166454837Y-87092330D01*
X166464630Y-87179249D01*
X166524210Y-87349521D01*
X166620184Y-87502262D01*
X166747738Y-87629816D01*
X166900478Y-87725789D01*
X167070745Y-87785368D01*
X167070750Y-87785369D01*
X167249996Y-87805565D01*
X167250000Y-87805565D01*
X167250004Y-87805565D01*
X167429249Y-87785369D01*
X167429252Y-87785368D01*
X167429255Y-87785368D01*
X167599522Y-87725789D01*
X167752262Y-87629816D01*
X167879816Y-87502262D01*
X167975789Y-87349522D01*
X168035368Y-87179255D01*
X168045162Y-87092330D01*
X168055565Y-87000003D01*
X168055565Y-86999996D01*
X168035369Y-86820750D01*
X168035368Y-86820745D01*
X167999667Y-86718717D01*
X167975789Y-86650478D01*
X167879816Y-86497738D01*
X167752262Y-86370184D01*
X167599521Y-86274210D01*
X167442135Y-86219139D01*
X167429255Y-86214632D01*
X167429254Y-86214631D01*
X167429249Y-86214630D01*
X167342330Y-86204837D01*
X167277916Y-86177770D01*
X167268533Y-86169298D01*
X167236819Y-86137584D01*
X167203334Y-86076261D01*
X167200500Y-86049903D01*
X167200500Y-79729840D01*
X167220185Y-79662801D01*
X167259220Y-79624415D01*
X167311432Y-79592088D01*
X167472427Y-79445322D01*
X167501047Y-79407422D01*
X167557153Y-79365787D01*
X167626865Y-79361094D01*
X167688048Y-79394836D01*
X167698946Y-79407414D01*
X167727573Y-79445322D01*
X167888568Y-79592088D01*
X167888575Y-79592092D01*
X167888576Y-79592093D01*
X168073786Y-79706770D01*
X168073792Y-79706773D01*
X168096664Y-79715633D01*
X168276931Y-79785470D01*
X168491074Y-79825500D01*
X168491076Y-79825500D01*
X168708924Y-79825500D01*
X168708926Y-79825500D01*
X168923069Y-79785470D01*
X169126210Y-79706772D01*
X169311432Y-79592088D01*
X169472427Y-79445322D01*
X169501047Y-79407422D01*
X169557153Y-79365787D01*
X169626865Y-79361094D01*
X169688048Y-79394836D01*
X169698946Y-79407414D01*
X169727573Y-79445322D01*
X169727576Y-79445325D01*
X169727578Y-79445327D01*
X169888564Y-79592085D01*
X169888566Y-79592086D01*
X169888568Y-79592088D01*
X169940778Y-79624414D01*
X169987412Y-79676439D01*
X169999500Y-79729840D01*
X169999500Y-81067059D01*
X169979815Y-81134098D01*
X169963182Y-81154740D01*
X169870183Y-81247739D01*
X169774211Y-81400476D01*
X169714631Y-81570745D01*
X169714630Y-81570750D01*
X169694435Y-81749996D01*
X169694435Y-81750003D01*
X169714630Y-81929249D01*
X169714631Y-81929254D01*
X169774211Y-82099523D01*
X169865407Y-82244659D01*
X169870184Y-82252262D01*
X169997738Y-82379816D01*
X170150478Y-82475789D01*
X170320745Y-82535368D01*
X170320750Y-82535369D01*
X170499996Y-82555565D01*
X170500000Y-82555565D01*
X170500004Y-82555565D01*
X170679249Y-82535369D01*
X170679252Y-82535368D01*
X170679255Y-82535368D01*
X170849522Y-82475789D01*
X171002262Y-82379816D01*
X171129816Y-82252262D01*
X171225789Y-82099522D01*
X171285368Y-81929255D01*
X171285369Y-81929249D01*
X171305565Y-81750003D01*
X171305565Y-81749996D01*
X171285369Y-81570750D01*
X171285366Y-81570737D01*
X171225790Y-81400479D01*
X171219506Y-81390478D01*
X171200500Y-81324507D01*
X171200500Y-79729840D01*
X171220185Y-79662801D01*
X171259220Y-79624415D01*
X171311432Y-79592088D01*
X171472427Y-79445322D01*
X171501047Y-79407422D01*
X171557153Y-79365787D01*
X171626865Y-79361094D01*
X171688048Y-79394836D01*
X171698946Y-79407414D01*
X171727573Y-79445322D01*
X171888568Y-79592088D01*
X171888575Y-79592092D01*
X171888576Y-79592093D01*
X172073786Y-79706770D01*
X172073792Y-79706773D01*
X172096664Y-79715633D01*
X172276931Y-79785470D01*
X172491074Y-79825500D01*
X172491076Y-79825500D01*
X172708924Y-79825500D01*
X172708926Y-79825500D01*
X172923069Y-79785470D01*
X173126210Y-79706772D01*
X173311432Y-79592088D01*
X173472427Y-79445322D01*
X173501047Y-79407422D01*
X173557153Y-79365787D01*
X173626865Y-79361094D01*
X173688048Y-79394836D01*
X173698946Y-79407414D01*
X173727573Y-79445322D01*
X173727576Y-79445325D01*
X173727578Y-79445327D01*
X173888564Y-79592085D01*
X173888566Y-79592086D01*
X173888568Y-79592088D01*
X173940778Y-79624414D01*
X173987412Y-79676439D01*
X173999500Y-79729840D01*
X173999500Y-82067059D01*
X173979815Y-82134098D01*
X173963182Y-82154740D01*
X173870183Y-82247739D01*
X173774211Y-82400476D01*
X173714631Y-82570745D01*
X173714630Y-82570750D01*
X173694435Y-82749996D01*
X173694435Y-82750003D01*
X173714630Y-82929249D01*
X173714631Y-82929254D01*
X173774211Y-83099523D01*
X173868763Y-83250000D01*
X173870184Y-83252262D01*
X173997738Y-83379816D01*
X174150478Y-83475789D01*
X174320745Y-83535368D01*
X174320750Y-83535369D01*
X174499996Y-83555565D01*
X174500000Y-83555565D01*
X174500004Y-83555565D01*
X174679249Y-83535369D01*
X174679252Y-83535368D01*
X174679255Y-83535368D01*
X174849522Y-83475789D01*
X175002262Y-83379816D01*
X175129816Y-83252262D01*
X175225789Y-83099522D01*
X175285368Y-82929255D01*
X175305565Y-82750000D01*
X175298969Y-82691462D01*
X175285369Y-82570750D01*
X175285366Y-82570737D01*
X175225790Y-82400479D01*
X175219506Y-82390478D01*
X175200500Y-82324507D01*
X175200500Y-79729840D01*
X175220185Y-79662801D01*
X175259220Y-79624415D01*
X175311432Y-79592088D01*
X175472427Y-79445322D01*
X175501359Y-79407009D01*
X175557465Y-79365373D01*
X175627177Y-79360680D01*
X175688360Y-79394421D01*
X175699267Y-79407009D01*
X175727942Y-79444981D01*
X175727949Y-79444989D01*
X175888868Y-79591685D01*
X176074012Y-79706322D01*
X176074023Y-79706327D01*
X176277060Y-79784984D01*
X176350000Y-79798619D01*
X176350000Y-78965686D01*
X176354394Y-78970080D01*
X176445606Y-79022741D01*
X176547339Y-79050000D01*
X176652661Y-79050000D01*
X176754394Y-79022741D01*
X176845606Y-78970080D01*
X176850000Y-78965686D01*
X176850000Y-79798619D01*
X176922939Y-79784984D01*
X177125976Y-79706327D01*
X177125987Y-79706322D01*
X177311130Y-79591685D01*
X177311131Y-79591685D01*
X177472054Y-79444985D01*
X177603284Y-79271208D01*
X177700348Y-79076280D01*
X177750505Y-78900000D01*
X176915686Y-78900000D01*
X176920080Y-78895606D01*
X176972741Y-78804394D01*
X177000000Y-78702661D01*
X177000000Y-78597339D01*
X176972741Y-78495606D01*
X176920080Y-78404394D01*
X176915686Y-78400000D01*
X177750505Y-78400000D01*
X177750505Y-78399999D01*
X177700348Y-78223719D01*
X177603284Y-78028791D01*
X177472054Y-77855014D01*
X177311131Y-77708314D01*
X177125987Y-77593677D01*
X177125985Y-77593676D01*
X176922931Y-77515013D01*
X176922921Y-77515010D01*
X176850001Y-77501378D01*
X176850000Y-77501379D01*
X176850000Y-78334314D01*
X176845606Y-78329920D01*
X176754394Y-78277259D01*
X176652661Y-78250000D01*
X176547339Y-78250000D01*
X176445606Y-78277259D01*
X176354394Y-78329920D01*
X176350000Y-78334314D01*
X176350000Y-77501379D01*
X176349998Y-77501378D01*
X176277078Y-77515010D01*
X176277068Y-77515013D01*
X176074014Y-77593676D01*
X176074012Y-77593677D01*
X175888869Y-77708314D01*
X175888868Y-77708314D01*
X175727945Y-77855014D01*
X175699267Y-77892990D01*
X175643157Y-77934626D01*
X175573445Y-77939317D01*
X175512264Y-77905575D01*
X175501359Y-77892990D01*
X175492547Y-77881321D01*
X175472427Y-77854678D01*
X175311432Y-77707912D01*
X175311428Y-77707909D01*
X175311423Y-77707906D01*
X175126213Y-77593229D01*
X175126207Y-77593226D01*
X175041113Y-77560260D01*
X174923069Y-77514530D01*
X174708926Y-77474500D01*
X174491074Y-77474500D01*
X174276931Y-77514530D01*
X174232753Y-77531645D01*
X174073792Y-77593226D01*
X174073786Y-77593229D01*
X173888576Y-77707906D01*
X173888566Y-77707913D01*
X173727573Y-77854676D01*
X173698953Y-77892576D01*
X173642844Y-77934211D01*
X173573132Y-77938902D01*
X173511950Y-77905159D01*
X173501047Y-77892576D01*
X173472426Y-77854676D01*
X173311433Y-77707913D01*
X173311432Y-77707912D01*
X173259222Y-77675585D01*
X173212587Y-77623557D01*
X173200500Y-77570158D01*
X173200500Y-74925493D01*
X173219508Y-74859519D01*
X173225787Y-74849525D01*
X173225788Y-74849523D01*
X173225789Y-74849522D01*
X173285368Y-74679255D01*
X173289429Y-74643216D01*
X173305565Y-74500003D01*
X173305565Y-74499996D01*
X173285369Y-74320750D01*
X173285368Y-74320745D01*
X173232950Y-74170943D01*
X173225789Y-74150478D01*
X173129816Y-73997738D01*
X173002262Y-73870184D01*
X172849523Y-73774211D01*
X172679254Y-73714631D01*
X172679249Y-73714630D01*
X172500004Y-73694435D01*
X172499996Y-73694435D01*
X172320750Y-73714630D01*
X172320745Y-73714631D01*
X172150476Y-73774211D01*
X171997737Y-73870184D01*
X171870184Y-73997737D01*
X171774211Y-74150476D01*
X171714631Y-74320745D01*
X171714630Y-74320750D01*
X171694435Y-74499996D01*
X171694435Y-74500003D01*
X171714630Y-74679249D01*
X171714631Y-74679254D01*
X171774211Y-74849523D01*
X171870184Y-75002262D01*
X171963181Y-75095259D01*
X171996666Y-75156582D01*
X171999500Y-75182940D01*
X171999500Y-77570158D01*
X171979815Y-77637197D01*
X171940778Y-77675585D01*
X171888566Y-77707913D01*
X171727573Y-77854676D01*
X171698953Y-77892576D01*
X171642844Y-77934211D01*
X171573132Y-77938902D01*
X171511950Y-77905159D01*
X171501047Y-77892576D01*
X171472426Y-77854676D01*
X171311433Y-77707913D01*
X171311423Y-77707906D01*
X171126213Y-77593229D01*
X171126207Y-77593226D01*
X171041113Y-77560260D01*
X170923069Y-77514530D01*
X170708926Y-77474500D01*
X170491074Y-77474500D01*
X170276931Y-77514530D01*
X170232753Y-77531645D01*
X170073792Y-77593226D01*
X170073786Y-77593229D01*
X169888576Y-77707906D01*
X169888566Y-77707913D01*
X169727573Y-77854676D01*
X169698953Y-77892576D01*
X169642844Y-77934211D01*
X169573132Y-77938902D01*
X169511950Y-77905159D01*
X169501047Y-77892576D01*
X169472426Y-77854676D01*
X169311433Y-77707913D01*
X169311423Y-77707906D01*
X169126213Y-77593229D01*
X169126207Y-77593226D01*
X169041113Y-77560260D01*
X168923069Y-77514530D01*
X168708926Y-77474500D01*
X168491074Y-77474500D01*
X168276931Y-77514530D01*
X168232753Y-77531645D01*
X168073792Y-77593226D01*
X168073786Y-77593229D01*
X167888576Y-77707906D01*
X167888566Y-77707913D01*
X167727573Y-77854676D01*
X167698953Y-77892576D01*
X167642844Y-77934211D01*
X167573132Y-77938902D01*
X167511950Y-77905159D01*
X167501047Y-77892576D01*
X167472426Y-77854676D01*
X167311433Y-77707913D01*
X167311423Y-77707906D01*
X167126213Y-77593229D01*
X167126207Y-77593226D01*
X167041113Y-77560260D01*
X166923069Y-77514530D01*
X166708926Y-77474500D01*
X166491074Y-77474500D01*
X166276931Y-77514530D01*
X166232753Y-77531645D01*
X166073792Y-77593226D01*
X166073786Y-77593229D01*
X165888576Y-77707906D01*
X165888566Y-77707913D01*
X165727573Y-77854676D01*
X165698953Y-77892576D01*
X165642844Y-77934211D01*
X165573132Y-77938902D01*
X165511950Y-77905159D01*
X165501047Y-77892576D01*
X165472426Y-77854676D01*
X165311433Y-77707913D01*
X165311423Y-77707906D01*
X165126213Y-77593229D01*
X165126207Y-77593226D01*
X165041113Y-77560260D01*
X164923069Y-77514530D01*
X164708926Y-77474500D01*
X164491074Y-77474500D01*
X164276931Y-77514530D01*
X164232753Y-77531645D01*
X164073792Y-77593226D01*
X164073786Y-77593229D01*
X163888576Y-77707906D01*
X163888566Y-77707913D01*
X163727573Y-77854676D01*
X163698953Y-77892576D01*
X163642844Y-77934211D01*
X163573132Y-77938902D01*
X163511950Y-77905159D01*
X163501047Y-77892576D01*
X163472426Y-77854676D01*
X163311433Y-77707913D01*
X163311423Y-77707906D01*
X163126213Y-77593229D01*
X163126207Y-77593226D01*
X163041113Y-77560260D01*
X162923069Y-77514530D01*
X162708926Y-77474500D01*
X162491074Y-77474500D01*
X162276931Y-77514530D01*
X162232753Y-77531645D01*
X162073792Y-77593226D01*
X162073786Y-77593229D01*
X161888576Y-77707906D01*
X161888566Y-77707913D01*
X161727573Y-77854676D01*
X161698953Y-77892576D01*
X161642844Y-77934211D01*
X161573132Y-77938902D01*
X161511950Y-77905159D01*
X161501047Y-77892576D01*
X161472426Y-77854676D01*
X161311433Y-77707913D01*
X161311423Y-77707906D01*
X161126213Y-77593229D01*
X161126207Y-77593226D01*
X161041113Y-77560260D01*
X160923069Y-77514530D01*
X160708926Y-77474500D01*
X160491074Y-77474500D01*
X160461057Y-77480110D01*
X160372284Y-77496705D01*
X160302769Y-77489673D01*
X160248091Y-77446176D01*
X160225609Y-77380022D01*
X160225500Y-77374816D01*
X160225500Y-74795945D01*
X160225500Y-74795943D01*
X160184577Y-74643216D01*
X160170431Y-74618714D01*
X160105524Y-74506290D01*
X160105521Y-74506286D01*
X160105520Y-74506284D01*
X159993716Y-74394480D01*
X159993715Y-74394479D01*
X159989385Y-74390149D01*
X159989374Y-74390139D01*
X159636819Y-74037584D01*
X159603334Y-73976261D01*
X159600500Y-73949903D01*
X159600500Y-73582412D01*
X159620185Y-73515373D01*
X159627555Y-73505097D01*
X159629810Y-73502267D01*
X159629816Y-73502262D01*
X159725789Y-73349522D01*
X159785368Y-73179255D01*
X159785369Y-73179249D01*
X159805565Y-73000003D01*
X159805565Y-72999996D01*
X159785369Y-72820750D01*
X159785368Y-72820745D01*
X159725788Y-72650476D01*
X159629815Y-72497737D01*
X159502262Y-72370184D01*
X159349523Y-72274211D01*
X159179254Y-72214631D01*
X159179249Y-72214630D01*
X159000004Y-72194435D01*
X158999996Y-72194435D01*
X158820750Y-72214630D01*
X158820745Y-72214631D01*
X158650476Y-72274211D01*
X158497737Y-72370184D01*
X158370184Y-72497737D01*
X158274211Y-72650476D01*
X158214631Y-72820745D01*
X158214630Y-72820750D01*
X158194435Y-72999996D01*
X158194435Y-73000003D01*
X158214630Y-73179249D01*
X158214631Y-73179254D01*
X158274211Y-73349523D01*
X158370185Y-73502263D01*
X158372445Y-73505097D01*
X158373334Y-73507275D01*
X158373889Y-73508158D01*
X158373734Y-73508255D01*
X158398855Y-73569783D01*
X158399500Y-73582412D01*
X158399500Y-74163330D01*
X158399499Y-74163348D01*
X158399499Y-74329054D01*
X158399498Y-74329054D01*
X158440423Y-74481786D01*
X158448716Y-74496148D01*
X158450940Y-74500000D01*
X158519479Y-74618714D01*
X158519481Y-74618717D01*
X158638349Y-74737585D01*
X158638355Y-74737590D01*
X158988181Y-75087416D01*
X159021666Y-75148739D01*
X159024500Y-75175097D01*
X159024500Y-77384163D01*
X159004815Y-77451202D01*
X158952011Y-77496957D01*
X158882853Y-77506901D01*
X158877715Y-77506052D01*
X158708926Y-77474500D01*
X158491074Y-77474500D01*
X158276931Y-77514530D01*
X158232753Y-77531645D01*
X158073792Y-77593226D01*
X158073786Y-77593229D01*
X157888576Y-77707906D01*
X157888566Y-77707913D01*
X157727573Y-77854676D01*
X157698953Y-77892576D01*
X157642844Y-77934211D01*
X157573132Y-77938902D01*
X157511950Y-77905159D01*
X157501047Y-77892576D01*
X157472426Y-77854676D01*
X157311433Y-77707913D01*
X157311423Y-77707906D01*
X157126213Y-77593229D01*
X157126207Y-77593226D01*
X157041113Y-77560260D01*
X156923069Y-77514530D01*
X156708926Y-77474500D01*
X156491074Y-77474500D01*
X156276931Y-77514530D01*
X156232753Y-77531645D01*
X156073792Y-77593226D01*
X156073786Y-77593229D01*
X155888576Y-77707906D01*
X155888566Y-77707913D01*
X155727574Y-77854676D01*
X155698640Y-77892991D01*
X155642530Y-77934627D01*
X155572818Y-77939318D01*
X155511637Y-77905576D01*
X155500731Y-77892990D01*
X155472051Y-77855011D01*
X155472050Y-77855010D01*
X155311131Y-77708314D01*
X155125987Y-77593677D01*
X155125985Y-77593676D01*
X154922931Y-77515013D01*
X154922921Y-77515010D01*
X154850001Y-77501378D01*
X154850000Y-77501379D01*
X154850000Y-78334314D01*
X154845606Y-78329920D01*
X154754394Y-78277259D01*
X154652661Y-78250000D01*
X154547339Y-78250000D01*
X154445606Y-78277259D01*
X154354394Y-78329920D01*
X154350000Y-78334314D01*
X154350000Y-77501379D01*
X154349998Y-77501378D01*
X154277078Y-77515010D01*
X154277068Y-77515013D01*
X154074014Y-77593676D01*
X154074012Y-77593677D01*
X153888869Y-77708314D01*
X153888868Y-77708314D01*
X153727945Y-77855014D01*
X153699267Y-77892990D01*
X153643157Y-77934626D01*
X153573445Y-77939317D01*
X153512264Y-77905575D01*
X153501359Y-77892990D01*
X153492547Y-77881321D01*
X153472427Y-77854678D01*
X153311432Y-77707912D01*
X153311428Y-77707909D01*
X153311423Y-77707906D01*
X153126213Y-77593229D01*
X153126207Y-77593226D01*
X153041113Y-77560260D01*
X152923069Y-77514530D01*
X152708926Y-77474500D01*
X152491074Y-77474500D01*
X152276931Y-77514530D01*
X152232753Y-77531645D01*
X152073792Y-77593226D01*
X152073786Y-77593229D01*
X151888576Y-77707906D01*
X151888566Y-77707913D01*
X151727573Y-77854676D01*
X151698953Y-77892576D01*
X151642844Y-77934211D01*
X151573132Y-77938902D01*
X151511950Y-77905159D01*
X151501047Y-77892576D01*
X151472426Y-77854676D01*
X151311433Y-77707913D01*
X151311432Y-77707912D01*
X151259222Y-77675585D01*
X151212587Y-77623557D01*
X151200500Y-77570158D01*
X151200500Y-68999996D01*
X171944435Y-68999996D01*
X171944435Y-69000003D01*
X171964630Y-69179249D01*
X171964631Y-69179254D01*
X172024211Y-69349523D01*
X172120184Y-69502262D01*
X172247738Y-69629816D01*
X172400478Y-69725789D01*
X172570745Y-69785368D01*
X172570750Y-69785369D01*
X172749996Y-69805565D01*
X172750000Y-69805565D01*
X172750004Y-69805565D01*
X172929249Y-69785369D01*
X172929252Y-69785368D01*
X172929255Y-69785368D01*
X173099522Y-69725789D01*
X173252262Y-69629816D01*
X173379816Y-69502262D01*
X173475789Y-69349522D01*
X173535368Y-69179255D01*
X173555155Y-69003634D01*
X173558600Y-68985426D01*
X173559574Y-68981787D01*
X173559577Y-68981784D01*
X173600500Y-68829057D01*
X173600500Y-66332412D01*
X173620185Y-66265373D01*
X173627555Y-66255097D01*
X173629810Y-66252267D01*
X173629816Y-66252262D01*
X173725789Y-66099522D01*
X173785368Y-65929255D01*
X173805565Y-65750000D01*
X173797593Y-65679249D01*
X173785369Y-65570750D01*
X173785368Y-65570745D01*
X173725788Y-65400476D01*
X173686582Y-65338080D01*
X173629816Y-65247738D01*
X173502262Y-65120184D01*
X173349523Y-65024211D01*
X173179254Y-64964631D01*
X173179249Y-64964630D01*
X173000004Y-64944435D01*
X172999996Y-64944435D01*
X172820750Y-64964630D01*
X172820745Y-64964631D01*
X172650476Y-65024211D01*
X172497737Y-65120184D01*
X172370184Y-65247737D01*
X172274211Y-65400476D01*
X172214631Y-65570745D01*
X172214630Y-65570750D01*
X172194435Y-65749996D01*
X172194435Y-65750003D01*
X172214630Y-65929249D01*
X172214631Y-65929254D01*
X172274211Y-66099523D01*
X172370185Y-66252263D01*
X172372445Y-66255097D01*
X172373334Y-66257275D01*
X172373889Y-66258158D01*
X172373734Y-66258255D01*
X172398855Y-66319783D01*
X172399500Y-66332412D01*
X172399500Y-68206292D01*
X172379815Y-68273331D01*
X172341473Y-68311285D01*
X172247741Y-68370181D01*
X172247739Y-68370182D01*
X172120184Y-68497737D01*
X172024211Y-68650476D01*
X171964631Y-68820745D01*
X171964630Y-68820750D01*
X171944435Y-68999996D01*
X151200500Y-68999996D01*
X151200500Y-66082412D01*
X151220185Y-66015373D01*
X151227555Y-66005097D01*
X151229810Y-66002267D01*
X151229816Y-66002262D01*
X151325789Y-65849522D01*
X151385368Y-65679255D01*
X151385369Y-65679249D01*
X151405565Y-65500003D01*
X151405565Y-65499996D01*
X151385369Y-65320750D01*
X151385368Y-65320745D01*
X151325788Y-65150476D01*
X151229815Y-64997737D01*
X151102262Y-64870184D01*
X150949523Y-64774211D01*
X150779254Y-64714631D01*
X150779249Y-64714630D01*
X150600004Y-64694435D01*
X150599996Y-64694435D01*
X150420750Y-64714630D01*
X150420745Y-64714631D01*
X150250476Y-64774211D01*
X150097737Y-64870184D01*
X149970184Y-64997737D01*
X149874211Y-65150476D01*
X149814631Y-65320745D01*
X149814630Y-65320750D01*
X149794435Y-65499996D01*
X149794435Y-65500003D01*
X149814630Y-65679249D01*
X149814631Y-65679254D01*
X149874211Y-65849523D01*
X149970185Y-66002263D01*
X149972445Y-66005097D01*
X149973334Y-66007275D01*
X149973889Y-66008158D01*
X149973734Y-66008255D01*
X149998855Y-66069783D01*
X149999500Y-66082412D01*
X149999500Y-77570158D01*
X149979815Y-77637197D01*
X149940778Y-77675585D01*
X149888566Y-77707913D01*
X149727573Y-77854676D01*
X149698953Y-77892576D01*
X149642844Y-77934211D01*
X149573132Y-77938902D01*
X149511950Y-77905159D01*
X149501047Y-77892576D01*
X149472426Y-77854676D01*
X149311433Y-77707913D01*
X149311432Y-77707912D01*
X149259222Y-77675585D01*
X149212587Y-77623557D01*
X149200500Y-77570158D01*
X149200500Y-71832412D01*
X149220185Y-71765373D01*
X149227555Y-71755097D01*
X149229810Y-71752267D01*
X149229816Y-71752262D01*
X149325789Y-71599522D01*
X149385368Y-71429255D01*
X149405565Y-71250000D01*
X149385368Y-71070745D01*
X149325789Y-70900478D01*
X149229816Y-70747738D01*
X149102262Y-70620184D01*
X148949523Y-70524211D01*
X148779254Y-70464631D01*
X148779249Y-70464630D01*
X148600004Y-70444435D01*
X148599996Y-70444435D01*
X148420750Y-70464630D01*
X148420745Y-70464631D01*
X148250476Y-70524211D01*
X148097737Y-70620184D01*
X147970184Y-70747737D01*
X147874211Y-70900476D01*
X147814631Y-71070745D01*
X147814630Y-71070750D01*
X147794435Y-71249996D01*
X147794435Y-71250003D01*
X147814630Y-71429249D01*
X147814631Y-71429254D01*
X147874211Y-71599523D01*
X147970185Y-71752263D01*
X147972445Y-71755097D01*
X147973334Y-71757275D01*
X147973889Y-71758158D01*
X147973734Y-71758255D01*
X147998855Y-71819783D01*
X147999500Y-71832412D01*
X147999500Y-77570158D01*
X147979815Y-77637197D01*
X147940778Y-77675585D01*
X147888566Y-77707913D01*
X147888565Y-77707913D01*
X147877214Y-77718261D01*
X147814408Y-77748875D01*
X147745021Y-77740674D01*
X147694414Y-77700932D01*
X147632187Y-77617809D01*
X147517093Y-77531649D01*
X147517086Y-77531645D01*
X147382379Y-77481403D01*
X147382372Y-77481401D01*
X147322844Y-77475000D01*
X146850000Y-77475000D01*
X146850000Y-78334314D01*
X146845606Y-78329920D01*
X146754394Y-78277259D01*
X146652661Y-78250000D01*
X146547339Y-78250000D01*
X146445606Y-78277259D01*
X146354394Y-78329920D01*
X146350000Y-78334314D01*
X146350000Y-77475000D01*
X145877155Y-77475000D01*
X145817627Y-77481401D01*
X145817620Y-77481403D01*
X145682913Y-77531645D01*
X145682906Y-77531649D01*
X145567812Y-77617809D01*
X145567809Y-77617812D01*
X145481649Y-77732906D01*
X145481645Y-77732913D01*
X145431403Y-77867620D01*
X145431401Y-77867627D01*
X145425000Y-77927155D01*
X140850500Y-77927155D01*
X140850500Y-73832412D01*
X140870185Y-73765373D01*
X140877555Y-73755097D01*
X140879810Y-73752267D01*
X140879816Y-73752262D01*
X140975789Y-73599522D01*
X141035368Y-73429255D01*
X141053513Y-73268215D01*
X141055565Y-73250003D01*
X141055565Y-73249996D01*
X141035369Y-73070750D01*
X141035368Y-73070745D01*
X140975788Y-72900476D01*
X140936582Y-72838080D01*
X140879816Y-72747738D01*
X140752262Y-72620184D01*
X140599523Y-72524211D01*
X140429254Y-72464631D01*
X140429249Y-72464630D01*
X140250004Y-72444435D01*
X140249996Y-72444435D01*
X140070750Y-72464630D01*
X140070745Y-72464631D01*
X139900476Y-72524211D01*
X139747737Y-72620184D01*
X139620184Y-72747737D01*
X139524211Y-72900476D01*
X139464631Y-73070745D01*
X139464630Y-73070750D01*
X139444435Y-73249996D01*
X110305565Y-73249996D01*
X110285369Y-73070750D01*
X110285368Y-73070745D01*
X110225788Y-72900476D01*
X110186582Y-72838080D01*
X110129816Y-72747738D01*
X110002262Y-72620184D01*
X109849523Y-72524211D01*
X109679254Y-72464631D01*
X109679249Y-72464630D01*
X109500004Y-72444435D01*
X109499996Y-72444435D01*
X109320750Y-72464630D01*
X109320745Y-72464631D01*
X109150476Y-72524211D01*
X108997737Y-72620184D01*
X108870184Y-72747737D01*
X108774210Y-72900478D01*
X108714630Y-73070750D01*
X108698828Y-73211001D01*
X108682996Y-73259115D01*
X108660425Y-73298210D01*
X108660423Y-73298213D01*
X108646675Y-73349522D01*
X108619499Y-73450943D01*
X108619499Y-73450945D01*
X108619499Y-73619046D01*
X108619500Y-73619059D01*
X108619500Y-84148306D01*
X108599815Y-84215345D01*
X108566623Y-84249881D01*
X108380859Y-84379953D01*
X108219954Y-84540858D01*
X108089432Y-84727265D01*
X108089431Y-84727267D01*
X108062382Y-84785275D01*
X108016209Y-84837714D01*
X107949016Y-84856866D01*
X107882135Y-84836650D01*
X107837618Y-84785275D01*
X107810686Y-84727520D01*
X107810568Y-84727266D01*
X107680047Y-84540861D01*
X107680045Y-84540858D01*
X107636819Y-84497632D01*
X107603334Y-84436309D01*
X107600500Y-84409951D01*
X107600500Y-74043706D01*
X107620185Y-73976667D01*
X107658529Y-73938712D01*
X107752259Y-73879818D01*
X107752259Y-73879817D01*
X107752262Y-73879816D01*
X107879816Y-73752262D01*
X107975789Y-73599522D01*
X108035368Y-73429255D01*
X108053513Y-73268215D01*
X108055565Y-73250003D01*
X108055565Y-73249996D01*
X108035369Y-73070750D01*
X108035368Y-73070745D01*
X107975788Y-72900476D01*
X107936582Y-72838080D01*
X107879816Y-72747738D01*
X107752262Y-72620184D01*
X107599523Y-72524211D01*
X107429254Y-72464631D01*
X107429249Y-72464630D01*
X107250004Y-72444435D01*
X107249996Y-72444435D01*
X107070750Y-72464630D01*
X107070745Y-72464631D01*
X106900476Y-72524211D01*
X106747737Y-72620184D01*
X106620184Y-72747737D01*
X106524211Y-72900476D01*
X106464631Y-73070745D01*
X106464630Y-73070749D01*
X106444844Y-73246362D01*
X106441399Y-73264571D01*
X106399499Y-73420943D01*
X106399499Y-73589046D01*
X106399500Y-73589059D01*
X106399500Y-84013633D01*
X106379815Y-84080672D01*
X106327011Y-84126427D01*
X106307596Y-84133407D01*
X106233503Y-84153261D01*
X106027267Y-84249431D01*
X106027265Y-84249432D01*
X105840858Y-84379954D01*
X105679954Y-84540858D01*
X105549432Y-84727265D01*
X105549431Y-84727267D01*
X105522382Y-84785275D01*
X105476209Y-84837714D01*
X105409016Y-84856866D01*
X105342135Y-84836650D01*
X105297618Y-84785275D01*
X105270686Y-84727520D01*
X105270568Y-84727266D01*
X105140047Y-84540861D01*
X105140045Y-84540858D01*
X104979141Y-84379954D01*
X104792734Y-84249432D01*
X104792732Y-84249431D01*
X104586497Y-84153261D01*
X104586488Y-84153258D01*
X104366697Y-84094366D01*
X104366693Y-84094365D01*
X104366692Y-84094365D01*
X104366691Y-84094364D01*
X104366686Y-84094364D01*
X104140002Y-84074532D01*
X104139998Y-84074532D01*
X103913313Y-84094364D01*
X103913302Y-84094366D01*
X103693511Y-84153258D01*
X103693502Y-84153261D01*
X103487267Y-84249431D01*
X103487265Y-84249432D01*
X103300858Y-84379954D01*
X103139954Y-84540858D01*
X103009432Y-84727265D01*
X103009431Y-84727267D01*
X102913261Y-84933502D01*
X102913258Y-84933511D01*
X102854366Y-85153302D01*
X102854364Y-85153313D01*
X102834532Y-85379998D01*
X102834532Y-85380001D01*
X102854364Y-85606686D01*
X102854366Y-85606697D01*
X102913258Y-85826488D01*
X102913261Y-85826497D01*
X103009431Y-86032732D01*
X103009432Y-86032734D01*
X103139954Y-86219141D01*
X103300858Y-86380045D01*
X103300861Y-86380047D01*
X103487266Y-86510568D01*
X103693504Y-86606739D01*
X103913308Y-86665635D01*
X104075230Y-86679801D01*
X104139998Y-86685468D01*
X104140000Y-86685468D01*
X104140002Y-86685468D01*
X104196807Y-86680498D01*
X104366692Y-86665635D01*
X104586496Y-86606739D01*
X104792734Y-86510568D01*
X104979139Y-86380047D01*
X105140047Y-86219139D01*
X105270568Y-86032734D01*
X105297618Y-85974724D01*
X105343790Y-85922285D01*
X105410983Y-85903133D01*
X105477865Y-85923348D01*
X105522382Y-85974725D01*
X105549429Y-86032728D01*
X105549432Y-86032734D01*
X105679954Y-86219141D01*
X105840858Y-86380045D01*
X105840861Y-86380047D01*
X106027266Y-86510568D01*
X106233504Y-86606739D01*
X106453308Y-86665635D01*
X106615230Y-86679801D01*
X106679998Y-86685468D01*
X106680000Y-86685468D01*
X106680002Y-86685468D01*
X106736807Y-86680498D01*
X106906692Y-86665635D01*
X107126496Y-86606739D01*
X107332734Y-86510568D01*
X107519139Y-86380047D01*
X107680047Y-86219139D01*
X107810568Y-86032734D01*
X107837618Y-85974724D01*
X107883790Y-85922285D01*
X107950983Y-85903133D01*
X108017865Y-85923348D01*
X108062382Y-85974725D01*
X108089429Y-86032728D01*
X108089432Y-86032734D01*
X108219954Y-86219141D01*
X108380858Y-86380045D01*
X108380861Y-86380047D01*
X108567266Y-86510568D01*
X108773504Y-86606739D01*
X108993308Y-86665635D01*
X109155230Y-86679801D01*
X109219998Y-86685468D01*
X109220000Y-86685468D01*
X109220002Y-86685468D01*
X109276807Y-86680498D01*
X109446692Y-86665635D01*
X109666496Y-86606739D01*
X109872734Y-86510568D01*
X110059139Y-86380047D01*
X110220047Y-86219139D01*
X110350568Y-86032734D01*
X110377618Y-85974724D01*
X110423790Y-85922285D01*
X110490983Y-85903133D01*
X110557865Y-85923348D01*
X110602382Y-85974725D01*
X110629429Y-86032728D01*
X110629432Y-86032734D01*
X110759954Y-86219141D01*
X110920858Y-86380045D01*
X110920861Y-86380047D01*
X111106624Y-86510118D01*
X111150248Y-86564693D01*
X111159500Y-86611692D01*
X111159500Y-89867293D01*
X111155275Y-89899384D01*
X111149499Y-89920938D01*
X111149499Y-90089046D01*
X111149500Y-90089059D01*
X111149500Y-90167587D01*
X111129815Y-90234626D01*
X111122450Y-90244896D01*
X111120186Y-90247734D01*
X111024211Y-90400476D01*
X110964631Y-90570745D01*
X110964630Y-90570750D01*
X110944435Y-90749996D01*
X110944435Y-90750003D01*
X110964630Y-90929249D01*
X110964631Y-90929254D01*
X111024211Y-91099523D01*
X111081328Y-91190423D01*
X111120184Y-91252262D01*
X111247738Y-91379816D01*
X111261323Y-91388352D01*
X111400478Y-91475789D01*
X111464771Y-91498286D01*
X111521547Y-91539008D01*
X111547295Y-91603960D01*
X111533839Y-91672522D01*
X111485452Y-91722925D01*
X111455911Y-91735103D01*
X111313508Y-91773259D01*
X111313502Y-91773261D01*
X111107267Y-91869431D01*
X111107265Y-91869432D01*
X110920858Y-91999954D01*
X110759954Y-92160858D01*
X110629432Y-92347265D01*
X110629431Y-92347267D01*
X110602382Y-92405275D01*
X110556209Y-92457714D01*
X110489016Y-92476866D01*
X110422135Y-92456650D01*
X110377618Y-92405275D01*
X110350686Y-92347520D01*
X110350568Y-92347266D01*
X110220047Y-92160861D01*
X110220045Y-92160858D01*
X110059141Y-91999954D01*
X109872734Y-91869432D01*
X109872732Y-91869431D01*
X109666497Y-91773261D01*
X109666488Y-91773258D01*
X109446697Y-91714366D01*
X109446693Y-91714365D01*
X109446692Y-91714365D01*
X109446691Y-91714364D01*
X109446686Y-91714364D01*
X109220002Y-91694532D01*
X109219998Y-91694532D01*
X108993313Y-91714364D01*
X108993302Y-91714366D01*
X108897067Y-91740152D01*
X108827217Y-91738489D01*
X108777293Y-91708058D01*
X108457590Y-91388355D01*
X108457588Y-91388352D01*
X108338717Y-91269481D01*
X108338716Y-91269480D01*
X108251904Y-91219360D01*
X108251904Y-91219359D01*
X108251900Y-91219358D01*
X108201785Y-91190423D01*
X108049057Y-91149499D01*
X107890943Y-91149499D01*
X107883347Y-91149499D01*
X107883331Y-91149500D01*
X103755305Y-91149500D01*
X103714384Y-91160464D01*
X103714384Y-91160465D01*
X103677116Y-91170451D01*
X103602579Y-91190423D01*
X103602574Y-91190426D01*
X103465655Y-91269475D01*
X103465647Y-91269481D01*
X103385133Y-91349996D01*
X103353845Y-91381284D01*
X103353843Y-91381286D01*
X102910312Y-91824818D01*
X102481949Y-92253181D01*
X102420626Y-92286666D01*
X102394268Y-92289500D01*
X95316603Y-92289500D01*
X95249564Y-92269815D01*
X95203809Y-92217011D01*
X95193865Y-92147853D01*
X95204220Y-92113098D01*
X95273903Y-91963663D01*
X95335063Y-91735408D01*
X95355659Y-91500000D01*
X95335063Y-91264592D01*
X95273903Y-91036337D01*
X95174035Y-90822171D01*
X95168731Y-90814595D01*
X95038494Y-90628597D01*
X94871402Y-90461506D01*
X94871395Y-90461501D01*
X94677834Y-90325967D01*
X94677830Y-90325965D01*
X94677828Y-90325964D01*
X94463663Y-90226097D01*
X94463659Y-90226096D01*
X94463655Y-90226094D01*
X94235413Y-90164938D01*
X94235403Y-90164936D01*
X94000001Y-90144341D01*
X93999999Y-90144341D01*
X93764596Y-90164936D01*
X93764586Y-90164938D01*
X93536344Y-90226094D01*
X93536335Y-90226098D01*
X93322171Y-90325964D01*
X93322169Y-90325965D01*
X93128597Y-90461505D01*
X92961505Y-90628597D01*
X92831269Y-90814595D01*
X92776692Y-90858220D01*
X92707194Y-90865414D01*
X92644839Y-90833891D01*
X92628119Y-90814595D01*
X92574925Y-90738626D01*
X92574925Y-90738625D01*
X91942962Y-91370589D01*
X91925925Y-91307007D01*
X91860099Y-91192993D01*
X91767007Y-91099901D01*
X91652993Y-91034075D01*
X91589410Y-91017037D01*
X92221373Y-90385073D01*
X92221373Y-90385072D01*
X92137583Y-90326402D01*
X92137579Y-90326400D01*
X91923492Y-90226570D01*
X91923483Y-90226566D01*
X91695326Y-90165432D01*
X91695315Y-90165430D01*
X91460002Y-90144843D01*
X91459998Y-90144843D01*
X91224684Y-90165430D01*
X91224673Y-90165432D01*
X90996516Y-90226566D01*
X90996507Y-90226570D01*
X90782419Y-90326401D01*
X90698625Y-90385072D01*
X91330590Y-91017037D01*
X91267007Y-91034075D01*
X91152993Y-91099901D01*
X91059901Y-91192993D01*
X90994075Y-91307007D01*
X90977037Y-91370589D01*
X90345073Y-90738625D01*
X90345072Y-90738625D01*
X90286401Y-90822419D01*
X90186570Y-91036507D01*
X90186566Y-91036516D01*
X90125432Y-91264673D01*
X90125430Y-91264684D01*
X90104843Y-91499998D01*
X90104843Y-91500001D01*
X90125430Y-91735315D01*
X90125432Y-91735326D01*
X90186566Y-91963483D01*
X90186570Y-91963492D01*
X90286400Y-92177579D01*
X90286402Y-92177583D01*
X90345072Y-92261373D01*
X90345073Y-92261373D01*
X90977037Y-91629409D01*
X90994075Y-91692993D01*
X91059901Y-91807007D01*
X91152993Y-91900099D01*
X91267007Y-91965925D01*
X91330590Y-91982962D01*
X90698625Y-92614925D01*
X90774594Y-92668119D01*
X90818219Y-92722696D01*
X90825413Y-92792194D01*
X90793890Y-92854549D01*
X90774595Y-92871269D01*
X90588594Y-93001508D01*
X90421505Y-93168597D01*
X90285965Y-93362169D01*
X90285964Y-93362171D01*
X90186098Y-93576335D01*
X90186094Y-93576344D01*
X90124938Y-93804586D01*
X90124936Y-93804596D01*
X90104341Y-94039999D01*
X84750500Y-94039999D01*
X84750500Y-62624500D01*
X84770185Y-62557461D01*
X84822989Y-62511706D01*
X84874500Y-62500500D01*
X178376000Y-62500500D01*
X178443039Y-62520185D01*
G37*
%TD.AperFunction*%
%TD*%
M02*
