%TF.GenerationSoftware,KiCad,Pcbnew,8.0.4*%
%TF.CreationDate,2025-05-14T15:51:55-04:00*%
%TF.ProjectId,am-receiver,616d2d72-6563-4656-9976-65722e6b6963,rev?*%
%TF.SameCoordinates,Original*%
%TF.FileFunction,Soldermask,Top*%
%TF.FilePolarity,Negative*%
%FSLAX46Y46*%
G04 Gerber Fmt 4.6, Leading zero omitted, Abs format (unit mm)*
G04 Created by KiCad (PCBNEW 8.0.4) date 2025-05-14 15:51:55*
%MOMM*%
%LPD*%
G01*
G04 APERTURE LIST*
G04 Aperture macros list*
%AMRoundRect*
0 Rectangle with rounded corners*
0 $1 Rounding radius*
0 $2 $3 $4 $5 $6 $7 $8 $9 X,Y pos of 4 corners*
0 Add a 4 corners polygon primitive as box body*
4,1,4,$2,$3,$4,$5,$6,$7,$8,$9,$2,$3,0*
0 Add four circle primitives for the rounded corners*
1,1,$1+$1,$2,$3*
1,1,$1+$1,$4,$5*
1,1,$1+$1,$6,$7*
1,1,$1+$1,$8,$9*
0 Add four rect primitives between the rounded corners*
20,1,$1+$1,$2,$3,$4,$5,0*
20,1,$1+$1,$4,$5,$6,$7,0*
20,1,$1+$1,$6,$7,$8,$9,0*
20,1,$1+$1,$8,$9,$2,$3,0*%
G04 Aperture macros list end*
%ADD10R,1.800000X1.800000*%
%ADD11C,1.800000*%
%ADD12R,2.200000X1.600000*%
%ADD13R,0.500000X0.500000*%
%ADD14RoundRect,0.135000X-0.135000X-0.185000X0.135000X-0.185000X0.135000X0.185000X-0.135000X0.185000X0*%
%ADD15C,3.800000*%
%ADD16RoundRect,0.375000X0.375000X-0.625000X0.375000X0.625000X-0.375000X0.625000X-0.375000X-0.625000X0*%
%ADD17RoundRect,0.500000X1.400000X-0.500000X1.400000X0.500000X-1.400000X0.500000X-1.400000X-0.500000X0*%
%ADD18R,2.400000X1.500000*%
%ADD19RoundRect,0.135000X0.135000X0.185000X-0.135000X0.185000X-0.135000X-0.185000X0.135000X-0.185000X0*%
%ADD20RoundRect,0.250000X0.600000X0.600000X-0.600000X0.600000X-0.600000X-0.600000X0.600000X-0.600000X0*%
%ADD21C,1.700000*%
%ADD22RoundRect,0.165000X-0.165000X-0.475000X0.165000X-0.475000X0.165000X0.475000X-0.165000X0.475000X0*%
%ADD23RoundRect,0.165000X0.475000X-0.165000X0.475000X0.165000X-0.475000X0.165000X-0.475000X-0.165000X0*%
%ADD24R,2.000000X2.500000*%
%ADD25R,2.500000X2.000000*%
%ADD26C,1.931200*%
%ADD27R,1.350000X1.350000*%
%ADD28O,1.350000X1.350000*%
%ADD29RoundRect,0.150000X0.200000X-0.150000X0.200000X0.150000X-0.200000X0.150000X-0.200000X-0.150000X0*%
%ADD30RoundRect,0.165000X0.165000X0.475000X-0.165000X0.475000X-0.165000X-0.475000X0.165000X-0.475000X0*%
%ADD31C,2.744000*%
%ADD32C,1.000000*%
%ADD33R,1.600000X1.600000*%
%ADD34O,1.600000X1.600000*%
%ADD35R,2.200000X2.200000*%
%ADD36O,2.200000X2.200000*%
%ADD37C,2.130000*%
%ADD38R,1.800000X3.000000*%
%ADD39O,1.800000X3.000000*%
%ADD40O,1.600000X3.000000*%
G04 APERTURE END LIST*
D10*
%TO.C,SW2*%
X129750000Y-132000000D03*
D11*
X129750000Y-127000000D03*
X135750000Y-132000000D03*
X135750000Y-127000000D03*
%TD*%
D12*
%TO.C,PC3*%
X184000000Y-88000000D03*
X187000000Y-88000000D03*
%TD*%
D13*
%TO.C,C1*%
X168250000Y-123700000D03*
X168250000Y-122000000D03*
%TD*%
D14*
%TO.C,R1*%
X185895000Y-103000000D03*
X186915000Y-103000000D03*
%TD*%
D15*
%TO.C,AE1*%
X153000000Y-132000000D03*
%TD*%
D16*
%TO.C,U3*%
X93200000Y-115300000D03*
X95500000Y-115300000D03*
D17*
X95500000Y-109000000D03*
D16*
X97800000Y-115300000D03*
%TD*%
D18*
%TO.C,L1*%
X180000000Y-127500000D03*
X180000000Y-122000000D03*
%TD*%
D19*
%TO.C,R4*%
X165515000Y-82650000D03*
X164495000Y-82650000D03*
%TD*%
D20*
%TO.C,J2*%
X94000000Y-96580000D03*
D21*
X91460000Y-96580000D03*
X94000000Y-94040000D03*
X91460000Y-94040000D03*
X94000000Y-91500000D03*
X91460000Y-91500000D03*
%TD*%
D22*
%TO.C,C4*%
X183615000Y-98000000D03*
X184695000Y-98000000D03*
%TD*%
D23*
%TO.C,C2*%
X176750000Y-103885000D03*
X176750000Y-102805000D03*
%TD*%
D22*
%TO.C,C6*%
X109750000Y-83250000D03*
X110830000Y-83250000D03*
%TD*%
D24*
%TO.C,RV1*%
X192850000Y-74100000D03*
X195000000Y-82750000D03*
X197150000Y-74100000D03*
%TD*%
D25*
%TO.C,RV2*%
X159100000Y-71150000D03*
X167750000Y-69000000D03*
X159100000Y-66850000D03*
%TD*%
D26*
%TO.C,U1*%
X191440000Y-106690000D03*
X191440000Y-109230000D03*
X191440000Y-111770000D03*
X191440000Y-114310000D03*
X199060000Y-114310000D03*
X199060000Y-111770000D03*
X199060000Y-109230000D03*
X199060000Y-106690000D03*
%TD*%
D14*
%TO.C,R2*%
X181145000Y-103000000D03*
X182165000Y-103000000D03*
%TD*%
D27*
%TO.C,J3*%
X146600000Y-78650000D03*
D28*
X148600000Y-78650000D03*
X150600000Y-78650000D03*
X152600000Y-78650000D03*
X154600000Y-78650000D03*
X156600000Y-78650000D03*
X158600000Y-78650000D03*
X160600000Y-78650000D03*
X162600000Y-78650000D03*
X164600000Y-78650000D03*
X166600000Y-78650000D03*
X168600000Y-78650000D03*
X170600000Y-78650000D03*
X172600000Y-78650000D03*
X174600000Y-78650000D03*
X176600000Y-78650000D03*
%TD*%
D12*
%TO.C,PC1*%
X97000000Y-129000000D03*
X94000000Y-129000000D03*
%TD*%
D29*
%TO.C,D1*%
X169250000Y-110500000D03*
X169250000Y-111900000D03*
%TD*%
D30*
%TO.C,C5*%
X117693125Y-83284333D03*
X116613125Y-83284333D03*
%TD*%
D31*
%TO.C,ST171*%
X191750000Y-94250000D03*
X196750000Y-94250000D03*
%TD*%
D32*
%TO.C,Y1*%
X115000000Y-83250000D03*
X112460000Y-83250000D03*
%TD*%
D33*
%TO.C,U2*%
X137160000Y-85380000D03*
D34*
X134620000Y-85380000D03*
X132080000Y-85380000D03*
X129540000Y-85380000D03*
X127000000Y-85380000D03*
X124460000Y-85380000D03*
X121920000Y-85380000D03*
X119380000Y-85380000D03*
X116840000Y-85380000D03*
X114300000Y-85380000D03*
X111760000Y-85380000D03*
X109220000Y-85380000D03*
X106680000Y-85380000D03*
X104140000Y-85380000D03*
X104140000Y-93000000D03*
X106680000Y-93000000D03*
X109220000Y-93000000D03*
X111760000Y-93000000D03*
X114300000Y-93000000D03*
X116840000Y-93000000D03*
X119380000Y-93000000D03*
X121920000Y-93000000D03*
X124460000Y-93000000D03*
X127000000Y-93000000D03*
X129540000Y-93000000D03*
X132080000Y-93000000D03*
X134620000Y-93000000D03*
X137160000Y-93000000D03*
%TD*%
D12*
%TO.C,PC2*%
X96500000Y-121750000D03*
X93500000Y-121750000D03*
%TD*%
D35*
%TO.C,D2*%
X115090000Y-113250000D03*
D36*
X125250000Y-113250000D03*
%TD*%
D37*
%TO.C,J1*%
X119550000Y-129450000D03*
D38*
X122750000Y-123150000D03*
D39*
X114250000Y-123150000D03*
X119550000Y-123150000D03*
D40*
X113350000Y-130450000D03*
X123150000Y-130450000D03*
%TD*%
D22*
%TO.C,C3*%
X119750000Y-96250000D03*
X120830000Y-96250000D03*
%TD*%
M02*
