%TF.GenerationSoftware,KiCad,Pcbnew,8.0.4*%
%TF.CreationDate,2025-05-14T15:51:55-04:00*%
%TF.ProjectId,am-receiver,616d2d72-6563-4656-9976-65722e6b6963,rev?*%
%TF.SameCoordinates,Original*%
%TF.FileFunction,Copper,L1,Top*%
%TF.FilePolarity,Positive*%
%FSLAX46Y46*%
G04 Gerber Fmt 4.6, Leading zero omitted, Abs format (unit mm)*
G04 Created by KiCad (PCBNEW 8.0.4) date 2025-05-14 15:51:55*
%MOMM*%
%LPD*%
G01*
G04 APERTURE LIST*
G04 Aperture macros list*
%AMRoundRect*
0 Rectangle with rounded corners*
0 $1 Rounding radius*
0 $2 $3 $4 $5 $6 $7 $8 $9 X,Y pos of 4 corners*
0 Add a 4 corners polygon primitive as box body*
4,1,4,$2,$3,$4,$5,$6,$7,$8,$9,$2,$3,0*
0 Add four circle primitives for the rounded corners*
1,1,$1+$1,$2,$3*
1,1,$1+$1,$4,$5*
1,1,$1+$1,$6,$7*
1,1,$1+$1,$8,$9*
0 Add four rect primitives between the rounded corners*
20,1,$1+$1,$2,$3,$4,$5,0*
20,1,$1+$1,$4,$5,$6,$7,0*
20,1,$1+$1,$6,$7,$8,$9,0*
20,1,$1+$1,$8,$9,$2,$3,0*%
G04 Aperture macros list end*
%TA.AperFunction,ComponentPad*%
%ADD10R,1.800000X1.800000*%
%TD*%
%TA.AperFunction,ComponentPad*%
%ADD11C,1.800000*%
%TD*%
%TA.AperFunction,SMDPad,CuDef*%
%ADD12R,2.200000X1.600000*%
%TD*%
%TA.AperFunction,SMDPad,CuDef*%
%ADD13R,0.500000X0.500000*%
%TD*%
%TA.AperFunction,SMDPad,CuDef*%
%ADD14RoundRect,0.135000X-0.135000X-0.185000X0.135000X-0.185000X0.135000X0.185000X-0.135000X0.185000X0*%
%TD*%
%TA.AperFunction,ComponentPad*%
%ADD15C,3.800000*%
%TD*%
%TA.AperFunction,SMDPad,CuDef*%
%ADD16RoundRect,0.375000X0.375000X-0.625000X0.375000X0.625000X-0.375000X0.625000X-0.375000X-0.625000X0*%
%TD*%
%TA.AperFunction,SMDPad,CuDef*%
%ADD17RoundRect,0.500000X1.400000X-0.500000X1.400000X0.500000X-1.400000X0.500000X-1.400000X-0.500000X0*%
%TD*%
%TA.AperFunction,SMDPad,CuDef*%
%ADD18R,2.400000X1.500000*%
%TD*%
%TA.AperFunction,SMDPad,CuDef*%
%ADD19RoundRect,0.135000X0.135000X0.185000X-0.135000X0.185000X-0.135000X-0.185000X0.135000X-0.185000X0*%
%TD*%
%TA.AperFunction,ComponentPad*%
%ADD20RoundRect,0.250000X0.600000X0.600000X-0.600000X0.600000X-0.600000X-0.600000X0.600000X-0.600000X0*%
%TD*%
%TA.AperFunction,ComponentPad*%
%ADD21C,1.700000*%
%TD*%
%TA.AperFunction,SMDPad,CuDef*%
%ADD22RoundRect,0.165000X-0.165000X-0.475000X0.165000X-0.475000X0.165000X0.475000X-0.165000X0.475000X0*%
%TD*%
%TA.AperFunction,SMDPad,CuDef*%
%ADD23RoundRect,0.165000X0.475000X-0.165000X0.475000X0.165000X-0.475000X0.165000X-0.475000X-0.165000X0*%
%TD*%
%TA.AperFunction,SMDPad,CuDef*%
%ADD24R,2.000000X2.500000*%
%TD*%
%TA.AperFunction,SMDPad,CuDef*%
%ADD25R,2.500000X2.000000*%
%TD*%
%TA.AperFunction,ComponentPad*%
%ADD26C,1.727200*%
%TD*%
%TA.AperFunction,ComponentPad*%
%ADD27R,1.350000X1.350000*%
%TD*%
%TA.AperFunction,ComponentPad*%
%ADD28O,1.350000X1.350000*%
%TD*%
%TA.AperFunction,SMDPad,CuDef*%
%ADD29RoundRect,0.150000X0.200000X-0.150000X0.200000X0.150000X-0.200000X0.150000X-0.200000X-0.150000X0*%
%TD*%
%TA.AperFunction,SMDPad,CuDef*%
%ADD30RoundRect,0.165000X0.165000X0.475000X-0.165000X0.475000X-0.165000X-0.475000X0.165000X-0.475000X0*%
%TD*%
%TA.AperFunction,ComponentPad*%
%ADD31C,2.540000*%
%TD*%
%TA.AperFunction,ComponentPad*%
%ADD32C,1.000000*%
%TD*%
%TA.AperFunction,ComponentPad*%
%ADD33R,1.600000X1.600000*%
%TD*%
%TA.AperFunction,ComponentPad*%
%ADD34O,1.600000X1.600000*%
%TD*%
%TA.AperFunction,ComponentPad*%
%ADD35R,2.200000X2.200000*%
%TD*%
%TA.AperFunction,ComponentPad*%
%ADD36O,2.200000X2.200000*%
%TD*%
%TA.AperFunction,ComponentPad*%
%ADD37R,1.800000X3.000000*%
%TD*%
%TA.AperFunction,ComponentPad*%
%ADD38O,1.800000X3.000000*%
%TD*%
%TA.AperFunction,ComponentPad*%
%ADD39O,1.600000X3.000000*%
%TD*%
%TA.AperFunction,ViaPad*%
%ADD40C,0.600000*%
%TD*%
%TA.AperFunction,Conductor*%
%ADD41C,0.200000*%
%TD*%
G04 APERTURE END LIST*
D10*
%TO.P,SW2,1,1*%
%TO.N,Net-(J1-Pad1)*%
X129750000Y-132000000D03*
D11*
%TO.P,SW2,2,2*%
%TO.N,Net-(D2-A)*%
X129750000Y-127000000D03*
%TO.P,SW2,3,3*%
%TO.N,Net-(AE1-A)*%
X135750000Y-132000000D03*
%TO.P,SW2,4,4*%
%TO.N,Net-(C1-Pad1)*%
X135750000Y-127000000D03*
%TD*%
D12*
%TO.P,PC3,1*%
%TO.N,Net-(C4-Pad1)*%
X184000000Y-88000000D03*
%TO.P,PC3,2*%
%TO.N,FreqRead Input*%
X187000000Y-88000000D03*
%TD*%
D13*
%TO.P,C1,1*%
%TO.N,Net-(C1-Pad1)*%
X168250000Y-123700000D03*
%TO.P,C1,2*%
%TO.N,GND*%
X168250000Y-122000000D03*
%TD*%
D14*
%TO.P,R1,1*%
%TO.N,Net-(D1-K)*%
X185895000Y-103000000D03*
%TO.P,R1,2*%
%TO.N,GND*%
X186915000Y-103000000D03*
%TD*%
D15*
%TO.P,AE1,1,A*%
%TO.N,Net-(AE1-A)*%
X153000000Y-132000000D03*
%TD*%
D16*
%TO.P,U3,1,GND*%
%TO.N,GND*%
X93200000Y-115300000D03*
%TO.P,U3,2,VO*%
%TO.N,Vcc*%
X95500000Y-115300000D03*
D17*
X95500000Y-109000000D03*
D16*
%TO.P,U3,3,VI*%
%TO.N,Net-(D2-K)*%
X97800000Y-115300000D03*
%TD*%
D18*
%TO.P,L1,1,1*%
%TO.N,Net-(C1-Pad1)*%
X180000000Y-127500000D03*
%TO.P,L1,2,2*%
%TO.N,GND*%
X180000000Y-122000000D03*
%TD*%
D19*
%TO.P,R4,1*%
%TO.N,Net-(J3-A)*%
X165515000Y-82650000D03*
%TO.P,R4,2*%
%TO.N,Vcc*%
X164495000Y-82650000D03*
%TD*%
D20*
%TO.P,J2,1,MISO*%
%TO.N,MISO*%
X94000000Y-96580000D03*
D21*
%TO.P,J2,2,VCC*%
%TO.N,Vcc*%
X91460000Y-96580000D03*
%TO.P,J2,3,SCK*%
%TO.N,SCK*%
X94000000Y-94040000D03*
%TO.P,J2,4,MOSI*%
%TO.N,MOSI*%
X91460000Y-94040000D03*
%TO.P,J2,5,~{RST}*%
%TO.N,RST*%
X94000000Y-91500000D03*
%TO.P,J2,6,GND*%
%TO.N,GND*%
X91460000Y-91500000D03*
%TD*%
D22*
%TO.P,C4,1*%
%TO.N,Net-(C4-Pad1)*%
X183615000Y-98000000D03*
%TO.P,C4,2*%
%TO.N,Net-(C4-Pad2)*%
X184695000Y-98000000D03*
%TD*%
D23*
%TO.P,C2,1*%
%TO.N,Net-(D1-K)*%
X176750000Y-103885000D03*
%TO.P,C2,2*%
%TO.N,GND*%
X176750000Y-102805000D03*
%TD*%
D22*
%TO.P,C6,1*%
%TO.N,GND*%
X109750000Y-83250000D03*
%TO.P,C6,2*%
%TO.N,Net-(U2-XTAL1{slash}PB6)*%
X110830000Y-83250000D03*
%TD*%
D24*
%TO.P,RV1,1,1*%
%TO.N,Net-(D1-K)*%
X192850000Y-74100000D03*
%TO.P,RV1,2,2*%
%TO.N,Net-(U1--)*%
X195000000Y-82750000D03*
%TO.P,RV1,3,3*%
%TO.N,GND*%
X197150000Y-74100000D03*
%TD*%
D25*
%TO.P,RV2,1,1*%
%TO.N,Vcc*%
X159100000Y-71150000D03*
%TO.P,RV2,2,2*%
%TO.N,Net-(J3-VO)*%
X167750000Y-69000000D03*
%TO.P,RV2,3,3*%
%TO.N,GND*%
X159100000Y-66850000D03*
%TD*%
D26*
%TO.P,U1,1,GAIN*%
%TO.N,unconnected-(U1-GAIN-Pad1)*%
X191440000Y-106690000D03*
%TO.P,U1,2,-*%
%TO.N,Net-(U1--)*%
X191440000Y-109230000D03*
%TO.P,U1,3,+*%
%TO.N,GND*%
X191440000Y-111770000D03*
%TO.P,U1,4,GND*%
X191440000Y-114310000D03*
%TO.P,U1,5*%
%TO.N,Net-(C4-Pad1)*%
X199060000Y-114310000D03*
%TO.P,U1,6,V+*%
%TO.N,Vcc*%
X199060000Y-111770000D03*
%TO.P,U1,7,BYPASS*%
%TO.N,unconnected-(U1-BYPASS-Pad7)*%
X199060000Y-109230000D03*
%TO.P,U1,8,GAIN*%
%TO.N,unconnected-(U1-GAIN-Pad8)*%
X199060000Y-106690000D03*
%TD*%
D14*
%TO.P,R2,1*%
%TO.N,Net-(C4-Pad2)*%
X181145000Y-103000000D03*
%TO.P,R2,2*%
%TO.N,GND*%
X182165000Y-103000000D03*
%TD*%
D27*
%TO.P,J3,1,VSS*%
%TO.N,GND*%
X146600000Y-78650000D03*
D28*
%TO.P,J3,2,VDD*%
%TO.N,Vcc*%
X148600000Y-78650000D03*
%TO.P,J3,3,VO*%
%TO.N,Net-(J3-VO)*%
X150600000Y-78650000D03*
%TO.P,J3,4,RS*%
%TO.N,Net-(J3-RS)*%
X152600000Y-78650000D03*
%TO.P,J3,5,RW*%
%TO.N,GND*%
X154600000Y-78650000D03*
%TO.P,J3,6,E*%
%TO.N,Net-(J3-E)*%
X156600000Y-78650000D03*
%TO.P,J3,7,DB0*%
%TO.N,unconnected-(J3-DB0-Pad7)*%
X158600000Y-78650000D03*
%TO.P,J3,8,DB1*%
%TO.N,unconnected-(J3-DB1-Pad8)*%
X160600000Y-78650000D03*
%TO.P,J3,9,DB2*%
%TO.N,unconnected-(J3-DB2-Pad9)*%
X162600000Y-78650000D03*
%TO.P,J3,10,DB3*%
%TO.N,unconnected-(J3-DB3-Pad10)*%
X164600000Y-78650000D03*
%TO.P,J3,11,DB4*%
%TO.N,Net-(J3-DB4)*%
X166600000Y-78650000D03*
%TO.P,J3,12,DB5*%
%TO.N,unconnected-(J3-DB5-Pad12)*%
X168600000Y-78650000D03*
%TO.P,J3,13,DB6*%
%TO.N,Net-(J3-DB6)*%
X170600000Y-78650000D03*
%TO.P,J3,14,DB7*%
%TO.N,Net-(J3-DB7)*%
X172600000Y-78650000D03*
%TO.P,J3,15,A*%
%TO.N,Net-(J3-A)*%
X174600000Y-78650000D03*
%TO.P,J3,16,K*%
%TO.N,GND*%
X176600000Y-78650000D03*
%TD*%
D12*
%TO.P,PC1,1*%
%TO.N,Net-(D2-K)*%
X97000000Y-129000000D03*
%TO.P,PC1,2*%
%TO.N,GND*%
X94000000Y-129000000D03*
%TD*%
D29*
%TO.P,D1,1,K*%
%TO.N,Net-(D1-K)*%
X169250000Y-110500000D03*
%TO.P,D1,2,A*%
%TO.N,GND*%
X169250000Y-111900000D03*
%TD*%
D30*
%TO.P,C5,1*%
%TO.N,GND*%
X117693125Y-83284333D03*
%TO.P,C5,2*%
%TO.N,Net-(U2-XTAL2{slash}PB7)*%
X116613125Y-83284333D03*
%TD*%
D31*
%TO.P,ST171,P$1*%
%TO.N,FreqRead Input*%
X191750000Y-94250000D03*
%TO.P,ST171,P$2*%
%TO.N,GND*%
X196750000Y-94250000D03*
%TD*%
D32*
%TO.P,Y1,1,1*%
%TO.N,Net-(U2-XTAL2{slash}PB7)*%
X115000000Y-83250000D03*
%TO.P,Y1,2,2*%
%TO.N,Net-(U2-XTAL1{slash}PB6)*%
X112460000Y-83250000D03*
%TD*%
D33*
%TO.P,U2,1,~{RESET}/PC6*%
%TO.N,RST*%
X137160000Y-85380000D03*
D34*
%TO.P,U2,2,PD0*%
%TO.N,unconnected-(U2-PD0-Pad2)*%
X134620000Y-85380000D03*
%TO.P,U2,3,PD1*%
%TO.N,Net-(J3-E)*%
X132080000Y-85380000D03*
%TO.P,U2,4,PD2*%
%TO.N,Net-(J3-RS)*%
X129540000Y-85380000D03*
%TO.P,U2,5,PD3*%
%TO.N,unconnected-(U2-PD3-Pad5)*%
X127000000Y-85380000D03*
%TO.P,U2,6,PD4*%
%TO.N,Net-(J3-DB4)*%
X124460000Y-85380000D03*
%TO.P,U2,7,VCC*%
%TO.N,Vcc*%
X121920000Y-85380000D03*
%TO.P,U2,8,GND*%
%TO.N,GND*%
X119380000Y-85380000D03*
%TO.P,U2,9,XTAL1/PB6*%
%TO.N,Net-(U2-XTAL1{slash}PB6)*%
X116840000Y-85380000D03*
%TO.P,U2,10,XTAL2/PB7*%
%TO.N,Net-(U2-XTAL2{slash}PB7)*%
X114300000Y-85380000D03*
%TO.P,U2,11,PD5*%
%TO.N,FreqRead Input*%
X111760000Y-85380000D03*
%TO.P,U2,12,PD6*%
%TO.N,Net-(J3-DB6)*%
X109220000Y-85380000D03*
%TO.P,U2,13,PD7*%
%TO.N,Net-(J3-DB7)*%
X106680000Y-85380000D03*
%TO.P,U2,14,PB0*%
%TO.N,unconnected-(U2-PB0-Pad14)*%
X104140000Y-85380000D03*
%TO.P,U2,15,PB1*%
%TO.N,unconnected-(U2-PB1-Pad15)*%
X104140000Y-93000000D03*
%TO.P,U2,16,PB2*%
%TO.N,unconnected-(U2-PB2-Pad16)*%
X106680000Y-93000000D03*
%TO.P,U2,17,PB3*%
%TO.N,MOSI*%
X109220000Y-93000000D03*
%TO.P,U2,18,PB4*%
%TO.N,MISO*%
X111760000Y-93000000D03*
%TO.P,U2,19,PB5*%
%TO.N,SCK*%
X114300000Y-93000000D03*
%TO.P,U2,20,AVCC*%
%TO.N,Vcc*%
X116840000Y-93000000D03*
%TO.P,U2,21,AREF*%
%TO.N,unconnected-(U2-AREF-Pad21)*%
X119380000Y-93000000D03*
%TO.P,U2,22,GND*%
%TO.N,GND*%
X121920000Y-93000000D03*
%TO.P,U2,23,PC0*%
%TO.N,unconnected-(U2-PC0-Pad23)*%
X124460000Y-93000000D03*
%TO.P,U2,24,PC1*%
%TO.N,unconnected-(U2-PC1-Pad24)*%
X127000000Y-93000000D03*
%TO.P,U2,25,PC2*%
%TO.N,unconnected-(U2-PC2-Pad25)*%
X129540000Y-93000000D03*
%TO.P,U2,26,PC3*%
%TO.N,unconnected-(U2-PC3-Pad26)*%
X132080000Y-93000000D03*
%TO.P,U2,27,PC4*%
%TO.N,unconnected-(U2-PC4-Pad27)*%
X134620000Y-93000000D03*
%TO.P,U2,28,PC5*%
%TO.N,unconnected-(U2-PC5-Pad28)*%
X137160000Y-93000000D03*
%TD*%
D12*
%TO.P,PC2,1*%
%TO.N,Vcc*%
X96500000Y-121750000D03*
%TO.P,PC2,2*%
%TO.N,GND*%
X93500000Y-121750000D03*
%TD*%
D35*
%TO.P,D2,1,K*%
%TO.N,Net-(D2-K)*%
X115090000Y-113250000D03*
D36*
%TO.P,D2,2,A*%
%TO.N,Net-(D2-A)*%
X125250000Y-113250000D03*
%TD*%
D37*
%TO.P,J1,1*%
%TO.N,Net-(J1-Pad1)*%
X122750000Y-123150000D03*
D38*
%TO.P,J1,2*%
%TO.N,GND*%
X114250000Y-123150000D03*
%TO.P,J1,3*%
X119550000Y-123150000D03*
D39*
%TO.P,J1,SH*%
%TO.N,N/C*%
X113350000Y-130450000D03*
X123150000Y-130450000D03*
%TD*%
D22*
%TO.P,C3,1*%
%TO.N,Vcc*%
X119750000Y-96250000D03*
%TO.P,C3,2*%
%TO.N,GND*%
X120830000Y-96250000D03*
%TD*%
D40*
%TO.N,GND*%
X121750000Y-89750000D03*
X179750000Y-106750000D03*
X190250000Y-122000000D03*
X176250000Y-67000000D03*
X155000000Y-66750000D03*
X176750000Y-101750000D03*
X202000000Y-102750000D03*
X201750000Y-73750000D03*
X86750000Y-115250000D03*
X119000000Y-89500000D03*
X114500000Y-136500000D03*
X86750000Y-91500000D03*
%TO.N,Net-(D1-K)*%
X185000000Y-102500000D03*
X186750000Y-100500000D03*
X184750000Y-106000000D03*
X185500000Y-75000000D03*
%TO.N,Net-(C4-Pad1)*%
X182500000Y-115500000D03*
X183835000Y-94000000D03*
%TO.N,Net-(D2-K)*%
X102750000Y-115300000D03*
X102750000Y-129000000D03*
%TO.N,Net-(D2-A)*%
X130250000Y-113000000D03*
%TO.N,Net-(J1-Pad1)*%
X129250000Y-123000000D03*
%TO.N,RST*%
X137250000Y-91350000D03*
%TO.N,FreqRead Input*%
X111750000Y-90750000D03*
%TO.N,Vcc*%
X162250000Y-82750000D03*
X148600000Y-71250000D03*
X173500000Y-112750000D03*
X116750000Y-109000000D03*
X148500000Y-89250000D03*
X159000000Y-73000000D03*
X173250000Y-85000000D03*
%TO.N,Net-(J3-RS)*%
X129750000Y-80250000D03*
%TO.N,Net-(J3-DB7)*%
X107250000Y-73250000D03*
X172500000Y-74500000D03*
%TO.N,Net-(J3-A)*%
X174500000Y-82750000D03*
%TO.N,Net-(J3-DB6)*%
X170500000Y-81750000D03*
X140250000Y-73250000D03*
X140250000Y-81750000D03*
X109500000Y-73250000D03*
%TO.N,Net-(J3-E)*%
X132500000Y-76500000D03*
%TO.N,Net-(J3-DB4)*%
X167250000Y-87000000D03*
%TO.N,Net-(J3-VO)*%
X173000000Y-65750000D03*
X150600000Y-65500000D03*
X172750000Y-69000000D03*
%TO.N,Net-(U1--)*%
X190000000Y-83500000D03*
%TD*%
D41*
%TO.N,Net-(AE1-A)*%
X135750000Y-132000000D02*
X152750000Y-132000000D01*
%TO.N,Net-(C1-Pad1)*%
X135750000Y-127000000D02*
X139050000Y-123700000D01*
X168250000Y-126750000D02*
X168250000Y-123700000D01*
X139050000Y-123700000D02*
X168250000Y-123700000D01*
X169000000Y-127500000D02*
X168250000Y-126750000D01*
X180000000Y-127500000D02*
X169000000Y-127500000D01*
%TO.N,GND*%
X110320000Y-85570000D02*
X110320000Y-84570000D01*
X182670000Y-103000000D02*
X186725000Y-107055000D01*
X154600000Y-78650000D02*
X153625000Y-77675000D01*
X176750000Y-103025000D02*
X176750000Y-101750000D01*
X86800000Y-115300000D02*
X93200000Y-115300000D01*
X191440000Y-111770000D02*
X186725000Y-107055000D01*
X159100000Y-66850000D02*
X176100000Y-66850000D01*
X94000000Y-122250000D02*
X93500000Y-121750000D01*
X202000000Y-102750000D02*
X201750000Y-103000000D01*
X94000000Y-129000000D02*
X94000000Y-122250000D01*
X119380000Y-84971208D02*
X119380000Y-85380000D01*
X153625000Y-77675000D02*
X147575000Y-77675000D01*
X119380000Y-80620000D02*
X121350000Y-78650000D01*
X114500000Y-136500000D02*
X91750000Y-136500000D01*
X117860000Y-86900000D02*
X111650000Y-86900000D01*
X155100000Y-66850000D02*
X155000000Y-66750000D01*
X91460000Y-91500000D02*
X93460000Y-89500000D01*
X91750000Y-129000000D02*
X94000000Y-129000000D01*
X120610000Y-96250000D02*
X120610000Y-94310000D01*
X109750000Y-84000000D02*
X109750000Y-83250000D01*
X119380000Y-85380000D02*
X117860000Y-86900000D01*
X110320000Y-84570000D02*
X109750000Y-84000000D01*
X120610000Y-94310000D02*
X121920000Y-93000000D01*
X186725000Y-103000000D02*
X186725000Y-107055000D01*
X91460000Y-91500000D02*
X86750000Y-91500000D01*
X159100000Y-66850000D02*
X155100000Y-66850000D01*
X186420000Y-106750000D02*
X186725000Y-107055000D01*
X176100000Y-66850000D02*
X176250000Y-67000000D01*
X91750000Y-136500000D02*
X91750000Y-129000000D01*
X86750000Y-115250000D02*
X86800000Y-115300000D01*
X179750000Y-106750000D02*
X186420000Y-106750000D01*
X121350000Y-78650000D02*
X146600000Y-78650000D01*
X201750000Y-73750000D02*
X201400000Y-74100000D01*
X181975000Y-103000000D02*
X182670000Y-103000000D01*
X169250000Y-111900000D02*
X169250000Y-121000000D01*
X119250000Y-89750000D02*
X119000000Y-89500000D01*
X117693125Y-83284333D02*
X119380000Y-84971208D01*
X147575000Y-77675000D02*
X146600000Y-78650000D01*
X201750000Y-103000000D02*
X186725000Y-103000000D01*
X93500000Y-115600000D02*
X93200000Y-115300000D01*
X93500000Y-121750000D02*
X93500000Y-115600000D01*
X119380000Y-85380000D02*
X119380000Y-80620000D01*
X93460000Y-89500000D02*
X119000000Y-89500000D01*
X111650000Y-86900000D02*
X110320000Y-85570000D01*
X201400000Y-74100000D02*
X197150000Y-74100000D01*
X180000000Y-122000000D02*
X168250000Y-122000000D01*
X190250000Y-122000000D02*
X180000000Y-122000000D01*
X121750000Y-89750000D02*
X119250000Y-89750000D01*
X169250000Y-121000000D02*
X168250000Y-122000000D01*
%TO.N,Net-(D1-K)*%
X176750000Y-103885000D02*
X182635000Y-103885000D01*
X169250000Y-110500000D02*
X169250000Y-107000000D01*
X176750000Y-106500000D02*
X176750000Y-103665000D01*
X186250000Y-101000000D02*
X185000000Y-101000000D01*
X182635000Y-103885000D02*
X184750000Y-106000000D01*
X185000000Y-101000000D02*
X185000000Y-102500000D01*
X185250000Y-103000000D02*
X186085000Y-103000000D01*
X186750000Y-100500000D02*
X186250000Y-101000000D01*
X169250000Y-107000000D02*
X169750000Y-106500000D01*
X185000000Y-102500000D02*
X185000000Y-102750000D01*
X186400000Y-74100000D02*
X185500000Y-75000000D01*
X192850000Y-74100000D02*
X186400000Y-74100000D01*
X185000000Y-102750000D02*
X185250000Y-103000000D01*
X169750000Y-106500000D02*
X176750000Y-106500000D01*
%TO.N,MISO*%
X108180000Y-96580000D02*
X111760000Y-93000000D01*
X94000000Y-96580000D02*
X108180000Y-96580000D01*
%TO.N,Net-(C4-Pad2)*%
X181335000Y-103000000D02*
X181335000Y-102800001D01*
X184475000Y-99660001D02*
X184475000Y-98000000D01*
X181335000Y-102800001D02*
X184475000Y-99660001D01*
%TO.N,Net-(C4-Pad1)*%
X199060000Y-114310000D02*
X197870000Y-115500000D01*
X183835000Y-88165000D02*
X183835000Y-94000000D01*
X197870000Y-115500000D02*
X182500000Y-115500000D01*
X183835000Y-94000000D02*
X183835000Y-98000000D01*
X184000000Y-88000000D02*
X183835000Y-88165000D01*
%TO.N,Net-(U2-XTAL2{slash}PB7)*%
X115000000Y-83250000D02*
X115000000Y-84680000D01*
X116613125Y-83284333D02*
X115034333Y-83284333D01*
X115000000Y-84680000D02*
X114300000Y-85380000D01*
X115034333Y-83284333D02*
X115000000Y-83250000D01*
%TO.N,Net-(U2-XTAL1{slash}PB6)*%
X115720000Y-86500000D02*
X116840000Y-85380000D01*
X112959999Y-83749999D02*
X112959999Y-85595634D01*
X110830000Y-83250000D02*
X112460000Y-83250000D01*
X112959999Y-85595634D02*
X113864365Y-86500000D01*
X113864365Y-86500000D02*
X115720000Y-86500000D01*
X112460000Y-83250000D02*
X112959999Y-83749999D01*
%TO.N,Net-(D2-K)*%
X97800000Y-115300000D02*
X102750000Y-115300000D01*
X113040000Y-115300000D02*
X115090000Y-113250000D01*
X102750000Y-129000000D02*
X97000000Y-129000000D01*
X102750000Y-115300000D02*
X113040000Y-115300000D01*
%TO.N,Net-(D2-A)*%
X130000000Y-113250000D02*
X125250000Y-113250000D01*
X130250000Y-113000000D02*
X130000000Y-113250000D01*
%TO.N,Net-(J1-Pad1)*%
X122750000Y-123150000D02*
X129100000Y-123150000D01*
X129100000Y-123150000D02*
X129250000Y-123000000D01*
%TO.N,RST*%
X137100000Y-91500000D02*
X137250000Y-91350000D01*
X94000000Y-91500000D02*
X137100000Y-91500000D01*
%TO.N,FreqRead Input*%
X187000000Y-88000000D02*
X187000000Y-89500000D01*
X178750000Y-90750000D02*
X111750000Y-90750000D01*
X187000000Y-89500000D02*
X191750000Y-94250000D01*
X185900000Y-86900000D02*
X182600000Y-86900000D01*
X182600000Y-86900000D02*
X178750000Y-90750000D01*
X187000000Y-88000000D02*
X185900000Y-86900000D01*
%TO.N,Vcc*%
X148700000Y-71150000D02*
X159100000Y-71150000D01*
X95500000Y-109000000D02*
X116750000Y-109000000D01*
X148600000Y-71250000D02*
X148700000Y-71150000D01*
X148500000Y-89250000D02*
X125790000Y-89250000D01*
X159000000Y-73000000D02*
X159100000Y-72900000D01*
X119970000Y-96130000D02*
X116840000Y-93000000D01*
X95500000Y-115300000D02*
X95500000Y-120750000D01*
X119970000Y-96250000D02*
X119970000Y-96130000D01*
X159100000Y-72900000D02*
X159100000Y-71150000D01*
X162750000Y-85000000D02*
X173250000Y-85000000D01*
X162250000Y-84500000D02*
X162750000Y-85000000D01*
X95500000Y-109000000D02*
X95500000Y-115300000D01*
X197896400Y-112933600D02*
X199060000Y-111770000D01*
X91460000Y-104960000D02*
X95500000Y-109000000D01*
X162350000Y-82650000D02*
X162250000Y-82750000D01*
X164495000Y-82650000D02*
X162350000Y-82650000D01*
X91460000Y-96580000D02*
X91460000Y-104960000D01*
X125790000Y-89250000D02*
X121920000Y-85380000D01*
X162250000Y-82750000D02*
X162250000Y-84500000D01*
X95500000Y-120750000D02*
X96500000Y-121750000D01*
X173683600Y-112933600D02*
X197896400Y-112933600D01*
X173500000Y-112750000D02*
X173683600Y-112933600D01*
%TO.N,Net-(J3-RS)*%
X129750000Y-80250000D02*
X151000000Y-80250000D01*
X151000000Y-80250000D02*
X152600000Y-78650000D01*
%TO.N,Net-(J3-DB7)*%
X142348529Y-74500000D02*
X140098529Y-72250000D01*
X106680000Y-85350000D02*
X106680000Y-85380000D01*
X140098529Y-72250000D02*
X108250000Y-72250000D01*
X172500000Y-74500000D02*
X142348529Y-74500000D01*
X108250000Y-72250000D02*
X107250000Y-73250000D01*
%TO.N,Net-(J3-A)*%
X174400000Y-82650000D02*
X165325000Y-82650000D01*
X174500000Y-82750000D02*
X174400000Y-82650000D01*
%TO.N,Net-(J3-DB6)*%
X140250000Y-81750000D02*
X170500000Y-81750000D01*
X109500000Y-73250000D02*
X140250000Y-73250000D01*
%TO.N,Net-(J3-E)*%
X154450000Y-76500000D02*
X156600000Y-78650000D01*
X132500000Y-76500000D02*
X154450000Y-76500000D01*
%TO.N,Net-(J3-DB4)*%
X124460000Y-85380000D02*
X126080000Y-87000000D01*
X126080000Y-87000000D02*
X167250000Y-87000000D01*
%TO.N,Net-(J3-VO)*%
X173000000Y-65750000D02*
X172000000Y-64750000D01*
X172750000Y-69000000D02*
X167750000Y-69000000D01*
X151350000Y-64750000D02*
X150600000Y-65500000D01*
X172000000Y-64750000D02*
X151350000Y-64750000D01*
%TO.N,Net-(U1--)*%
X190750000Y-83500000D02*
X191500000Y-82750000D01*
X190000000Y-83500000D02*
X190750000Y-83500000D01*
X191500000Y-82750000D02*
X195000000Y-82750000D01*
%TD*%
%TA.AperFunction,NonConductor*%
G36*
X167943039Y-94769685D02*
G01*
X167988794Y-94822489D01*
X168000000Y-94874000D01*
X168000000Y-120626000D01*
X167980315Y-120693039D01*
X167927511Y-120738794D01*
X167876000Y-120750000D01*
X131624000Y-120750000D01*
X131556961Y-120730315D01*
X131511206Y-120677511D01*
X131500000Y-120626000D01*
X131500000Y-94874000D01*
X131519685Y-94806961D01*
X131572489Y-94761206D01*
X131624000Y-94750000D01*
X167876000Y-94750000D01*
X167943039Y-94769685D01*
G37*
%TD.AperFunction*%
M02*
