%TF.GenerationSoftware,KiCad,Pcbnew,8.0.4*%
%TF.CreationDate,2025-05-14T15:51:55-04:00*%
%TF.ProjectId,am-receiver,616d2d72-6563-4656-9976-65722e6b6963,rev?*%
%TF.SameCoordinates,Original*%
%TF.FileFunction,Legend,Top*%
%TF.FilePolarity,Positive*%
%FSLAX46Y46*%
G04 Gerber Fmt 4.6, Leading zero omitted, Abs format (unit mm)*
G04 Created by KiCad (PCBNEW 8.0.4) date 2025-05-14 15:51:55*
%MOMM*%
%LPD*%
G01*
G04 APERTURE LIST*
%ADD10C,0.150000*%
%ADD11C,0.120000*%
%ADD12C,0.203200*%
%ADD13C,0.254000*%
%ADD14C,0.152400*%
G04 APERTURE END LIST*
D10*
X127407200Y-130833332D02*
X127454819Y-130690475D01*
X127454819Y-130690475D02*
X127454819Y-130452380D01*
X127454819Y-130452380D02*
X127407200Y-130357142D01*
X127407200Y-130357142D02*
X127359580Y-130309523D01*
X127359580Y-130309523D02*
X127264342Y-130261904D01*
X127264342Y-130261904D02*
X127169104Y-130261904D01*
X127169104Y-130261904D02*
X127073866Y-130309523D01*
X127073866Y-130309523D02*
X127026247Y-130357142D01*
X127026247Y-130357142D02*
X126978628Y-130452380D01*
X126978628Y-130452380D02*
X126931009Y-130642856D01*
X126931009Y-130642856D02*
X126883390Y-130738094D01*
X126883390Y-130738094D02*
X126835771Y-130785713D01*
X126835771Y-130785713D02*
X126740533Y-130833332D01*
X126740533Y-130833332D02*
X126645295Y-130833332D01*
X126645295Y-130833332D02*
X126550057Y-130785713D01*
X126550057Y-130785713D02*
X126502438Y-130738094D01*
X126502438Y-130738094D02*
X126454819Y-130642856D01*
X126454819Y-130642856D02*
X126454819Y-130404761D01*
X126454819Y-130404761D02*
X126502438Y-130261904D01*
X126454819Y-129928570D02*
X127454819Y-129690475D01*
X127454819Y-129690475D02*
X126740533Y-129499999D01*
X126740533Y-129499999D02*
X127454819Y-129309523D01*
X127454819Y-129309523D02*
X126454819Y-129071428D01*
X126550057Y-128738094D02*
X126502438Y-128690475D01*
X126502438Y-128690475D02*
X126454819Y-128595237D01*
X126454819Y-128595237D02*
X126454819Y-128357142D01*
X126454819Y-128357142D02*
X126502438Y-128261904D01*
X126502438Y-128261904D02*
X126550057Y-128214285D01*
X126550057Y-128214285D02*
X126645295Y-128166666D01*
X126645295Y-128166666D02*
X126740533Y-128166666D01*
X126740533Y-128166666D02*
X126883390Y-128214285D01*
X126883390Y-128214285D02*
X127454819Y-128785713D01*
X127454819Y-128785713D02*
X127454819Y-128166666D01*
X184261905Y-85754819D02*
X184261905Y-84754819D01*
X184261905Y-84754819D02*
X184642857Y-84754819D01*
X184642857Y-84754819D02*
X184738095Y-84802438D01*
X184738095Y-84802438D02*
X184785714Y-84850057D01*
X184785714Y-84850057D02*
X184833333Y-84945295D01*
X184833333Y-84945295D02*
X184833333Y-85088152D01*
X184833333Y-85088152D02*
X184785714Y-85183390D01*
X184785714Y-85183390D02*
X184738095Y-85231009D01*
X184738095Y-85231009D02*
X184642857Y-85278628D01*
X184642857Y-85278628D02*
X184261905Y-85278628D01*
X185833333Y-85659580D02*
X185785714Y-85707200D01*
X185785714Y-85707200D02*
X185642857Y-85754819D01*
X185642857Y-85754819D02*
X185547619Y-85754819D01*
X185547619Y-85754819D02*
X185404762Y-85707200D01*
X185404762Y-85707200D02*
X185309524Y-85611961D01*
X185309524Y-85611961D02*
X185261905Y-85516723D01*
X185261905Y-85516723D02*
X185214286Y-85326247D01*
X185214286Y-85326247D02*
X185214286Y-85183390D01*
X185214286Y-85183390D02*
X185261905Y-84992914D01*
X185261905Y-84992914D02*
X185309524Y-84897676D01*
X185309524Y-84897676D02*
X185404762Y-84802438D01*
X185404762Y-84802438D02*
X185547619Y-84754819D01*
X185547619Y-84754819D02*
X185642857Y-84754819D01*
X185642857Y-84754819D02*
X185785714Y-84802438D01*
X185785714Y-84802438D02*
X185833333Y-84850057D01*
X186166667Y-84754819D02*
X186785714Y-84754819D01*
X186785714Y-84754819D02*
X186452381Y-85135771D01*
X186452381Y-85135771D02*
X186595238Y-85135771D01*
X186595238Y-85135771D02*
X186690476Y-85183390D01*
X186690476Y-85183390D02*
X186738095Y-85231009D01*
X186738095Y-85231009D02*
X186785714Y-85326247D01*
X186785714Y-85326247D02*
X186785714Y-85564342D01*
X186785714Y-85564342D02*
X186738095Y-85659580D01*
X186738095Y-85659580D02*
X186690476Y-85707200D01*
X186690476Y-85707200D02*
X186595238Y-85754819D01*
X186595238Y-85754819D02*
X186309524Y-85754819D01*
X186309524Y-85754819D02*
X186214286Y-85707200D01*
X186214286Y-85707200D02*
X186166667Y-85659580D01*
X166559580Y-123016666D02*
X166607200Y-123064285D01*
X166607200Y-123064285D02*
X166654819Y-123207142D01*
X166654819Y-123207142D02*
X166654819Y-123302380D01*
X166654819Y-123302380D02*
X166607200Y-123445237D01*
X166607200Y-123445237D02*
X166511961Y-123540475D01*
X166511961Y-123540475D02*
X166416723Y-123588094D01*
X166416723Y-123588094D02*
X166226247Y-123635713D01*
X166226247Y-123635713D02*
X166083390Y-123635713D01*
X166083390Y-123635713D02*
X165892914Y-123588094D01*
X165892914Y-123588094D02*
X165797676Y-123540475D01*
X165797676Y-123540475D02*
X165702438Y-123445237D01*
X165702438Y-123445237D02*
X165654819Y-123302380D01*
X165654819Y-123302380D02*
X165654819Y-123207142D01*
X165654819Y-123207142D02*
X165702438Y-123064285D01*
X165702438Y-123064285D02*
X165750057Y-123016666D01*
X166654819Y-122064285D02*
X166654819Y-122635713D01*
X166654819Y-122349999D02*
X165654819Y-122349999D01*
X165654819Y-122349999D02*
X165797676Y-122445237D01*
X165797676Y-122445237D02*
X165892914Y-122540475D01*
X165892914Y-122540475D02*
X165940533Y-122635713D01*
X186238333Y-102284819D02*
X185905000Y-101808628D01*
X185666905Y-102284819D02*
X185666905Y-101284819D01*
X185666905Y-101284819D02*
X186047857Y-101284819D01*
X186047857Y-101284819D02*
X186143095Y-101332438D01*
X186143095Y-101332438D02*
X186190714Y-101380057D01*
X186190714Y-101380057D02*
X186238333Y-101475295D01*
X186238333Y-101475295D02*
X186238333Y-101618152D01*
X186238333Y-101618152D02*
X186190714Y-101713390D01*
X186190714Y-101713390D02*
X186143095Y-101761009D01*
X186143095Y-101761009D02*
X186047857Y-101808628D01*
X186047857Y-101808628D02*
X185666905Y-101808628D01*
X187190714Y-102284819D02*
X186619286Y-102284819D01*
X186905000Y-102284819D02*
X186905000Y-101284819D01*
X186905000Y-101284819D02*
X186809762Y-101427676D01*
X186809762Y-101427676D02*
X186714524Y-101522914D01*
X186714524Y-101522914D02*
X186619286Y-101570533D01*
X151833333Y-129269104D02*
X152309523Y-129269104D01*
X151738095Y-129554819D02*
X152071428Y-128554819D01*
X152071428Y-128554819D02*
X152404761Y-129554819D01*
X152738095Y-129031009D02*
X153071428Y-129031009D01*
X153214285Y-129554819D02*
X152738095Y-129554819D01*
X152738095Y-129554819D02*
X152738095Y-128554819D01*
X152738095Y-128554819D02*
X153214285Y-128554819D01*
X154166666Y-129554819D02*
X153595238Y-129554819D01*
X153880952Y-129554819D02*
X153880952Y-128554819D01*
X153880952Y-128554819D02*
X153785714Y-128697676D01*
X153785714Y-128697676D02*
X153690476Y-128792914D01*
X153690476Y-128792914D02*
X153595238Y-128840533D01*
X90454819Y-112911904D02*
X91264342Y-112911904D01*
X91264342Y-112911904D02*
X91359580Y-112864285D01*
X91359580Y-112864285D02*
X91407200Y-112816666D01*
X91407200Y-112816666D02*
X91454819Y-112721428D01*
X91454819Y-112721428D02*
X91454819Y-112530952D01*
X91454819Y-112530952D02*
X91407200Y-112435714D01*
X91407200Y-112435714D02*
X91359580Y-112388095D01*
X91359580Y-112388095D02*
X91264342Y-112340476D01*
X91264342Y-112340476D02*
X90454819Y-112340476D01*
X90454819Y-111959523D02*
X90454819Y-111340476D01*
X90454819Y-111340476D02*
X90835771Y-111673809D01*
X90835771Y-111673809D02*
X90835771Y-111530952D01*
X90835771Y-111530952D02*
X90883390Y-111435714D01*
X90883390Y-111435714D02*
X90931009Y-111388095D01*
X90931009Y-111388095D02*
X91026247Y-111340476D01*
X91026247Y-111340476D02*
X91264342Y-111340476D01*
X91264342Y-111340476D02*
X91359580Y-111388095D01*
X91359580Y-111388095D02*
X91407200Y-111435714D01*
X91407200Y-111435714D02*
X91454819Y-111530952D01*
X91454819Y-111530952D02*
X91454819Y-111816666D01*
X91454819Y-111816666D02*
X91407200Y-111911904D01*
X91407200Y-111911904D02*
X91359580Y-111959523D01*
X176004819Y-124916666D02*
X176004819Y-125392856D01*
X176004819Y-125392856D02*
X175004819Y-125392856D01*
X176004819Y-124059523D02*
X176004819Y-124630951D01*
X176004819Y-124345237D02*
X175004819Y-124345237D01*
X175004819Y-124345237D02*
X175147676Y-124440475D01*
X175147676Y-124440475D02*
X175242914Y-124535713D01*
X175242914Y-124535713D02*
X175290533Y-124630951D01*
X164838333Y-84274819D02*
X164505000Y-83798628D01*
X164266905Y-84274819D02*
X164266905Y-83274819D01*
X164266905Y-83274819D02*
X164647857Y-83274819D01*
X164647857Y-83274819D02*
X164743095Y-83322438D01*
X164743095Y-83322438D02*
X164790714Y-83370057D01*
X164790714Y-83370057D02*
X164838333Y-83465295D01*
X164838333Y-83465295D02*
X164838333Y-83608152D01*
X164838333Y-83608152D02*
X164790714Y-83703390D01*
X164790714Y-83703390D02*
X164743095Y-83751009D01*
X164743095Y-83751009D02*
X164647857Y-83798628D01*
X164647857Y-83798628D02*
X164266905Y-83798628D01*
X165695476Y-83608152D02*
X165695476Y-84274819D01*
X165457381Y-83227200D02*
X165219286Y-83941485D01*
X165219286Y-83941485D02*
X165838333Y-83941485D01*
X92396666Y-102134819D02*
X92396666Y-102849104D01*
X92396666Y-102849104D02*
X92349047Y-102991961D01*
X92349047Y-102991961D02*
X92253809Y-103087200D01*
X92253809Y-103087200D02*
X92110952Y-103134819D01*
X92110952Y-103134819D02*
X92015714Y-103134819D01*
X92825238Y-102230057D02*
X92872857Y-102182438D01*
X92872857Y-102182438D02*
X92968095Y-102134819D01*
X92968095Y-102134819D02*
X93206190Y-102134819D01*
X93206190Y-102134819D02*
X93301428Y-102182438D01*
X93301428Y-102182438D02*
X93349047Y-102230057D01*
X93349047Y-102230057D02*
X93396666Y-102325295D01*
X93396666Y-102325295D02*
X93396666Y-102420533D01*
X93396666Y-102420533D02*
X93349047Y-102563390D01*
X93349047Y-102563390D02*
X92777619Y-103134819D01*
X92777619Y-103134819D02*
X93396666Y-103134819D01*
X183988333Y-96869580D02*
X183940714Y-96917200D01*
X183940714Y-96917200D02*
X183797857Y-96964819D01*
X183797857Y-96964819D02*
X183702619Y-96964819D01*
X183702619Y-96964819D02*
X183559762Y-96917200D01*
X183559762Y-96917200D02*
X183464524Y-96821961D01*
X183464524Y-96821961D02*
X183416905Y-96726723D01*
X183416905Y-96726723D02*
X183369286Y-96536247D01*
X183369286Y-96536247D02*
X183369286Y-96393390D01*
X183369286Y-96393390D02*
X183416905Y-96202914D01*
X183416905Y-96202914D02*
X183464524Y-96107676D01*
X183464524Y-96107676D02*
X183559762Y-96012438D01*
X183559762Y-96012438D02*
X183702619Y-95964819D01*
X183702619Y-95964819D02*
X183797857Y-95964819D01*
X183797857Y-95964819D02*
X183940714Y-96012438D01*
X183940714Y-96012438D02*
X183988333Y-96060057D01*
X184845476Y-96298152D02*
X184845476Y-96964819D01*
X184607381Y-95917200D02*
X184369286Y-96631485D01*
X184369286Y-96631485D02*
X184988333Y-96631485D01*
X175619580Y-103511666D02*
X175667200Y-103559285D01*
X175667200Y-103559285D02*
X175714819Y-103702142D01*
X175714819Y-103702142D02*
X175714819Y-103797380D01*
X175714819Y-103797380D02*
X175667200Y-103940237D01*
X175667200Y-103940237D02*
X175571961Y-104035475D01*
X175571961Y-104035475D02*
X175476723Y-104083094D01*
X175476723Y-104083094D02*
X175286247Y-104130713D01*
X175286247Y-104130713D02*
X175143390Y-104130713D01*
X175143390Y-104130713D02*
X174952914Y-104083094D01*
X174952914Y-104083094D02*
X174857676Y-104035475D01*
X174857676Y-104035475D02*
X174762438Y-103940237D01*
X174762438Y-103940237D02*
X174714819Y-103797380D01*
X174714819Y-103797380D02*
X174714819Y-103702142D01*
X174714819Y-103702142D02*
X174762438Y-103559285D01*
X174762438Y-103559285D02*
X174810057Y-103511666D01*
X174810057Y-103130713D02*
X174762438Y-103083094D01*
X174762438Y-103083094D02*
X174714819Y-102987856D01*
X174714819Y-102987856D02*
X174714819Y-102749761D01*
X174714819Y-102749761D02*
X174762438Y-102654523D01*
X174762438Y-102654523D02*
X174810057Y-102606904D01*
X174810057Y-102606904D02*
X174905295Y-102559285D01*
X174905295Y-102559285D02*
X175000533Y-102559285D01*
X175000533Y-102559285D02*
X175143390Y-102606904D01*
X175143390Y-102606904D02*
X175714819Y-103178332D01*
X175714819Y-103178332D02*
X175714819Y-102559285D01*
X110123333Y-82119580D02*
X110075714Y-82167200D01*
X110075714Y-82167200D02*
X109932857Y-82214819D01*
X109932857Y-82214819D02*
X109837619Y-82214819D01*
X109837619Y-82214819D02*
X109694762Y-82167200D01*
X109694762Y-82167200D02*
X109599524Y-82071961D01*
X109599524Y-82071961D02*
X109551905Y-81976723D01*
X109551905Y-81976723D02*
X109504286Y-81786247D01*
X109504286Y-81786247D02*
X109504286Y-81643390D01*
X109504286Y-81643390D02*
X109551905Y-81452914D01*
X109551905Y-81452914D02*
X109599524Y-81357676D01*
X109599524Y-81357676D02*
X109694762Y-81262438D01*
X109694762Y-81262438D02*
X109837619Y-81214819D01*
X109837619Y-81214819D02*
X109932857Y-81214819D01*
X109932857Y-81214819D02*
X110075714Y-81262438D01*
X110075714Y-81262438D02*
X110123333Y-81310057D01*
X110980476Y-81214819D02*
X110790000Y-81214819D01*
X110790000Y-81214819D02*
X110694762Y-81262438D01*
X110694762Y-81262438D02*
X110647143Y-81310057D01*
X110647143Y-81310057D02*
X110551905Y-81452914D01*
X110551905Y-81452914D02*
X110504286Y-81643390D01*
X110504286Y-81643390D02*
X110504286Y-82024342D01*
X110504286Y-82024342D02*
X110551905Y-82119580D01*
X110551905Y-82119580D02*
X110599524Y-82167200D01*
X110599524Y-82167200D02*
X110694762Y-82214819D01*
X110694762Y-82214819D02*
X110885238Y-82214819D01*
X110885238Y-82214819D02*
X110980476Y-82167200D01*
X110980476Y-82167200D02*
X111028095Y-82119580D01*
X111028095Y-82119580D02*
X111075714Y-82024342D01*
X111075714Y-82024342D02*
X111075714Y-81786247D01*
X111075714Y-81786247D02*
X111028095Y-81691009D01*
X111028095Y-81691009D02*
X110980476Y-81643390D01*
X110980476Y-81643390D02*
X110885238Y-81595771D01*
X110885238Y-81595771D02*
X110694762Y-81595771D01*
X110694762Y-81595771D02*
X110599524Y-81643390D01*
X110599524Y-81643390D02*
X110551905Y-81691009D01*
X110551905Y-81691009D02*
X110504286Y-81786247D01*
X199954819Y-79020238D02*
X199478628Y-79353571D01*
X199954819Y-79591666D02*
X198954819Y-79591666D01*
X198954819Y-79591666D02*
X198954819Y-79210714D01*
X198954819Y-79210714D02*
X199002438Y-79115476D01*
X199002438Y-79115476D02*
X199050057Y-79067857D01*
X199050057Y-79067857D02*
X199145295Y-79020238D01*
X199145295Y-79020238D02*
X199288152Y-79020238D01*
X199288152Y-79020238D02*
X199383390Y-79067857D01*
X199383390Y-79067857D02*
X199431009Y-79115476D01*
X199431009Y-79115476D02*
X199478628Y-79210714D01*
X199478628Y-79210714D02*
X199478628Y-79591666D01*
X198954819Y-78734523D02*
X199954819Y-78401190D01*
X199954819Y-78401190D02*
X198954819Y-78067857D01*
X199954819Y-77210714D02*
X199954819Y-77782142D01*
X199954819Y-77496428D02*
X198954819Y-77496428D01*
X198954819Y-77496428D02*
X199097676Y-77591666D01*
X199097676Y-77591666D02*
X199192914Y-77686904D01*
X199192914Y-77686904D02*
X199240533Y-77782142D01*
X162829761Y-64954819D02*
X162496428Y-64478628D01*
X162258333Y-64954819D02*
X162258333Y-63954819D01*
X162258333Y-63954819D02*
X162639285Y-63954819D01*
X162639285Y-63954819D02*
X162734523Y-64002438D01*
X162734523Y-64002438D02*
X162782142Y-64050057D01*
X162782142Y-64050057D02*
X162829761Y-64145295D01*
X162829761Y-64145295D02*
X162829761Y-64288152D01*
X162829761Y-64288152D02*
X162782142Y-64383390D01*
X162782142Y-64383390D02*
X162734523Y-64431009D01*
X162734523Y-64431009D02*
X162639285Y-64478628D01*
X162639285Y-64478628D02*
X162258333Y-64478628D01*
X163115476Y-63954819D02*
X163448809Y-64954819D01*
X163448809Y-64954819D02*
X163782142Y-63954819D01*
X164067857Y-64050057D02*
X164115476Y-64002438D01*
X164115476Y-64002438D02*
X164210714Y-63954819D01*
X164210714Y-63954819D02*
X164448809Y-63954819D01*
X164448809Y-63954819D02*
X164544047Y-64002438D01*
X164544047Y-64002438D02*
X164591666Y-64050057D01*
X164591666Y-64050057D02*
X164639285Y-64145295D01*
X164639285Y-64145295D02*
X164639285Y-64240533D01*
X164639285Y-64240533D02*
X164591666Y-64383390D01*
X164591666Y-64383390D02*
X164020238Y-64954819D01*
X164020238Y-64954819D02*
X164639285Y-64954819D01*
X194068111Y-104903730D02*
X194878821Y-104903730D01*
X194878821Y-104903730D02*
X194974199Y-104856042D01*
X194974199Y-104856042D02*
X195021888Y-104808353D01*
X195021888Y-104808353D02*
X195069576Y-104712975D01*
X195069576Y-104712975D02*
X195069576Y-104522220D01*
X195069576Y-104522220D02*
X195021888Y-104426842D01*
X195021888Y-104426842D02*
X194974199Y-104379154D01*
X194974199Y-104379154D02*
X194878821Y-104331465D01*
X194878821Y-104331465D02*
X194068111Y-104331465D01*
X195069576Y-103330000D02*
X195069576Y-103902265D01*
X195069576Y-103616132D02*
X194068111Y-103616132D01*
X194068111Y-103616132D02*
X194211178Y-103711510D01*
X194211178Y-103711510D02*
X194306555Y-103806888D01*
X194306555Y-103806888D02*
X194354244Y-103902265D01*
X181488333Y-102284819D02*
X181155000Y-101808628D01*
X180916905Y-102284819D02*
X180916905Y-101284819D01*
X180916905Y-101284819D02*
X181297857Y-101284819D01*
X181297857Y-101284819D02*
X181393095Y-101332438D01*
X181393095Y-101332438D02*
X181440714Y-101380057D01*
X181440714Y-101380057D02*
X181488333Y-101475295D01*
X181488333Y-101475295D02*
X181488333Y-101618152D01*
X181488333Y-101618152D02*
X181440714Y-101713390D01*
X181440714Y-101713390D02*
X181393095Y-101761009D01*
X181393095Y-101761009D02*
X181297857Y-101808628D01*
X181297857Y-101808628D02*
X180916905Y-101808628D01*
X181869286Y-101380057D02*
X181916905Y-101332438D01*
X181916905Y-101332438D02*
X182012143Y-101284819D01*
X182012143Y-101284819D02*
X182250238Y-101284819D01*
X182250238Y-101284819D02*
X182345476Y-101332438D01*
X182345476Y-101332438D02*
X182393095Y-101380057D01*
X182393095Y-101380057D02*
X182440714Y-101475295D01*
X182440714Y-101475295D02*
X182440714Y-101570533D01*
X182440714Y-101570533D02*
X182393095Y-101713390D01*
X182393095Y-101713390D02*
X181821667Y-102284819D01*
X181821667Y-102284819D02*
X182440714Y-102284819D01*
X143554819Y-78983333D02*
X144269104Y-78983333D01*
X144269104Y-78983333D02*
X144411961Y-79030952D01*
X144411961Y-79030952D02*
X144507200Y-79126190D01*
X144507200Y-79126190D02*
X144554819Y-79269047D01*
X144554819Y-79269047D02*
X144554819Y-79364285D01*
X143554819Y-78602380D02*
X143554819Y-77983333D01*
X143554819Y-77983333D02*
X143935771Y-78316666D01*
X143935771Y-78316666D02*
X143935771Y-78173809D01*
X143935771Y-78173809D02*
X143983390Y-78078571D01*
X143983390Y-78078571D02*
X144031009Y-78030952D01*
X144031009Y-78030952D02*
X144126247Y-77983333D01*
X144126247Y-77983333D02*
X144364342Y-77983333D01*
X144364342Y-77983333D02*
X144459580Y-78030952D01*
X144459580Y-78030952D02*
X144507200Y-78078571D01*
X144507200Y-78078571D02*
X144554819Y-78173809D01*
X144554819Y-78173809D02*
X144554819Y-78459523D01*
X144554819Y-78459523D02*
X144507200Y-78554761D01*
X144507200Y-78554761D02*
X144459580Y-78602380D01*
X94261905Y-132154819D02*
X94261905Y-131154819D01*
X94261905Y-131154819D02*
X94642857Y-131154819D01*
X94642857Y-131154819D02*
X94738095Y-131202438D01*
X94738095Y-131202438D02*
X94785714Y-131250057D01*
X94785714Y-131250057D02*
X94833333Y-131345295D01*
X94833333Y-131345295D02*
X94833333Y-131488152D01*
X94833333Y-131488152D02*
X94785714Y-131583390D01*
X94785714Y-131583390D02*
X94738095Y-131631009D01*
X94738095Y-131631009D02*
X94642857Y-131678628D01*
X94642857Y-131678628D02*
X94261905Y-131678628D01*
X95833333Y-132059580D02*
X95785714Y-132107200D01*
X95785714Y-132107200D02*
X95642857Y-132154819D01*
X95642857Y-132154819D02*
X95547619Y-132154819D01*
X95547619Y-132154819D02*
X95404762Y-132107200D01*
X95404762Y-132107200D02*
X95309524Y-132011961D01*
X95309524Y-132011961D02*
X95261905Y-131916723D01*
X95261905Y-131916723D02*
X95214286Y-131726247D01*
X95214286Y-131726247D02*
X95214286Y-131583390D01*
X95214286Y-131583390D02*
X95261905Y-131392914D01*
X95261905Y-131392914D02*
X95309524Y-131297676D01*
X95309524Y-131297676D02*
X95404762Y-131202438D01*
X95404762Y-131202438D02*
X95547619Y-131154819D01*
X95547619Y-131154819D02*
X95642857Y-131154819D01*
X95642857Y-131154819D02*
X95785714Y-131202438D01*
X95785714Y-131202438D02*
X95833333Y-131250057D01*
X96785714Y-132154819D02*
X96214286Y-132154819D01*
X96500000Y-132154819D02*
X96500000Y-131154819D01*
X96500000Y-131154819D02*
X96404762Y-131297676D01*
X96404762Y-131297676D02*
X96309524Y-131392914D01*
X96309524Y-131392914D02*
X96214286Y-131440533D01*
X171004819Y-111938094D02*
X170004819Y-111938094D01*
X170004819Y-111938094D02*
X170004819Y-111699999D01*
X170004819Y-111699999D02*
X170052438Y-111557142D01*
X170052438Y-111557142D02*
X170147676Y-111461904D01*
X170147676Y-111461904D02*
X170242914Y-111414285D01*
X170242914Y-111414285D02*
X170433390Y-111366666D01*
X170433390Y-111366666D02*
X170576247Y-111366666D01*
X170576247Y-111366666D02*
X170766723Y-111414285D01*
X170766723Y-111414285D02*
X170861961Y-111461904D01*
X170861961Y-111461904D02*
X170957200Y-111557142D01*
X170957200Y-111557142D02*
X171004819Y-111699999D01*
X171004819Y-111699999D02*
X171004819Y-111938094D01*
X171004819Y-110414285D02*
X171004819Y-110985713D01*
X171004819Y-110699999D02*
X170004819Y-110699999D01*
X170004819Y-110699999D02*
X170147676Y-110795237D01*
X170147676Y-110795237D02*
X170242914Y-110890475D01*
X170242914Y-110890475D02*
X170290533Y-110985713D01*
X119526458Y-83643913D02*
X119478839Y-83691533D01*
X119478839Y-83691533D02*
X119335982Y-83739152D01*
X119335982Y-83739152D02*
X119240744Y-83739152D01*
X119240744Y-83739152D02*
X119097887Y-83691533D01*
X119097887Y-83691533D02*
X119002649Y-83596294D01*
X119002649Y-83596294D02*
X118955030Y-83501056D01*
X118955030Y-83501056D02*
X118907411Y-83310580D01*
X118907411Y-83310580D02*
X118907411Y-83167723D01*
X118907411Y-83167723D02*
X118955030Y-82977247D01*
X118955030Y-82977247D02*
X119002649Y-82882009D01*
X119002649Y-82882009D02*
X119097887Y-82786771D01*
X119097887Y-82786771D02*
X119240744Y-82739152D01*
X119240744Y-82739152D02*
X119335982Y-82739152D01*
X119335982Y-82739152D02*
X119478839Y-82786771D01*
X119478839Y-82786771D02*
X119526458Y-82834390D01*
X120431220Y-82739152D02*
X119955030Y-82739152D01*
X119955030Y-82739152D02*
X119907411Y-83215342D01*
X119907411Y-83215342D02*
X119955030Y-83167723D01*
X119955030Y-83167723D02*
X120050268Y-83120104D01*
X120050268Y-83120104D02*
X120288363Y-83120104D01*
X120288363Y-83120104D02*
X120383601Y-83167723D01*
X120383601Y-83167723D02*
X120431220Y-83215342D01*
X120431220Y-83215342D02*
X120478839Y-83310580D01*
X120478839Y-83310580D02*
X120478839Y-83548675D01*
X120478839Y-83548675D02*
X120431220Y-83643913D01*
X120431220Y-83643913D02*
X120383601Y-83691533D01*
X120383601Y-83691533D02*
X120288363Y-83739152D01*
X120288363Y-83739152D02*
X120050268Y-83739152D01*
X120050268Y-83739152D02*
X119955030Y-83691533D01*
X119955030Y-83691533D02*
X119907411Y-83643913D01*
X192789762Y-87672200D02*
X192932619Y-87719819D01*
X192932619Y-87719819D02*
X193170714Y-87719819D01*
X193170714Y-87719819D02*
X193265952Y-87672200D01*
X193265952Y-87672200D02*
X193313571Y-87624580D01*
X193313571Y-87624580D02*
X193361190Y-87529342D01*
X193361190Y-87529342D02*
X193361190Y-87434104D01*
X193361190Y-87434104D02*
X193313571Y-87338866D01*
X193313571Y-87338866D02*
X193265952Y-87291247D01*
X193265952Y-87291247D02*
X193170714Y-87243628D01*
X193170714Y-87243628D02*
X192980238Y-87196009D01*
X192980238Y-87196009D02*
X192885000Y-87148390D01*
X192885000Y-87148390D02*
X192837381Y-87100771D01*
X192837381Y-87100771D02*
X192789762Y-87005533D01*
X192789762Y-87005533D02*
X192789762Y-86910295D01*
X192789762Y-86910295D02*
X192837381Y-86815057D01*
X192837381Y-86815057D02*
X192885000Y-86767438D01*
X192885000Y-86767438D02*
X192980238Y-86719819D01*
X192980238Y-86719819D02*
X193218333Y-86719819D01*
X193218333Y-86719819D02*
X193361190Y-86767438D01*
X193646905Y-86719819D02*
X194218333Y-86719819D01*
X193932619Y-87719819D02*
X193932619Y-86719819D01*
X195075476Y-87719819D02*
X194504048Y-87719819D01*
X194789762Y-87719819D02*
X194789762Y-86719819D01*
X194789762Y-86719819D02*
X194694524Y-86862676D01*
X194694524Y-86862676D02*
X194599286Y-86957914D01*
X194599286Y-86957914D02*
X194504048Y-87005533D01*
X195408810Y-86719819D02*
X196075476Y-86719819D01*
X196075476Y-86719819D02*
X195646905Y-87719819D01*
X196980238Y-87719819D02*
X196408810Y-87719819D01*
X196694524Y-87719819D02*
X196694524Y-86719819D01*
X196694524Y-86719819D02*
X196599286Y-86862676D01*
X196599286Y-86862676D02*
X196504048Y-86957914D01*
X196504048Y-86957914D02*
X196408810Y-87005533D01*
X116523809Y-76228628D02*
X116523809Y-76704819D01*
X116190476Y-75704819D02*
X116523809Y-76228628D01*
X116523809Y-76228628D02*
X116857142Y-75704819D01*
X117714285Y-76704819D02*
X117142857Y-76704819D01*
X117428571Y-76704819D02*
X117428571Y-75704819D01*
X117428571Y-75704819D02*
X117333333Y-75847676D01*
X117333333Y-75847676D02*
X117238095Y-75942914D01*
X117238095Y-75942914D02*
X117142857Y-75990533D01*
X138944819Y-89951904D02*
X139754342Y-89951904D01*
X139754342Y-89951904D02*
X139849580Y-89904285D01*
X139849580Y-89904285D02*
X139897200Y-89856666D01*
X139897200Y-89856666D02*
X139944819Y-89761428D01*
X139944819Y-89761428D02*
X139944819Y-89570952D01*
X139944819Y-89570952D02*
X139897200Y-89475714D01*
X139897200Y-89475714D02*
X139849580Y-89428095D01*
X139849580Y-89428095D02*
X139754342Y-89380476D01*
X139754342Y-89380476D02*
X138944819Y-89380476D01*
X139040057Y-88951904D02*
X138992438Y-88904285D01*
X138992438Y-88904285D02*
X138944819Y-88809047D01*
X138944819Y-88809047D02*
X138944819Y-88570952D01*
X138944819Y-88570952D02*
X138992438Y-88475714D01*
X138992438Y-88475714D02*
X139040057Y-88428095D01*
X139040057Y-88428095D02*
X139135295Y-88380476D01*
X139135295Y-88380476D02*
X139230533Y-88380476D01*
X139230533Y-88380476D02*
X139373390Y-88428095D01*
X139373390Y-88428095D02*
X139944819Y-88999523D01*
X139944819Y-88999523D02*
X139944819Y-88380476D01*
X93761905Y-124904819D02*
X93761905Y-123904819D01*
X93761905Y-123904819D02*
X94142857Y-123904819D01*
X94142857Y-123904819D02*
X94238095Y-123952438D01*
X94238095Y-123952438D02*
X94285714Y-124000057D01*
X94285714Y-124000057D02*
X94333333Y-124095295D01*
X94333333Y-124095295D02*
X94333333Y-124238152D01*
X94333333Y-124238152D02*
X94285714Y-124333390D01*
X94285714Y-124333390D02*
X94238095Y-124381009D01*
X94238095Y-124381009D02*
X94142857Y-124428628D01*
X94142857Y-124428628D02*
X93761905Y-124428628D01*
X95333333Y-124809580D02*
X95285714Y-124857200D01*
X95285714Y-124857200D02*
X95142857Y-124904819D01*
X95142857Y-124904819D02*
X95047619Y-124904819D01*
X95047619Y-124904819D02*
X94904762Y-124857200D01*
X94904762Y-124857200D02*
X94809524Y-124761961D01*
X94809524Y-124761961D02*
X94761905Y-124666723D01*
X94761905Y-124666723D02*
X94714286Y-124476247D01*
X94714286Y-124476247D02*
X94714286Y-124333390D01*
X94714286Y-124333390D02*
X94761905Y-124142914D01*
X94761905Y-124142914D02*
X94809524Y-124047676D01*
X94809524Y-124047676D02*
X94904762Y-123952438D01*
X94904762Y-123952438D02*
X95047619Y-123904819D01*
X95047619Y-123904819D02*
X95142857Y-123904819D01*
X95142857Y-123904819D02*
X95285714Y-123952438D01*
X95285714Y-123952438D02*
X95333333Y-124000057D01*
X95714286Y-124000057D02*
X95761905Y-123952438D01*
X95761905Y-123952438D02*
X95857143Y-123904819D01*
X95857143Y-123904819D02*
X96095238Y-123904819D01*
X96095238Y-123904819D02*
X96190476Y-123952438D01*
X96190476Y-123952438D02*
X96238095Y-124000057D01*
X96238095Y-124000057D02*
X96285714Y-124095295D01*
X96285714Y-124095295D02*
X96285714Y-124190533D01*
X96285714Y-124190533D02*
X96238095Y-124333390D01*
X96238095Y-124333390D02*
X95666667Y-124904819D01*
X95666667Y-124904819D02*
X96285714Y-124904819D01*
X119431905Y-111234819D02*
X119431905Y-110234819D01*
X119431905Y-110234819D02*
X119670000Y-110234819D01*
X119670000Y-110234819D02*
X119812857Y-110282438D01*
X119812857Y-110282438D02*
X119908095Y-110377676D01*
X119908095Y-110377676D02*
X119955714Y-110472914D01*
X119955714Y-110472914D02*
X120003333Y-110663390D01*
X120003333Y-110663390D02*
X120003333Y-110806247D01*
X120003333Y-110806247D02*
X119955714Y-110996723D01*
X119955714Y-110996723D02*
X119908095Y-111091961D01*
X119908095Y-111091961D02*
X119812857Y-111187200D01*
X119812857Y-111187200D02*
X119670000Y-111234819D01*
X119670000Y-111234819D02*
X119431905Y-111234819D01*
X120384286Y-110330057D02*
X120431905Y-110282438D01*
X120431905Y-110282438D02*
X120527143Y-110234819D01*
X120527143Y-110234819D02*
X120765238Y-110234819D01*
X120765238Y-110234819D02*
X120860476Y-110282438D01*
X120860476Y-110282438D02*
X120908095Y-110330057D01*
X120908095Y-110330057D02*
X120955714Y-110425295D01*
X120955714Y-110425295D02*
X120955714Y-110520533D01*
X120955714Y-110520533D02*
X120908095Y-110663390D01*
X120908095Y-110663390D02*
X120336667Y-111234819D01*
X120336667Y-111234819D02*
X120955714Y-111234819D01*
X114828095Y-111604819D02*
X114828095Y-110604819D01*
X115399523Y-111604819D02*
X114970952Y-111033390D01*
X115399523Y-110604819D02*
X114828095Y-111176247D01*
X113572493Y-120004819D02*
X113572493Y-120719104D01*
X113572493Y-120719104D02*
X113524874Y-120861961D01*
X113524874Y-120861961D02*
X113429636Y-120957200D01*
X113429636Y-120957200D02*
X113286779Y-121004819D01*
X113286779Y-121004819D02*
X113191541Y-121004819D01*
X114572493Y-121004819D02*
X114001065Y-121004819D01*
X114286779Y-121004819D02*
X114286779Y-120004819D01*
X114286779Y-120004819D02*
X114191541Y-120147676D01*
X114191541Y-120147676D02*
X114096303Y-120242914D01*
X114096303Y-120242914D02*
X114001065Y-120290533D01*
X120123333Y-95119580D02*
X120075714Y-95167200D01*
X120075714Y-95167200D02*
X119932857Y-95214819D01*
X119932857Y-95214819D02*
X119837619Y-95214819D01*
X119837619Y-95214819D02*
X119694762Y-95167200D01*
X119694762Y-95167200D02*
X119599524Y-95071961D01*
X119599524Y-95071961D02*
X119551905Y-94976723D01*
X119551905Y-94976723D02*
X119504286Y-94786247D01*
X119504286Y-94786247D02*
X119504286Y-94643390D01*
X119504286Y-94643390D02*
X119551905Y-94452914D01*
X119551905Y-94452914D02*
X119599524Y-94357676D01*
X119599524Y-94357676D02*
X119694762Y-94262438D01*
X119694762Y-94262438D02*
X119837619Y-94214819D01*
X119837619Y-94214819D02*
X119932857Y-94214819D01*
X119932857Y-94214819D02*
X120075714Y-94262438D01*
X120075714Y-94262438D02*
X120123333Y-94310057D01*
X120456667Y-94214819D02*
X121075714Y-94214819D01*
X121075714Y-94214819D02*
X120742381Y-94595771D01*
X120742381Y-94595771D02*
X120885238Y-94595771D01*
X120885238Y-94595771D02*
X120980476Y-94643390D01*
X120980476Y-94643390D02*
X121028095Y-94691009D01*
X121028095Y-94691009D02*
X121075714Y-94786247D01*
X121075714Y-94786247D02*
X121075714Y-95024342D01*
X121075714Y-95024342D02*
X121028095Y-95119580D01*
X121028095Y-95119580D02*
X120980476Y-95167200D01*
X120980476Y-95167200D02*
X120885238Y-95214819D01*
X120885238Y-95214819D02*
X120599524Y-95214819D01*
X120599524Y-95214819D02*
X120504286Y-95167200D01*
X120504286Y-95167200D02*
X120456667Y-95119580D01*
D11*
%TO.C,SW2*%
X127780000Y-133770000D02*
X127780000Y-134770000D01*
X128030000Y-124480000D02*
X128030000Y-134520000D01*
X128780000Y-134770000D02*
X127780000Y-134770000D01*
X131050000Y-127900000D02*
X131050000Y-131200000D01*
X131050000Y-127900000D02*
X134350000Y-127900000D01*
X131050000Y-131200000D02*
X134350000Y-131200000D01*
X134350000Y-127900000D02*
X134350000Y-131200000D01*
X137470000Y-124480000D02*
X128030000Y-124480000D01*
X137470000Y-124480000D02*
X137470000Y-134520000D01*
X137470000Y-134520000D02*
X128030000Y-134520000D01*
%TO.C,PC3*%
X183125000Y-86565000D02*
X183500000Y-86565000D01*
X183312500Y-86377500D02*
X183312500Y-86752500D01*
X183929437Y-86940000D02*
X184629437Y-86240000D01*
X183929437Y-89060000D02*
X184629437Y-89760000D01*
X184629437Y-86240000D02*
X187260000Y-86240000D01*
X184629437Y-89760000D02*
X187260000Y-89760000D01*
X187260000Y-86240000D02*
X187260000Y-86940000D01*
X187260000Y-89760000D02*
X187260000Y-89060000D01*
%TO.C,C1*%
X167350000Y-121800000D02*
X167350000Y-122300000D01*
X167350000Y-121800000D02*
X167850000Y-121800000D01*
X167350000Y-123900000D02*
X167350000Y-123400000D01*
X167350000Y-123900000D02*
X167850000Y-123900000D01*
X169150000Y-121800000D02*
X168650000Y-121800000D01*
X169150000Y-121800000D02*
X169150000Y-122300000D01*
X169150000Y-123900000D02*
X168650000Y-123900000D01*
X169150000Y-123900000D02*
X169150000Y-123400000D01*
%TO.C,R1*%
X186251359Y-102620000D02*
X186558641Y-102620000D01*
X186251359Y-103380000D02*
X186558641Y-103380000D01*
%TO.C,U3*%
X92090000Y-110240000D02*
X93350000Y-110240000D01*
X92090000Y-114000000D02*
X92090000Y-110240000D01*
X98910000Y-110240000D02*
X97650000Y-110240000D01*
X98910000Y-114000000D02*
X98910000Y-110240000D01*
X92190000Y-115280000D02*
X91860000Y-115520000D01*
X91860000Y-115040000D01*
X92190000Y-115280000D01*
G36*
X92190000Y-115280000D02*
G01*
X91860000Y-115520000D01*
X91860000Y-115040000D01*
X92190000Y-115280000D01*
G37*
%TO.C,L1*%
X176800000Y-121450000D02*
X178500000Y-121450000D01*
X176800000Y-128050000D02*
X176800000Y-121450000D01*
X178500000Y-128050000D02*
X176800000Y-128050000D01*
X181500000Y-121450000D02*
X183200000Y-121450000D01*
X183200000Y-121450000D02*
X183200000Y-128050000D01*
X183200000Y-128050000D02*
X181500000Y-128050000D01*
%TO.C,R4*%
X165158641Y-82270000D02*
X164851359Y-82270000D01*
X165158641Y-83030000D02*
X164851359Y-83030000D01*
%TO.C,J2*%
X88170000Y-86290000D02*
X97290000Y-86290000D01*
X88170000Y-101790000D02*
X88170000Y-86290000D01*
X89480000Y-87590000D02*
X95980000Y-87590000D01*
X89480000Y-100490000D02*
X89480000Y-87590000D01*
X95980000Y-87590000D02*
X95980000Y-91990000D01*
X95980000Y-91990000D02*
X95980000Y-91990000D01*
X95980000Y-91990000D02*
X97290000Y-91990000D01*
X95980000Y-96090000D02*
X95980000Y-100490000D01*
X95980000Y-100490000D02*
X89480000Y-100490000D01*
X97290000Y-86290000D02*
X97290000Y-101790000D01*
X97290000Y-96090000D02*
X95980000Y-96090000D01*
X97290000Y-101790000D02*
X88170000Y-101790000D01*
X97680000Y-96580000D02*
X98680000Y-97080000D01*
X98680000Y-96080000D02*
X97680000Y-96580000D01*
X98680000Y-97080000D02*
X98680000Y-96080000D01*
%TO.C,RV1*%
X191630000Y-75591000D02*
X191630000Y-81795000D01*
X193760000Y-81795000D02*
X191630000Y-81795000D01*
X195909000Y-75055000D02*
X194090000Y-75055000D01*
X198371000Y-75591000D02*
X198371000Y-81795000D01*
X198371000Y-81795000D02*
X196240000Y-81795000D01*
%TO.C,RV2*%
X160055000Y-68091000D02*
X160055000Y-69910000D01*
X160591000Y-65629000D02*
X166795000Y-65629000D01*
X160591000Y-72370000D02*
X166795000Y-72370000D01*
X166795000Y-65629000D02*
X166795000Y-67760000D01*
X166795000Y-70240000D02*
X166795000Y-72370000D01*
D12*
%TO.C,U1*%
X192710000Y-105420000D02*
X192710000Y-115580000D01*
X192710000Y-105420000D02*
X193726000Y-105420000D01*
X193726000Y-105420000D02*
X194234000Y-105420000D01*
X197790000Y-105420000D02*
X193726000Y-105420000D01*
X197790000Y-105420000D02*
X197790000Y-115580000D01*
X197790000Y-115580000D02*
X192710000Y-115580000D01*
D13*
X194698400Y-106690000D02*
G75*
G02*
X193261600Y-106690000I-718400J0D01*
G01*
X193261600Y-106690000D02*
G75*
G02*
X194698400Y-106690000I718400J0D01*
G01*
D11*
%TO.C,R2*%
X181501359Y-102620000D02*
X181808641Y-102620000D01*
X181501359Y-103380000D02*
X181808641Y-103380000D01*
%TO.C,J3*%
X145540000Y-77590000D02*
X146600000Y-77590000D01*
X145540000Y-78650000D02*
X145540000Y-77590000D01*
X147600000Y-77590000D02*
X177660000Y-77590000D01*
X147600000Y-79710000D02*
X147600000Y-77590000D01*
X147600000Y-79710000D02*
X177660000Y-79710000D01*
X177660000Y-79710000D02*
X177660000Y-77590000D01*
%TO.C,PC1*%
X93740000Y-127240000D02*
X93740000Y-127940000D01*
X93740000Y-130760000D02*
X93740000Y-130060000D01*
X96370563Y-127240000D02*
X93740000Y-127240000D01*
X96370563Y-130760000D02*
X93740000Y-130760000D01*
X97070563Y-127940000D02*
X96370563Y-127240000D01*
X97070563Y-130060000D02*
X96370563Y-130760000D01*
X97687500Y-130622500D02*
X97687500Y-130247500D01*
X97875000Y-130435000D02*
X97500000Y-130435000D01*
%TO.C,D1*%
X168650000Y-111900000D02*
X168650000Y-109940000D01*
X169850000Y-109940000D02*
X168650000Y-109940000D01*
X169850000Y-111900000D02*
X169850000Y-109940000D01*
D14*
%TO.C,ST171*%
X200346000Y-94250000D02*
G75*
G02*
X188154000Y-94250000I-6096000J0D01*
G01*
X188154000Y-94250000D02*
G75*
G02*
X200346000Y-94250000I6096000J0D01*
G01*
D11*
%TO.C,Y1*%
X112030000Y-69550000D02*
X112030000Y-80450000D01*
X112030000Y-80450000D02*
X115430000Y-80450000D01*
X112460000Y-81850000D02*
X112460000Y-82550000D01*
X113130000Y-80450000D02*
X112460000Y-81850000D01*
X114330000Y-80450000D02*
X115000000Y-81850000D01*
X115000000Y-81850000D02*
X115000000Y-82550000D01*
X115430000Y-69550000D02*
X112030000Y-69550000D01*
X115430000Y-80450000D02*
X115430000Y-69550000D01*
%TO.C,U2*%
X102810000Y-86540000D02*
X102810000Y-91840000D01*
X102810000Y-91840000D02*
X138490000Y-91840000D01*
X138490000Y-86540000D02*
X102810000Y-86540000D01*
X138490000Y-88190000D02*
X138490000Y-86540000D01*
X138490000Y-91840000D02*
X138490000Y-90190000D01*
X138490000Y-90190000D02*
G75*
G02*
X138490000Y-88190000I0J1000000D01*
G01*
%TO.C,PC2*%
X93240000Y-119990000D02*
X93240000Y-120690000D01*
X93240000Y-123510000D02*
X93240000Y-122810000D01*
X95870563Y-119990000D02*
X93240000Y-119990000D01*
X95870563Y-123510000D02*
X93240000Y-123510000D01*
X96570563Y-120690000D02*
X95870563Y-119990000D01*
X96570563Y-122810000D02*
X95870563Y-123510000D01*
X97187500Y-123372500D02*
X97187500Y-122997500D01*
X97375000Y-123185000D02*
X97000000Y-123185000D01*
%TO.C,D2*%
X116430000Y-113250000D02*
X117450000Y-113250000D01*
X117450000Y-111780000D02*
X117450000Y-114720000D01*
X117450000Y-114720000D02*
X122890000Y-114720000D01*
X118230000Y-111780000D02*
X118230000Y-114720000D01*
X118350000Y-111780000D02*
X118350000Y-114720000D01*
X118470000Y-111780000D02*
X118470000Y-114720000D01*
X122890000Y-111780000D02*
X117450000Y-111780000D01*
X122890000Y-114720000D02*
X122890000Y-111780000D01*
X123910000Y-113250000D02*
X122890000Y-113250000D01*
%TO.C,J1*%
X112950000Y-128750000D02*
X112950000Y-121650000D01*
X113450000Y-121650000D02*
X112950000Y-121650000D01*
X118750000Y-121650000D02*
X115050000Y-121650000D01*
X121550000Y-121650000D02*
X120350000Y-121650000D01*
X123650000Y-128750000D02*
X123650000Y-124950000D01*
X123950000Y-121350000D02*
X122950000Y-121350000D01*
X123950000Y-121350000D02*
X123950000Y-122350000D01*
%TD*%
M02*
