%TF.GenerationSoftware,KiCad,Pcbnew,8.0.4*%
%TF.CreationDate,2025-05-14T15:51:55-04:00*%
%TF.ProjectId,am-receiver,616d2d72-6563-4656-9976-65722e6b6963,rev?*%
%TF.SameCoordinates,Original*%
%TF.FileFunction,Legend,Bot*%
%TF.FilePolarity,Positive*%
%FSLAX46Y46*%
G04 Gerber Fmt 4.6, Leading zero omitted, Abs format (unit mm)*
G04 Created by KiCad (PCBNEW 8.0.4) date 2025-05-14 15:51:55*
%MOMM*%
%LPD*%
G01*
G04 APERTURE LIST*
%ADD10C,0.300000*%
G04 APERTURE END LIST*
D10*
X100945489Y-68300828D02*
X100945489Y-66800828D01*
X100945489Y-66800828D02*
X100588346Y-66800828D01*
X100588346Y-66800828D02*
X100374060Y-66872257D01*
X100374060Y-66872257D02*
X100231203Y-67015114D01*
X100231203Y-67015114D02*
X100159774Y-67157971D01*
X100159774Y-67157971D02*
X100088346Y-67443685D01*
X100088346Y-67443685D02*
X100088346Y-67657971D01*
X100088346Y-67657971D02*
X100159774Y-67943685D01*
X100159774Y-67943685D02*
X100231203Y-68086542D01*
X100231203Y-68086542D02*
X100374060Y-68229400D01*
X100374060Y-68229400D02*
X100588346Y-68300828D01*
X100588346Y-68300828D02*
X100945489Y-68300828D01*
X99445489Y-68300828D02*
X99445489Y-67300828D01*
X99445489Y-66800828D02*
X99516917Y-66872257D01*
X99516917Y-66872257D02*
X99445489Y-66943685D01*
X99445489Y-66943685D02*
X99374060Y-66872257D01*
X99374060Y-66872257D02*
X99445489Y-66800828D01*
X99445489Y-66800828D02*
X99445489Y-66943685D01*
X98088346Y-67300828D02*
X98088346Y-68515114D01*
X98088346Y-68515114D02*
X98159774Y-68657971D01*
X98159774Y-68657971D02*
X98231203Y-68729400D01*
X98231203Y-68729400D02*
X98374060Y-68800828D01*
X98374060Y-68800828D02*
X98588346Y-68800828D01*
X98588346Y-68800828D02*
X98731203Y-68729400D01*
X98088346Y-68229400D02*
X98231203Y-68300828D01*
X98231203Y-68300828D02*
X98516917Y-68300828D01*
X98516917Y-68300828D02*
X98659774Y-68229400D01*
X98659774Y-68229400D02*
X98731203Y-68157971D01*
X98731203Y-68157971D02*
X98802631Y-68015114D01*
X98802631Y-68015114D02*
X98802631Y-67586542D01*
X98802631Y-67586542D02*
X98731203Y-67443685D01*
X98731203Y-67443685D02*
X98659774Y-67372257D01*
X98659774Y-67372257D02*
X98516917Y-67300828D01*
X98516917Y-67300828D02*
X98231203Y-67300828D01*
X98231203Y-67300828D02*
X98088346Y-67372257D01*
X97374060Y-68300828D02*
X97374060Y-67300828D01*
X97374060Y-66800828D02*
X97445488Y-66872257D01*
X97445488Y-66872257D02*
X97374060Y-66943685D01*
X97374060Y-66943685D02*
X97302631Y-66872257D01*
X97302631Y-66872257D02*
X97374060Y-66800828D01*
X97374060Y-66800828D02*
X97374060Y-66943685D01*
X96874059Y-67300828D02*
X96302631Y-67300828D01*
X96659774Y-66800828D02*
X96659774Y-68086542D01*
X96659774Y-68086542D02*
X96588345Y-68229400D01*
X96588345Y-68229400D02*
X96445488Y-68300828D01*
X96445488Y-68300828D02*
X96302631Y-68300828D01*
X95159774Y-68300828D02*
X95159774Y-67515114D01*
X95159774Y-67515114D02*
X95231202Y-67372257D01*
X95231202Y-67372257D02*
X95374059Y-67300828D01*
X95374059Y-67300828D02*
X95659774Y-67300828D01*
X95659774Y-67300828D02*
X95802631Y-67372257D01*
X95159774Y-68229400D02*
X95302631Y-68300828D01*
X95302631Y-68300828D02*
X95659774Y-68300828D01*
X95659774Y-68300828D02*
X95802631Y-68229400D01*
X95802631Y-68229400D02*
X95874059Y-68086542D01*
X95874059Y-68086542D02*
X95874059Y-67943685D01*
X95874059Y-67943685D02*
X95802631Y-67800828D01*
X95802631Y-67800828D02*
X95659774Y-67729400D01*
X95659774Y-67729400D02*
X95302631Y-67729400D01*
X95302631Y-67729400D02*
X95159774Y-67657971D01*
X94231202Y-68300828D02*
X94374059Y-68229400D01*
X94374059Y-68229400D02*
X94445488Y-68086542D01*
X94445488Y-68086542D02*
X94445488Y-66800828D01*
X91731202Y-66872257D02*
X91874060Y-66800828D01*
X91874060Y-66800828D02*
X92088345Y-66800828D01*
X92088345Y-66800828D02*
X92302631Y-66872257D01*
X92302631Y-66872257D02*
X92445488Y-67015114D01*
X92445488Y-67015114D02*
X92516917Y-67157971D01*
X92516917Y-67157971D02*
X92588345Y-67443685D01*
X92588345Y-67443685D02*
X92588345Y-67657971D01*
X92588345Y-67657971D02*
X92516917Y-67943685D01*
X92516917Y-67943685D02*
X92445488Y-68086542D01*
X92445488Y-68086542D02*
X92302631Y-68229400D01*
X92302631Y-68229400D02*
X92088345Y-68300828D01*
X92088345Y-68300828D02*
X91945488Y-68300828D01*
X91945488Y-68300828D02*
X91731202Y-68229400D01*
X91731202Y-68229400D02*
X91659774Y-68157971D01*
X91659774Y-68157971D02*
X91659774Y-67657971D01*
X91659774Y-67657971D02*
X91945488Y-67657971D01*
X91016917Y-68300828D02*
X91016917Y-66800828D01*
X91016917Y-66800828D02*
X90159774Y-68300828D01*
X90159774Y-68300828D02*
X90159774Y-66800828D01*
X89445488Y-68300828D02*
X89445488Y-66800828D01*
X89445488Y-66800828D02*
X89088345Y-66800828D01*
X89088345Y-66800828D02*
X88874059Y-66872257D01*
X88874059Y-66872257D02*
X88731202Y-67015114D01*
X88731202Y-67015114D02*
X88659773Y-67157971D01*
X88659773Y-67157971D02*
X88588345Y-67443685D01*
X88588345Y-67443685D02*
X88588345Y-67657971D01*
X88588345Y-67657971D02*
X88659773Y-67943685D01*
X88659773Y-67943685D02*
X88731202Y-68086542D01*
X88731202Y-68086542D02*
X88874059Y-68229400D01*
X88874059Y-68229400D02*
X89088345Y-68300828D01*
X89088345Y-68300828D02*
X89445488Y-68300828D01*
X193088346Y-138050828D02*
X193588346Y-137336542D01*
X193945489Y-138050828D02*
X193945489Y-136550828D01*
X193945489Y-136550828D02*
X193374060Y-136550828D01*
X193374060Y-136550828D02*
X193231203Y-136622257D01*
X193231203Y-136622257D02*
X193159774Y-136693685D01*
X193159774Y-136693685D02*
X193088346Y-136836542D01*
X193088346Y-136836542D02*
X193088346Y-137050828D01*
X193088346Y-137050828D02*
X193159774Y-137193685D01*
X193159774Y-137193685D02*
X193231203Y-137265114D01*
X193231203Y-137265114D02*
X193374060Y-137336542D01*
X193374060Y-137336542D02*
X193945489Y-137336542D01*
X191945489Y-137265114D02*
X192445489Y-137265114D01*
X192445489Y-138050828D02*
X192445489Y-136550828D01*
X192445489Y-136550828D02*
X191731203Y-136550828D01*
X189231203Y-136622257D02*
X189374061Y-136550828D01*
X189374061Y-136550828D02*
X189588346Y-136550828D01*
X189588346Y-136550828D02*
X189802632Y-136622257D01*
X189802632Y-136622257D02*
X189945489Y-136765114D01*
X189945489Y-136765114D02*
X190016918Y-136907971D01*
X190016918Y-136907971D02*
X190088346Y-137193685D01*
X190088346Y-137193685D02*
X190088346Y-137407971D01*
X190088346Y-137407971D02*
X190016918Y-137693685D01*
X190016918Y-137693685D02*
X189945489Y-137836542D01*
X189945489Y-137836542D02*
X189802632Y-137979400D01*
X189802632Y-137979400D02*
X189588346Y-138050828D01*
X189588346Y-138050828D02*
X189445489Y-138050828D01*
X189445489Y-138050828D02*
X189231203Y-137979400D01*
X189231203Y-137979400D02*
X189159775Y-137907971D01*
X189159775Y-137907971D02*
X189159775Y-137407971D01*
X189159775Y-137407971D02*
X189445489Y-137407971D01*
X188516918Y-138050828D02*
X188516918Y-136550828D01*
X188516918Y-136550828D02*
X187659775Y-138050828D01*
X187659775Y-138050828D02*
X187659775Y-136550828D01*
X186945489Y-138050828D02*
X186945489Y-136550828D01*
X186945489Y-136550828D02*
X186588346Y-136550828D01*
X186588346Y-136550828D02*
X186374060Y-136622257D01*
X186374060Y-136622257D02*
X186231203Y-136765114D01*
X186231203Y-136765114D02*
X186159774Y-136907971D01*
X186159774Y-136907971D02*
X186088346Y-137193685D01*
X186088346Y-137193685D02*
X186088346Y-137407971D01*
X186088346Y-137407971D02*
X186159774Y-137693685D01*
X186159774Y-137693685D02*
X186231203Y-137836542D01*
X186231203Y-137836542D02*
X186374060Y-137979400D01*
X186374060Y-137979400D02*
X186588346Y-138050828D01*
X186588346Y-138050828D02*
X186945489Y-138050828D01*
M02*
