M48
; DRILL file {KiCad 8.0.4} date 2025-05-14T15:53:43-0400
; FORMAT={-:-/ absolute / inch / decimal}
; #@! TF.CreationDate,2025-05-14T15:53:43-04:00
; #@! TF.GenerationSoftware,Kicad,Pcbnew,8.0.4
; #@! TF.FileFunction,Plated,1,2,PTH
FMAT,2
INCH
; #@! TA.AperFunction,Plated,PTH,ViaDrill
T1C0.0118
; #@! TA.AperFunction,Plated,PTH,ComponentDrill
T2C0.0197
; #@! TA.AperFunction,Plated,PTH,ComponentDrill
T3C0.0236
; #@! TA.AperFunction,Plated,PTH,ComponentDrill
T4C0.0315
; #@! TA.AperFunction,Plated,PTH,ComponentDrill
T5C0.0320
; #@! TA.AperFunction,Plated,PTH,ComponentDrill
T6C0.0354
; #@! TA.AperFunction,Plated,PTH,ComponentDrill
T7C0.0394
; #@! TA.AperFunction,Plated,PTH,ComponentDrill
T8C0.0433
; #@! TA.AperFunction,Plated,PTH,ComponentDrill
T9C0.0866
%
G90
G05
T1
X3.4154Y-3.6024
X3.4154Y-4.5374
X4.0453Y-4.5394
X4.0453Y-5.0787
X4.2224Y-2.8839
X4.311Y-2.8839
X4.3996Y-3.5728
X4.5079Y-5.374
X4.5965Y-4.2913
X4.685Y-3.5236
X4.7933Y-3.5335
X5.0886Y-4.8425
X5.1083Y-3.1594
X5.128Y-4.4488
X5.2165Y-3.0118
X5.4035Y-3.5965
X5.5217Y-2.8839
X5.5217Y-3.2185
X5.8465Y-3.5138
X5.8504Y-2.8051
X5.9291Y-2.5787
X6.1024Y-2.628
X6.2598Y-2.874
X6.3878Y-3.2579
X6.5846Y-3.4252
X6.7126Y-3.2185
X6.7913Y-2.9331
X6.8012Y-2.7165
X6.811Y-2.5886
X6.8209Y-3.3465
X6.8307Y-4.439
X6.8701Y-3.2579
X6.939Y-2.6378
X6.9587Y-4.0059
X7.0768Y-4.2028
X7.185Y-4.5472
X7.2376Y-3.7008
X7.2736Y-4.1732
X7.2835Y-4.0354
X7.3031Y-2.9528
X7.3524Y-3.9567
X7.4803Y-3.2874
X7.4902Y-4.8031
X7.9429Y-2.9035
X7.9528Y-4.0453
T2
X4.4276Y-3.2776
X4.5276Y-3.2776
T4
X4.1Y-3.3614
X4.1Y-3.6614
X4.2Y-3.3614
X4.2Y-3.6614
X4.3Y-3.3614
X4.3Y-3.6614
X4.4Y-3.3614
X4.4Y-3.6614
X4.5Y-3.3614
X4.5Y-3.6614
X4.6Y-3.3614
X4.6Y-3.6614
X4.7Y-3.3614
X4.7Y-3.6614
X4.8Y-3.3614
X4.8Y-3.6614
X4.9Y-3.3614
X4.9Y-3.6614
X5.0Y-3.3614
X5.0Y-3.6614
X5.1Y-3.3614
X5.1Y-3.6614
X5.2Y-3.3614
X5.2Y-3.6614
X5.3Y-3.3614
X5.3Y-3.6614
X5.4Y-3.3614
X5.4Y-3.6614
X5.7717Y-3.0965
X5.8504Y-3.0965
X5.9291Y-3.0965
X6.0079Y-3.0965
X6.0866Y-3.0965
X6.1654Y-3.0965
X6.2441Y-3.0965
X6.3228Y-3.0965
X6.4016Y-3.0965
X6.4803Y-3.0965
X6.5591Y-3.0965
X6.6378Y-3.0965
X6.7165Y-3.0965
X6.7953Y-3.0965
X6.874Y-3.0965
X6.9528Y-3.0965
T5
X7.537Y-4.2004
X7.537Y-4.3004
X7.537Y-4.4004
X7.537Y-4.5004
X7.837Y-4.2004
X7.837Y-4.3004
X7.837Y-4.4004
X7.837Y-4.5004
T6
X5.1083Y-5.0
X5.1083Y-5.1969
X5.3445Y-5.0
X5.3445Y-5.1969
T7
X3.6008Y-3.6024
X3.6008Y-3.7024
X3.6008Y-3.8024
X3.7008Y-3.6024
X3.7008Y-3.7024
X3.7008Y-3.8024
X7.5492Y-3.7106
X7.7461Y-3.7106
T8
X4.5311Y-4.4587
X4.9311Y-4.4587
T9
X6.0236Y-5.1969
T3
G00X4.4626Y-5.1673
M15
G01X4.4626Y-5.1043
M16
G05
G00X4.8484Y-5.1673
M15
G01X4.8484Y-5.1043
M16
G05
T4
G00X4.498Y-4.872
M15
G01X4.498Y-4.8248
M16
G05
G00X4.7067Y-4.872
M15
G01X4.7067Y-4.8248
M16
G05
G00X4.8327Y-4.872
M15
G01X4.8327Y-4.8248
M16
G05
M30
