%TF.GenerationSoftware,KiCad,Pcbnew,8.0.4*%
%TF.CreationDate,2025-05-14T15:51:55-04:00*%
%TF.ProjectId,am-receiver,616d2d72-6563-4656-9976-65722e6b6963,rev?*%
%TF.SameCoordinates,Original*%
%TF.FileFunction,Soldermask,Bot*%
%TF.FilePolarity,Negative*%
%FSLAX46Y46*%
G04 Gerber Fmt 4.6, Leading zero omitted, Abs format (unit mm)*
G04 Created by KiCad (PCBNEW 8.0.4) date 2025-05-14 15:51:55*
%MOMM*%
%LPD*%
G01*
G04 APERTURE LIST*
G04 Aperture macros list*
%AMRoundRect*
0 Rectangle with rounded corners*
0 $1 Rounding radius*
0 $2 $3 $4 $5 $6 $7 $8 $9 X,Y pos of 4 corners*
0 Add a 4 corners polygon primitive as box body*
4,1,4,$2,$3,$4,$5,$6,$7,$8,$9,$2,$3,0*
0 Add four circle primitives for the rounded corners*
1,1,$1+$1,$2,$3*
1,1,$1+$1,$4,$5*
1,1,$1+$1,$6,$7*
1,1,$1+$1,$8,$9*
0 Add four rect primitives between the rounded corners*
20,1,$1+$1,$2,$3,$4,$5,0*
20,1,$1+$1,$4,$5,$6,$7,0*
20,1,$1+$1,$6,$7,$8,$9,0*
20,1,$1+$1,$8,$9,$2,$3,0*%
G04 Aperture macros list end*
%ADD10R,1.800000X1.800000*%
%ADD11C,1.800000*%
%ADD12C,3.800000*%
%ADD13RoundRect,0.250000X0.600000X0.600000X-0.600000X0.600000X-0.600000X-0.600000X0.600000X-0.600000X0*%
%ADD14C,1.700000*%
%ADD15C,1.931200*%
%ADD16R,1.350000X1.350000*%
%ADD17O,1.350000X1.350000*%
%ADD18C,2.744000*%
%ADD19C,1.000000*%
%ADD20R,1.600000X1.600000*%
%ADD21O,1.600000X1.600000*%
%ADD22R,2.200000X2.200000*%
%ADD23O,2.200000X2.200000*%
%ADD24C,2.130000*%
%ADD25R,1.800000X3.000000*%
%ADD26O,1.800000X3.000000*%
%ADD27O,1.600000X3.000000*%
G04 APERTURE END LIST*
D10*
%TO.C,SW2*%
X129750000Y-132000000D03*
D11*
X129750000Y-127000000D03*
X135750000Y-132000000D03*
X135750000Y-127000000D03*
%TD*%
D12*
%TO.C,AE1*%
X153000000Y-132000000D03*
%TD*%
D13*
%TO.C,J2*%
X94000000Y-96580000D03*
D14*
X91460000Y-96580000D03*
X94000000Y-94040000D03*
X91460000Y-94040000D03*
X94000000Y-91500000D03*
X91460000Y-91500000D03*
%TD*%
D15*
%TO.C,U1*%
X191440000Y-106690000D03*
X191440000Y-109230000D03*
X191440000Y-111770000D03*
X191440000Y-114310000D03*
X199060000Y-114310000D03*
X199060000Y-111770000D03*
X199060000Y-109230000D03*
X199060000Y-106690000D03*
%TD*%
D16*
%TO.C,J3*%
X146600000Y-78650000D03*
D17*
X148600000Y-78650000D03*
X150600000Y-78650000D03*
X152600000Y-78650000D03*
X154600000Y-78650000D03*
X156600000Y-78650000D03*
X158600000Y-78650000D03*
X160600000Y-78650000D03*
X162600000Y-78650000D03*
X164600000Y-78650000D03*
X166600000Y-78650000D03*
X168600000Y-78650000D03*
X170600000Y-78650000D03*
X172600000Y-78650000D03*
X174600000Y-78650000D03*
X176600000Y-78650000D03*
%TD*%
D18*
%TO.C,ST171*%
X191750000Y-94250000D03*
X196750000Y-94250000D03*
%TD*%
D19*
%TO.C,Y1*%
X115000000Y-83250000D03*
X112460000Y-83250000D03*
%TD*%
D20*
%TO.C,U2*%
X137160000Y-85380000D03*
D21*
X134620000Y-85380000D03*
X132080000Y-85380000D03*
X129540000Y-85380000D03*
X127000000Y-85380000D03*
X124460000Y-85380000D03*
X121920000Y-85380000D03*
X119380000Y-85380000D03*
X116840000Y-85380000D03*
X114300000Y-85380000D03*
X111760000Y-85380000D03*
X109220000Y-85380000D03*
X106680000Y-85380000D03*
X104140000Y-85380000D03*
X104140000Y-93000000D03*
X106680000Y-93000000D03*
X109220000Y-93000000D03*
X111760000Y-93000000D03*
X114300000Y-93000000D03*
X116840000Y-93000000D03*
X119380000Y-93000000D03*
X121920000Y-93000000D03*
X124460000Y-93000000D03*
X127000000Y-93000000D03*
X129540000Y-93000000D03*
X132080000Y-93000000D03*
X134620000Y-93000000D03*
X137160000Y-93000000D03*
%TD*%
D22*
%TO.C,D2*%
X115090000Y-113250000D03*
D23*
X125250000Y-113250000D03*
%TD*%
D24*
%TO.C,J1*%
X119550000Y-129450000D03*
D25*
X122750000Y-123150000D03*
D26*
X114250000Y-123150000D03*
X119550000Y-123150000D03*
D27*
X113350000Y-130450000D03*
X123150000Y-130450000D03*
%TD*%
M02*
